<svg version="1.1" viewBox="0.0 0.0 644.0 369.0" fill="none" stroke="none" stroke-linecap="square" stroke-miterlimit="10" width="644" height="369" xmlns:xlink="http://www.w3.org/1999/xlink" xmlns="http://www.w3.org/2000/svg"><path fill="#ffffff" d="M0 0L644.0 0L644.0 369.0L0 369.0L0 0Z" fill-rule="nonzero"/><path fill="#2e5dab" d="M469.9 213.7425C469.9 241.20036 454.31772 267.53363 426.5811 286.94928L426.5811 264.76425C454.31772 245.34862 469.9 219.01537 469.9 191.5575Z" fill-rule="nonzero"/><path fill="#2e5dab" d="M322.0 139.7925C362.84146 139.7925 395.95 162.96848 395.95 191.5575L395.95 213.7425C395.95 185.15347 362.84146 161.9775 322.0 161.9775Z" fill-rule="nonzero"/><path fill="#4285f4" d="M322.0 88.0275C381.81998 88.0275 435.74966 113.25178 458.64178 151.93828C481.5339 190.62479 468.8802 235.15489 426.5811 264.76425L374.29056 228.16089C395.4401 213.3562 401.76694 191.09114 390.3209 171.7479C378.87485 152.40463 351.90997 139.7925 322.0 139.7925Z" fill-rule="nonzero"/><path fill="#b08403" d="M193.91484 265.5075C180.9339 249.76895 174.1 231.91582 174.1 213.7425L174.1 191.5575C174.1 209.7308 180.9339 227.58395 193.91484 243.3225Z" fill-rule="nonzero"/><path fill="#b08403" d="M248.05 191.5575C248.05 162.96848 281.15854 139.7925 322.0 139.7925L322.0 161.9775C281.15854 161.9775 248.05 185.15347 248.05 213.7425Z" fill-rule="nonzero"/><path fill="#fbbc04" d="M193.91484 243.3225C167.49506 211.2902 167.49506 171.8248 193.91484 139.7925C220.33464 107.76021 269.16043 88.0275 322.0 88.0275L322.0 139.7925C295.5802 139.7925 271.16733 149.65886 257.95743 165.675C244.74753 181.69115 244.74753 201.42386 257.95743 217.44Z" fill-rule="nonzero"/><path fill="#6f8aa2" d="M426.5811 286.94928C394.0679 309.7085 348.2824 320.58795 302.6952 316.38678C257.10794 312.1856 216.90514 293.38174 193.91484 265.5075L193.91484 243.3225C216.90514 271.19675 257.10794 290.0006 302.6952 294.20178C348.2824 298.40295 394.0679 287.5235 426.5811 264.76425Z" fill-rule="nonzero"/><path fill="#9fc5e8" d="M426.5811 264.76425C394.0679 287.5235 348.2824 298.40295 302.6952 294.20178C257.10794 290.0006 216.90514 271.19675 193.91484 243.3225L257.95743 217.44C269.45258 231.37712 289.554 240.77905 312.3476 242.87964C335.1412 244.98022 358.03397 239.5405 374.29056 228.16089Z" fill-rule="nonzero"/><path fill="#000000" d="M426.2123 163.09088L427.3998 162.9815Q427.54044 163.80963 427.9623 164.18463Q428.3998 164.55963 429.05606 164.55963Q429.61856 164.55963 430.04044 164.30963Q430.47794 164.044 430.74356 163.6065Q431.0248 163.169 431.2123 162.43463Q431.3998 161.70026 431.3998 160.93463Q431.3998 160.8565 431.3842 160.68463Q431.0248 161.27838 430.3842 161.65338Q429.74356 162.01276 428.99356 162.01276Q427.74356 162.01276 426.8842 161.1065Q426.0248 160.20026 426.0248 158.7315Q426.0248 157.20026 426.91544 156.27838Q427.8217 155.34088 429.18106 155.34088Q430.1498 155.34088 430.9623 155.87213Q431.7748 156.38776 432.1967 157.37213Q432.61856 158.34088 432.61856 160.18463Q432.61856 162.1065 432.1967 163.24713Q431.79044 164.38776 430.9623 164.9815Q430.1342 165.57526 429.0248 165.57526Q427.85294 165.57526 427.10294 164.919Q426.36856 164.26276 426.2123 163.09088ZM431.24356 158.669Q431.24356 157.6065 430.68106 156.9815Q430.11856 156.3565 429.3373 156.3565Q428.5092 156.3565 427.8998 157.02838Q427.29044 157.70026 427.29044 158.76276Q427.29044 159.71588 427.86856 160.32526Q428.4467 160.919 429.29044 160.919Q430.1498 160.919 430.6967 160.32526Q431.24356 159.71588 431.24356 158.669Z" fill-rule="nonzero"/><path fill="#000000" d="M303.97623 265.9085L303.97623 264.721L310.47623 264.721L310.47623 265.67413Q309.50748 266.68976 308.56998 268.37726Q307.63248 270.06476 307.11685 271.86163Q306.75748 273.11163 306.6481 274.61163L305.38248 274.61163Q305.3981 273.42413 305.8356 271.75226Q306.28873 270.08038 307.11685 268.5335Q307.9606 266.971 308.8981 265.9085L303.97623 265.9085Z" fill-rule="nonzero"/><path fill="#000000" d="M221.61278 151.16783Q220.84715 150.88658 220.47215 150.37096Q220.11278 149.85533 220.11278 149.12096Q220.11278 148.0272 220.89403 147.29283Q221.6909 146.54283 222.98778 146.54283Q224.30028 146.54283 225.09715 147.30846Q225.90965 148.07408 225.90965 149.16783Q225.90965 149.85533 225.53465 150.37096Q225.17528 150.88658 224.42528 151.16783Q225.34715 151.4647 225.83153 152.13658Q226.3159 152.80846 226.3159 153.74596Q226.3159 155.0272 225.40965 155.9022Q224.5034 156.7772 223.01903 156.7772Q221.53465 156.7772 220.61278 155.9022Q219.70653 155.01158 219.70653 153.69908Q219.70653 152.73033 220.20653 152.07408Q220.70653 151.4022 221.61278 151.16783ZM221.3784 149.0897Q221.3784 149.79283 221.83153 150.24596Q222.28465 150.69908 223.01903 150.69908Q223.73778 150.69908 224.1909 150.26158Q224.64403 149.80846 224.64403 149.1522Q224.64403 148.48033 224.17528 148.0272Q223.70653 147.55846 223.0034 147.55846Q222.30028 147.55846 221.83153 148.01158Q221.3784 148.44908 221.3784 149.0897ZM220.97215 153.7147Q220.97215 154.24596 221.22215 154.74596Q221.47215 155.23033 221.95653 155.49596Q222.45653 155.76158 223.03465 155.76158Q223.90965 155.76158 224.47215 155.19908Q225.05028 154.63658 225.05028 153.76158Q225.05028 152.87096 224.45653 152.29283Q223.8784 151.69908 222.98778 151.69908Q222.11278 151.69908 221.53465 152.2772Q220.97215 152.85533 220.97215 153.7147Z" fill-rule="nonzero"/><path fill="#1a1a1a" d="M18.434376 137.88075L21.73125 129.287L22.95 129.287L26.465626 137.88075L25.184376 137.88075L24.16875 135.27138L20.590626 135.27138L19.6375 137.88075L18.434376 137.88075ZM20.91875 134.3495L23.825 134.3495L22.934376 131.9745Q22.5125 130.89638 22.325 130.19325Q22.153126 131.02138 21.85625 131.83388L20.91875 134.3495ZM30.325 137.88075L30.325 136.95888Q29.590626 138.02138 28.340626 138.02138Q27.79375 138.02138 27.309376 137.81825Q26.840626 137.5995 26.60625 137.287Q26.371876 136.95888 26.278126 136.49013Q26.215626 136.19325 26.215626 135.50575L26.215626 131.662L27.278126 131.662L27.278126 135.11513Q27.278126 135.92763 27.340626 136.2245Q27.434376 136.63075 27.746876 136.88075Q28.075 137.11513 28.559376 137.11513Q29.028126 137.11513 29.434376 136.88075Q29.85625 136.63075 30.028126 136.20888Q30.215626 135.787 30.215626 134.99013L30.215626 131.662L31.2625 131.662L31.2625 137.88075L30.325 137.88075ZM35.54375 136.94325L35.7 137.86513Q35.246876 137.95888 34.903126 137.95888Q34.325 137.95888 34.0125 137.787Q33.7 137.5995 33.559376 137.30263Q33.434376 137.00575 33.434376 136.05263L33.434376 132.4745L32.66875 132.4745L32.66875 131.662L33.434376 131.662L33.434376 130.11513L34.48125 129.49013L34.48125 131.662L35.54375 131.662L35.54375 132.4745L34.48125 132.4745L34.48125 136.11513Q34.48125 136.56825 34.528126 136.69325Q34.590626 136.81825 34.715626 136.89638Q34.840626 136.9745 35.075 136.9745Q35.2625 136.9745 35.54375 136.94325ZM36.23125 137.88075L36.23125 131.662L37.184376 131.662L37.184376 132.5995Q37.54375 131.94325 37.840626 131.74013Q38.153126 131.52138 38.528126 131.52138Q39.059376 131.52138 39.60625 131.8495L39.246876 132.83388Q38.85625 132.5995 38.48125 132.5995Q38.121876 132.5995 37.840626 132.81825Q37.575 133.02138 37.465626 133.39638Q37.278126 133.95888 37.278126 134.61513L37.278126 137.88075L36.23125 137.88075ZM44.496876 135.88075L45.590626 136.00575Q45.340626 136.95888 44.6375 137.49013Q43.934376 138.02138 42.85625 138.02138Q41.496876 138.02138 40.684376 137.17763Q39.8875 136.33388 39.8875 134.81825Q39.8875 133.25575 40.7 132.39638Q41.5125 131.52138 42.79375 131.52138Q44.04375 131.52138 44.825 132.36513Q45.621876 133.20888 45.621876 134.75575Q45.621876 134.8495 45.621876 135.037L40.98125 135.037Q41.04375 136.06825 41.559376 136.61513Q42.075 137.14638 42.85625 137.14638Q43.434376 137.14638 43.840626 136.8495Q44.2625 136.537 44.496876 135.88075ZM41.04375 134.17763L44.5125 134.17763Q44.45 133.38075 44.121876 132.99013Q43.60625 132.38075 42.809376 132.38075Q42.075 132.38075 41.575 132.86513Q41.090626 133.3495 41.04375 134.17763ZM46.825 136.02138L47.85625 135.86513Q47.95 136.49013 48.340626 136.81825Q48.746876 137.14638 49.48125 137.14638Q50.2 137.14638 50.54375 136.86513Q50.903126 136.56825 50.903126 136.162Q50.903126 135.80263 50.590626 135.5995Q50.371876 135.45888 49.5125 135.24013Q48.35625 134.94325 47.903126 134.74013Q47.465626 134.52138 47.23125 134.14638Q46.996876 133.77138 46.996876 133.30263Q46.996876 132.89638 47.184376 132.537Q47.371876 132.17763 47.7 131.94325Q47.95 131.77138 48.371876 131.64638Q48.79375 131.52138 49.29375 131.52138Q50.0125 131.52138 50.559376 131.74013Q51.121876 131.94325 51.3875 132.30263Q51.653126 132.662 51.746876 133.25575L50.715626 133.39638Q50.653126 132.92763 50.309376 132.662Q49.98125 132.38075 49.35625 132.38075Q48.6375 132.38075 48.325 132.63075Q48.0125 132.86513 48.0125 133.19325Q48.0125 133.39638 48.1375 133.55263Q48.278126 133.7245 48.54375 133.83388Q48.7 133.89638 49.48125 134.0995Q50.60625 134.412 51.04375 134.5995Q51.48125 134.787 51.73125 135.14638Q51.98125 135.50575 51.98125 136.05263Q51.98125 136.58388 51.66875 137.05263Q51.371876 137.50575 50.79375 137.77138Q50.215626 138.02138 49.48125 138.02138Q48.2625 138.02138 47.621876 137.52138Q46.996876 137.00575 46.825 136.02138Z" fill-rule="nonzero"/><path fill="#9e9e9e" d="M18.95 152.61513L20.0125 152.4745Q20.184376 153.36513 20.621876 153.77138Q21.059376 154.162 21.684376 154.162Q22.434376 154.162 22.95 153.64638Q23.465626 153.13075 23.465626 152.36513Q23.465626 151.64638 22.98125 151.17763Q22.5125 150.69325 21.778126 150.69325Q21.48125 150.69325 21.028126 150.81825L21.153126 149.88075Q21.2625 149.89638 21.325 149.89638Q21.996876 149.89638 22.528126 149.55263Q23.075 149.19325 23.075 148.45888Q23.075 147.88075 22.684376 147.50575Q22.29375 147.11513 21.66875 147.11513Q21.059376 147.11513 20.6375 147.50575Q20.23125 147.89638 20.121876 148.662L19.059376 148.4745Q19.246876 147.42763 19.934376 146.8495Q20.621876 146.25575 21.6375 146.25575Q22.340626 146.25575 22.934376 146.56825Q23.528126 146.86513 23.840626 147.38075Q24.153126 147.89638 24.153126 148.49013Q24.153126 149.037 23.85625 149.50575Q23.559376 149.95888 22.98125 150.2245Q23.73125 150.39638 24.153126 150.95888Q24.575 151.50575 24.575 152.3495Q24.575 153.4745 23.746876 154.25575Q22.934376 155.037 21.684376 155.037Q20.559376 155.037 19.809376 154.36513Q19.059376 153.67763 18.95 152.61513ZM25.95 152.61513L27.0125 152.4745Q27.184376 153.36513 27.621876 153.77138Q28.059376 154.162 28.684376 154.162Q29.434376 154.162 29.95 153.64638Q30.465626 153.13075 30.465626 152.36513Q30.465626 151.64638 29.98125 151.17763Q29.5125 150.69325 28.778126 150.69325Q28.48125 150.69325 28.028126 150.81825L28.153126 149.88075Q28.2625 149.89638 28.325 149.89638Q28.996876 149.89638 29.528126 149.55263Q30.075 149.19325 30.075 148.45888Q30.075 147.88075 29.684376 147.50575Q29.29375 147.11513 28.66875 147.11513Q28.059376 147.11513 27.6375 147.50575Q27.23125 147.89638 27.121876 148.662L26.059376 148.4745Q26.246876 147.42763 26.934376 146.8495Q27.621876 146.25575 28.6375 146.25575Q29.340626 146.25575 29.934376 146.56825Q30.528126 146.86513 30.840626 147.38075Q31.153126 147.89638 31.153126 148.49013Q31.153126 149.037 30.85625 149.50575Q30.559376 149.95888 29.98125 150.2245Q30.73125 150.39638 31.153126 150.95888Q31.575 151.50575 31.575 152.3495Q31.575 153.4745 30.746876 154.25575Q29.934376 155.037 28.684376 155.037Q27.559376 155.037 26.809376 154.36513Q26.059376 153.67763 25.95 152.61513ZM33.5125 154.88075L33.5125 153.67763L34.715626 153.67763L34.715626 154.88075Q34.715626 155.537 34.48125 155.94325Q34.246876 156.36513 33.746876 156.58388L33.45 156.13075Q33.778126 155.99013 33.934376 155.69325Q34.090626 155.412 34.121876 154.88075L33.5125 154.88075ZM35.95 152.61513L37.0125 152.4745Q37.184376 153.36513 37.621876 153.77138Q38.059376 154.162 38.684376 154.162Q39.434376 154.162 39.95 153.64638Q40.465626 153.13075 40.465626 152.36513Q40.465626 151.64638 39.98125 151.17763Q39.5125 150.69325 38.778126 150.69325Q38.48125 150.69325 38.028126 150.81825L38.153126 149.88075Q38.2625 149.89638 38.325 149.89638Q38.996876 149.89638 39.528126 149.55263Q40.075 149.19325 40.075 148.45888Q40.075 147.88075 39.684376 147.50575Q39.29375 147.11513 38.66875 147.11513Q38.059376 147.11513 37.6375 147.50575Q37.23125 147.89638 37.121876 148.662L36.059376 148.4745Q36.246876 147.42763 36.934376 146.8495Q37.621876 146.25575 38.6375 146.25575Q39.340626 146.25575 39.934376 146.56825Q40.528126 146.86513 40.840626 147.38075Q41.153126 147.89638 41.153126 148.49013Q41.153126 149.037 40.85625 149.50575Q40.559376 149.95888 39.98125 150.2245Q40.73125 150.39638 41.153126 150.95888Q41.575 151.50575 41.575 152.3495Q41.575 153.4745 40.746876 154.25575Q39.934376 155.037 38.684376 155.037Q37.559376 155.037 36.809376 154.36513Q36.059376 153.67763 35.95 152.61513ZM43.153126 148.3495Q43.153126 147.42763 43.60625 146.787Q44.075 146.14638 44.95 146.14638Q45.7625 146.14638 46.29375 146.7245Q46.825 147.30263 46.825 148.412Q46.825 149.50575 46.278126 150.0995Q45.746876 150.67763 44.965626 150.67763Q44.184376 150.67763 43.66875 150.0995Q43.153126 149.52138 43.153126 148.3495ZM44.98125 146.86513Q44.590626 146.86513 44.325 147.20888Q44.075 147.55263 44.075 148.45888Q44.075 149.287 44.325 149.63075Q44.590626 149.95888 44.98125 149.95888Q45.3875 149.95888 45.6375 149.61513Q45.903126 149.27138 45.903126 148.38075Q45.903126 147.537 45.6375 147.20888Q45.371876 146.86513 44.98125 146.86513ZM44.98125 155.19325L49.684376 146.14638L50.54375 146.14638L45.85625 155.19325L44.98125 155.19325ZM48.7 152.86513Q48.7 151.94325 49.153126 151.30263Q49.621876 150.662 50.5125 150.662Q51.325 150.662 51.85625 151.24013Q52.3875 151.80263 52.3875 152.92763Q52.3875 154.02138 51.840626 154.61513Q51.309376 155.19325 50.5125 155.19325Q49.746876 155.19325 49.215626 154.61513Q48.7 154.037 48.7 152.86513ZM50.54375 151.38075Q50.1375 151.38075 49.871876 151.7245Q49.621876 152.06825 49.621876 152.9745Q49.621876 153.787 49.8875 154.13075Q50.153126 154.4745 50.54375 154.4745Q50.934376 154.4745 51.2 154.13075Q51.465626 153.787 51.465626 152.88075Q51.465626 152.05263 51.2 151.7245Q50.934376 151.38075 50.54375 151.38075Z" fill-rule="nonzero"/><path stroke="#757575" stroke-width="1.0" stroke-linecap="butt" d="M18.45 142.38075L168.1 142.38075L200.3191 142.38075" fill-rule="nonzero"/><path fill="#9e9e9e" d="M202.3191 142.38075C202.3191 141.27618 201.42368 140.38075 200.3191 140.38075C199.21454 140.38075 198.3191 141.27618 198.3191 142.38075C198.3191 143.48532 199.21454 144.38075 200.3191 144.38075C201.42368 144.38075 202.3191 143.48532 202.3191 142.38075" fill-rule="nonzero"/><path fill="#1a1a1a" d="M19.3875 284.56958L19.3875 275.97583L23.2 275.97583Q24.35625 275.97583 24.95 276.2102Q25.54375 276.44458 25.903126 277.03833Q26.2625 277.61646 26.2625 278.31958Q26.2625 279.24146 25.66875 279.86646Q25.075 280.49146 23.840626 280.66333Q24.29375 280.88208 24.528126 281.0852Q25.028126 281.53833 25.465626 282.22583L26.965626 284.56958L25.528126 284.56958L24.403126 282.78833Q23.903126 282.00708 23.575 281.60083Q23.2625 281.19458 22.996876 281.03833Q22.746876 280.86646 22.48125 280.78833Q22.29375 280.75708 21.85625 280.75708L20.528126 280.75708L20.528126 284.56958L19.3875 284.56958ZM20.528126 279.7727L22.98125 279.7727Q23.746876 279.7727 24.184376 279.61646Q24.6375 279.44458 24.85625 279.10083Q25.090626 278.74146 25.090626 278.31958Q25.090626 277.7102 24.6375 277.31958Q24.2 276.92896 23.246876 276.92896L20.528126 276.92896L20.528126 279.7727ZM32.496876 282.56958L33.590626 282.69458Q33.340626 283.6477 32.6375 284.17896Q31.934376 284.7102 30.85625 284.7102Q29.496876 284.7102 28.684376 283.86646Q27.8875 283.0227 27.8875 281.50708Q27.8875 279.94458 28.7 279.0852Q29.5125 278.2102 30.79375 278.2102Q32.04375 278.2102 32.825 279.05396Q33.621876 279.8977 33.621876 281.44458Q33.621876 281.53833 33.621876 281.72583L28.98125 281.72583Q29.04375 282.75708 29.559376 283.30396Q30.075 283.8352 30.85625 283.8352Q31.434376 283.8352 31.840626 283.53833Q32.2625 283.22583 32.496876 282.56958ZM29.04375 280.86646L32.5125 280.86646Q32.45 280.06958 32.121876 279.67896Q31.60625 279.06958 30.809376 279.06958Q30.075 279.06958 29.575 279.55396Q29.090626 280.03833 29.04375 280.86646ZM37.54375 283.63208L37.7 284.55396Q37.246876 284.6477 36.903126 284.6477Q36.325 284.6477 36.0125 284.47583Q35.7 284.28833 35.559376 283.99146Q35.434376 283.69458 35.434376 282.74146L35.434376 279.16333L34.66875 279.16333L34.66875 278.35083L35.434376 278.35083L35.434376 276.80396L36.48125 276.17896L36.48125 278.35083L37.54375 278.35083L37.54375 279.16333L36.48125 279.16333L36.48125 282.80396Q36.48125 283.25708 36.528126 283.38208Q36.590626 283.50708 36.715626 283.5852Q36.840626 283.66333 37.075 283.66333Q37.2625 283.66333 37.54375 283.63208ZM38.23125 284.56958L38.23125 278.35083L39.184376 278.35083L39.184376 279.28833Q39.54375 278.63208 39.840626 278.42896Q40.153126 278.2102 40.528126 278.2102Q41.059376 278.2102 41.60625 278.53833L41.246876 279.5227Q40.85625 279.28833 40.48125 279.28833Q40.121876 279.28833 39.840626 279.50708Q39.575 279.7102 39.465626 280.0852Q39.278126 280.6477 39.278126 281.30396L39.278126 284.56958L38.23125 284.56958ZM46.309376 283.80396Q45.715626 284.30396 45.16875 284.50708Q44.6375 284.7102 44.0125 284.7102Q42.98125 284.7102 42.434376 284.2102Q41.8875 283.7102 41.8875 282.92896Q41.8875 282.47583 42.090626 282.10083Q42.29375 281.7102 42.6375 281.49146Q42.98125 281.25708 43.403126 281.1477Q43.7 281.05396 44.340626 280.97583Q45.60625 280.8352 46.215626 280.61646Q46.215626 280.3977 46.215626 280.35083Q46.215626 279.69458 45.91875 279.42896Q45.5125 279.0852 44.715626 279.0852Q43.98125 279.0852 43.621876 279.35083Q43.2625 279.60083 43.090626 280.25708L42.059376 280.11646Q42.2 279.4602 42.528126 279.05396Q42.85625 278.6477 43.465626 278.42896Q44.075 278.2102 44.871876 278.2102Q45.66875 278.2102 46.16875 278.3977Q46.66875 278.5852 46.903126 278.86646Q47.1375 279.1477 47.23125 279.5852Q47.278126 279.85083 47.278126 280.55396L47.278126 281.9602Q47.278126 283.42896 47.340626 283.81958Q47.41875 284.2102 47.621876 284.56958L46.5125 284.56958Q46.35625 284.24146 46.309376 283.80396ZM46.215626 281.44458Q45.6375 281.67896 44.496876 281.85083Q43.840626 281.94458 43.575 282.06958Q43.309376 282.17896 43.153126 282.3977Q43.0125 282.61646 43.0125 282.8977Q43.0125 283.31958 43.325 283.60083Q43.653126 283.88208 44.2625 283.88208Q44.871876 283.88208 45.340626 283.61646Q45.825 283.35083 46.04375 282.88208Q46.215626 282.5227 46.215626 281.8352L46.215626 281.44458ZM49.246876 277.19458L49.246876 275.97583L50.309376 275.97583L50.309376 277.19458L49.246876 277.19458ZM49.246876 284.56958L49.246876 278.35083L50.309376 278.35083L50.309376 284.56958L49.246876 284.56958ZM54.54375 283.63208L54.7 284.55396Q54.246876 284.6477 53.903126 284.6477Q53.325 284.6477 53.0125 284.47583Q52.7 284.28833 52.559376 283.99146Q52.434376 283.69458 52.434376 282.74146L52.434376 279.16333L51.66875 279.16333L51.66875 278.35083L52.434376 278.35083L52.434376 276.80396L53.48125 276.17896L53.48125 278.35083L54.54375 278.35083L54.54375 279.16333L53.48125 279.16333L53.48125 282.80396Q53.48125 283.25708 53.528126 283.38208Q53.590626 283.50708 53.715626 283.5852Q53.840626 283.66333 54.075 283.66333Q54.2625 283.66333 54.54375 283.63208ZM59.496876 282.56958L60.590626 282.69458Q60.340626 283.6477 59.6375 284.17896Q58.934376 284.7102 57.85625 284.7102Q56.496876 284.7102 55.684376 283.86646Q54.8875 283.0227 54.8875 281.50708Q54.8875 279.94458 55.7 279.0852Q56.5125 278.2102 57.79375 278.2102Q59.04375 278.2102 59.825 279.05396Q60.621876 279.8977 60.621876 281.44458Q60.621876 281.53833 60.621876 281.72583L55.98125 281.72583Q56.04375 282.75708 56.559376 283.30396Q57.075 283.8352 57.85625 283.8352Q58.434376 283.8352 58.840626 283.53833Q59.2625 283.22583 59.496876 282.56958ZM56.04375 280.86646L59.5125 280.86646Q59.45 280.06958 59.121876 279.67896Q58.60625 279.06958 57.809376 279.06958Q57.075 279.06958 56.575 279.55396Q56.090626 280.03833 56.04375 280.86646ZM57.16875 277.56958L57.95 275.92896L59.340626 275.92896L58.04375 277.56958L57.16875 277.56958ZM61.825 282.7102L62.85625 282.55396Q62.95 283.17896 63.340626 283.50708Q63.746876 283.8352 64.48125 283.8352Q65.2 283.8352 65.54375 283.55396Q65.90312 283.25708 65.90312 282.85083Q65.90312 282.49146 65.59062 282.28833Q65.37187 282.1477 64.5125 281.92896Q63.35625 281.63208 62.903126 281.42896Q62.465626 281.2102 62.23125 280.8352Q61.996876 280.4602 61.996876 279.99146Q61.996876 279.5852 62.184376 279.22583Q62.371876 278.86646 62.7 278.63208Q62.95 278.4602 63.371876 278.3352Q63.79375 278.2102 64.29375 278.2102Q65.0125 278.2102 65.55937 278.42896Q66.12187 278.63208 66.3875 278.99146Q66.65312 279.35083 66.74687 279.94458L65.71562 280.0852Q65.65312 279.61646 65.30937 279.35083Q64.98125 279.06958 64.35625 279.06958Q63.6375 279.06958 63.325 279.31958Q63.0125 279.55396 63.0125 279.88208Q63.0125 280.0852 63.1375 280.24146Q63.278126 280.41333 63.54375 280.5227Q63.7 280.5852 64.48125 280.78833Q65.60625 281.10083 66.04375 281.28833Q66.48125 281.47583 66.73125 281.8352Q66.98125 282.19458 66.98125 282.74146Q66.98125 283.2727 66.66875 283.74146Q66.37187 284.19458 65.79375 284.4602Q65.21562 284.7102 64.48125 284.7102Q63.2625 284.7102 62.621876 284.2102Q61.996876 283.69458 61.825 282.7102Z" fill-rule="nonzero"/><path fill="#9e9e9e" d="M24.496876 300.55396L24.496876 301.56958L18.809376 301.56958Q18.809376 301.19458 18.934376 300.8352Q19.153126 300.25708 19.621876 299.69458Q20.10625 299.13208 21.0125 298.3977Q22.41875 297.24146 22.903126 296.56958Q23.403126 295.8977 23.403126 295.30396Q23.403126 294.67896 22.95 294.25708Q22.496876 293.81958 21.778126 293.81958Q21.0125 293.81958 20.559376 294.2727Q20.10625 294.72583 20.090626 295.53833L19.0125 295.42896Q19.121876 294.2102 19.840626 293.5852Q20.575 292.94458 21.809376 292.94458Q23.04375 292.94458 23.7625 293.63208Q24.48125 294.31958 24.48125 295.3352Q24.48125 295.85083 24.2625 296.35083Q24.059376 296.8352 23.559376 297.3977Q23.075 297.94458 21.95 298.8977Q20.996876 299.69458 20.715626 299.99146Q20.45 300.2727 20.278126 300.55396L24.496876 300.55396ZM26.10625 299.5852L27.121876 299.49146Q27.246876 300.2102 27.60625 300.53833Q27.98125 300.85083 28.54375 300.85083Q29.028126 300.85083 29.3875 300.63208Q29.7625 300.3977 29.996876 300.03833Q30.23125 299.66333 30.3875 299.03833Q30.54375 298.3977 30.54375 297.74146Q30.54375 297.66333 30.54375 297.5227Q30.23125 298.0227 29.684376 298.35083Q29.1375 298.66333 28.496876 298.66333Q27.41875 298.66333 26.684376 297.8977Q25.95 297.11646 25.95 295.85083Q25.95 294.53833 26.715626 293.74146Q27.496876 292.94458 28.653126 292.94458Q29.48125 292.94458 30.16875 293.3977Q30.871876 293.85083 31.23125 294.69458Q31.590626 295.5227 31.590626 297.10083Q31.590626 298.74146 31.23125 299.72583Q30.8875 300.69458 30.16875 301.2102Q29.465626 301.7102 28.528126 301.7102Q27.5125 301.7102 26.871876 301.16333Q26.23125 300.60083 26.10625 299.5852ZM30.41875 295.78833Q30.41875 294.88208 29.934376 294.35083Q29.465626 293.81958 28.778126 293.81958Q28.075 293.81958 27.54375 294.3977Q27.028126 294.9602 27.028126 295.88208Q27.028126 296.69458 27.528126 297.2102Q28.028126 297.72583 28.746876 297.72583Q29.48125 297.72583 29.95 297.2102Q30.41875 296.69458 30.41875 295.78833ZM33.5125 301.56958L33.5125 300.36646L34.715626 300.36646L34.715626 301.56958Q34.715626 302.22583 34.48125 302.63208Q34.246876 303.05396 33.746876 303.2727L33.45 302.81958Q33.778126 302.67896 33.934376 302.38208Q34.090626 302.10083 34.121876 301.56958L33.5125 301.56958ZM41.496876 300.55396L41.496876 301.56958L35.809376 301.56958Q35.809376 301.19458 35.934376 300.8352Q36.153126 300.25708 36.621876 299.69458Q37.10625 299.13208 38.0125 298.3977Q39.41875 297.24146 39.903126 296.56958Q40.403126 295.8977 40.403126 295.30396Q40.403126 294.67896 39.95 294.25708Q39.496876 293.81958 38.778126 293.81958Q38.0125 293.81958 37.559376 294.2727Q37.10625 294.72583 37.090626 295.53833L36.0125 295.42896Q36.121876 294.2102 36.840626 293.5852Q37.575 292.94458 38.809376 292.94458Q40.04375 292.94458 40.7625 293.63208Q41.48125 294.31958 41.48125 295.3352Q41.48125 295.85083 41.2625 296.35083Q41.059376 296.8352 40.559376 297.3977Q40.075 297.94458 38.95 298.8977Q37.996876 299.69458 37.715626 299.99146Q37.45 300.2727 37.278126 300.55396L41.496876 300.55396ZM43.153126 295.03833Q43.153126 294.11646 43.60625 293.47583Q44.075 292.8352 44.95 292.8352Q45.7625 292.8352 46.29375 293.41333Q46.825 293.99146 46.825 295.10083Q46.825 296.19458 46.278126 296.78833Q45.746876 297.36646 44.965626 297.36646Q44.184376 297.36646 43.66875 296.78833Q43.153126 296.2102 43.153126 295.03833ZM44.98125 293.55396Q44.590626 293.55396 44.325 293.8977Q44.075 294.24146 44.075 295.1477Q44.075 295.97583 44.325 296.31958Q44.590626 296.6477 44.98125 296.6477Q45.3875 296.6477 45.6375 296.30396Q45.903126 295.9602 45.903126 295.06958Q45.903126 294.22583 45.6375 293.8977Q45.371876 293.55396 44.98125 293.55396ZM44.98125 301.88208L49.684376 292.8352L50.54375 292.8352L45.85625 301.88208L44.98125 301.88208ZM48.7 299.55396Q48.7 298.63208 49.153126 297.99146Q49.621876 297.35083 50.5125 297.35083Q51.325 297.35083 51.85625 297.92896Q52.3875 298.49146 52.3875 299.61646Q52.3875 300.7102 51.840626 301.30396Q51.309376 301.88208 50.5125 301.88208Q49.746876 301.88208 49.215626 301.30396Q48.7 300.72583 48.7 299.55396ZM50.54375 298.06958Q50.1375 298.06958 49.871876 298.41333Q49.621876 298.75708 49.621876 299.66333Q49.621876 300.47583 49.8875 300.81958Q50.153126 301.16333 50.54375 301.16333Q50.934376 301.16333 51.2 300.81958Q51.465626 300.47583 51.465626 299.56958Q51.465626 298.74146 51.2 298.41333Q50.934376 298.06958 50.54375 298.06958Z" fill-rule="nonzero"/><path stroke="#757575" stroke-width="1.0" stroke-linecap="butt" d="M18.45 289.06958L168.1 289.06958L303.66043 289.06958" fill-rule="nonzero"/><path fill="#9e9e9e" d="M305.66043 289.06958C305.66043 287.965 304.76498 287.06958 303.66043 287.06958C302.55585 287.06958 301.66043 287.965 301.66043 289.06958C301.66043 290.17413 302.55585 291.06958 303.66043 291.06958C304.76498 291.06958 305.66043 290.17413 305.66043 289.06958" fill-rule="nonzero"/><path fill="#1a1a1a" d="M498.53436 149.41925L498.53436 140.8255L504.33124 140.8255L504.33124 141.84113L499.675 141.84113L499.675 144.49738L503.70624 144.49738L503.70624 145.513L499.675 145.513L499.675 149.41925L498.53436 149.41925ZM509.40936 148.65363Q508.8156 149.15363 508.26874 149.35675Q507.7375 149.55988 507.1125 149.55988Q506.08124 149.55988 505.53436 149.05988Q504.9875 148.55988 504.9875 147.77863Q504.9875 147.3255 505.1906 146.9505Q505.39374 146.55988 505.7375 146.34113Q506.08124 146.10675 506.5031 145.99738Q506.8 145.90363 507.4406 145.8255Q508.70624 145.68488 509.3156 145.46613Q509.3156 145.24738 509.3156 145.2005Q509.3156 144.54425 509.01874 144.27863Q508.6125 143.93488 507.8156 143.93488Q507.08124 143.93488 506.72186 144.2005Q506.3625 144.4505 506.1906 145.10675L505.15936 144.96613Q505.3 144.30988 505.6281 143.90363Q505.95624 143.49738 506.5656 143.27863Q507.175 143.05988 507.97186 143.05988Q508.76874 143.05988 509.26874 143.24738Q509.76874 143.43488 510.0031 143.71613Q510.2375 143.99738 510.33124 144.43488Q510.3781 144.7005 510.3781 145.40363L510.3781 146.80988Q510.3781 148.27863 510.4406 148.66925Q510.51874 149.05988 510.72186 149.41925L509.6125 149.41925Q509.45624 149.09113 509.40936 148.65363ZM509.3156 146.29425Q508.7375 146.52863 507.59686 146.7005Q506.9406 146.79425 506.675 146.91925Q506.40936 147.02863 506.2531 147.24738Q506.1125 147.46613 506.1125 147.74738Q506.1125 148.16925 506.425 148.4505Q506.7531 148.73175 507.3625 148.73175Q507.97186 148.73175 508.4406 148.46613Q508.925 148.2005 509.14374 147.73175Q509.3156 147.37238 509.3156 146.68488L509.3156 146.29425ZM512.34686 149.41925L512.34686 143.2005L513.28436 143.2005L513.28436 144.0755Q513.58124 143.60675 514.0656 143.34113Q514.55 143.05988 515.175 143.05988Q515.8625 143.05988 516.3 143.34113Q516.7531 143.62238 516.925 144.138Q517.675 143.05988 518.84686 143.05988Q519.78436 143.05988 520.26874 143.5755Q520.76874 144.0755 520.76874 145.15363L520.76874 149.41925L519.72186 149.41925L519.72186 145.49738Q519.72186 144.87238 519.6125 144.59113Q519.51874 144.30988 519.2531 144.138Q518.9875 143.96613 518.6125 143.96613Q517.95624 143.96613 517.51874 144.40363Q517.09686 144.84113 517.09686 145.80988L517.09686 149.41925L516.03436 149.41925L516.03436 145.37238Q516.03436 144.66925 515.76874 144.3255Q515.51874 143.96613 514.9406 143.96613Q514.4875 143.96613 514.1125 144.2005Q513.7375 144.43488 513.5656 144.888Q513.39374 145.34113 513.39374 146.18488L513.39374 149.41925L512.34686 149.41925ZM523.34686 142.04425L523.34686 140.8255L524.40936 140.8255L524.40936 142.04425L523.34686 142.04425ZM523.34686 149.41925L523.34686 143.2005L524.40936 143.2005L524.40936 149.41925L523.34686 149.41925ZM526.3156 149.41925L526.3156 140.8255L527.3781 140.8255L527.3781 149.41925L526.3156 149.41925ZM529.3156 149.41925L529.3156 140.8255L530.3781 140.8255L530.3781 149.41925L529.3156 149.41925ZM536.59686 147.41925L537.6906 147.54425Q537.4406 148.49738 536.7375 149.02863Q536.03436 149.55988 534.95624 149.55988Q533.59686 149.55988 532.78436 148.71613Q531.9875 147.87238 531.9875 146.35675Q531.9875 144.79425 532.8 143.93488Q533.6125 143.05988 534.89374 143.05988Q536.14374 143.05988 536.925 143.90363Q537.72186 144.74738 537.72186 146.29425Q537.72186 146.388 537.72186 146.5755L533.08124 146.5755Q533.14374 147.60675 533.65936 148.15363Q534.175 148.68488 534.95624 148.68488Q535.53436 148.68488 535.9406 148.388Q536.3625 148.0755 536.59686 147.41925ZM533.14374 145.71613L536.6125 145.71613Q536.55 144.91925 536.22186 144.52863Q535.70624 143.91925 534.90936 143.91925Q534.175 143.91925 533.675 144.40363Q533.1906 144.888 533.14374 145.71613ZM538.925 147.55988L539.95624 147.40363Q540.05 148.02863 540.4406 148.35675Q540.84686 148.68488 541.58124 148.68488Q542.3 148.68488 542.64374 148.40363Q543.0031 148.10675 543.0031 147.7005Q543.0031 147.34113 542.6906 147.138Q542.47186 146.99738 541.6125 146.77863Q540.45624 146.48175 540.0031 146.27863Q539.5656 146.05988 539.33124 145.68488Q539.09686 145.30988 539.09686 144.84113Q539.09686 144.43488 539.28436 144.0755Q539.47186 143.71613 539.8 143.48175Q540.05 143.30988 540.47186 143.18488Q540.89374 143.05988 541.39374 143.05988Q542.1125 143.05988 542.65936 143.27863Q543.22186 143.48175 543.4875 143.84113Q543.7531 144.2005 543.84686 144.79425L542.8156 144.93488Q542.7531 144.46613 542.40936 144.2005Q542.08124 143.91925 541.45624 143.91925Q540.7375 143.91925 540.425 144.16925Q540.1125 144.40363 540.1125 144.73175Q540.1125 144.93488 540.2375 145.09113Q540.3781 145.263 540.64374 145.37238Q540.8 145.43488 541.58124 145.638Q542.70624 145.9505 543.14374 146.138Q543.58124 146.3255 543.83124 146.68488Q544.08124 147.04425 544.08124 147.59113Q544.08124 148.12238 543.76874 148.59113Q543.47186 149.04425 542.89374 149.30988Q542.3156 149.55988 541.58124 149.55988Q540.3625 149.55988 539.72186 149.05988Q539.09686 148.54425 538.925 147.55988ZM553.40936 148.65363Q552.8156 149.15363 552.26874 149.35675Q551.7375 149.55988 551.1125 149.55988Q550.08124 149.55988 549.53436 149.05988Q548.9875 148.55988 548.9875 147.77863Q548.9875 147.3255 549.1906 146.9505Q549.39374 146.55988 549.7375 146.34113Q550.08124 146.10675 550.5031 145.99738Q550.8 145.90363 551.4406 145.8255Q552.70624 145.68488 553.3156 145.46613Q553.3156 145.24738 553.3156 145.2005Q553.3156 144.54425 553.01874 144.27863Q552.6125 143.93488 551.8156 143.93488Q551.08124 143.93488 550.72186 144.2005Q550.3625 144.4505 550.1906 145.10675L549.15936 144.96613Q549.3 144.30988 549.6281 143.90363Q549.95624 143.49738 550.5656 143.27863Q551.175 143.05988 551.97186 143.05988Q552.76874 143.05988 553.26874 143.24738Q553.76874 143.43488 554.0031 143.71613Q554.2375 143.99738 554.33124 144.43488Q554.3781 144.7005 554.3781 145.40363L554.3781 146.80988Q554.3781 148.27863 554.4406 148.66925Q554.51874 149.05988 554.72186 149.41925L553.6125 149.41925Q553.45624 149.09113 553.40936 148.65363ZM553.3156 146.29425Q552.7375 146.52863 551.59686 146.7005Q550.9406 146.79425 550.675 146.91925Q550.40936 147.02863 550.2531 147.24738Q550.1125 147.46613 550.1125 147.74738Q550.1125 148.16925 550.425 148.4505Q550.7531 148.73175 551.3625 148.73175Q551.97186 148.73175 552.4406 148.46613Q552.925 148.2005 553.14374 147.73175Q553.3156 147.37238 553.3156 146.68488L553.3156 146.29425ZM558.0656 149.41925L555.70624 143.2005L556.8156 143.2005L558.15936 146.91925Q558.3625 147.52863 558.55 148.16925Q558.6906 147.68488 558.9406 146.99738L560.33124 143.2005L561.40936 143.2005L559.05 149.41925L558.0656 149.41925ZM565.59686 147.41925L566.6906 147.54425Q566.4406 148.49738 565.7375 149.02863Q565.03436 149.55988 563.95624 149.55988Q562.59686 149.55988 561.78436 148.71613Q560.9875 147.87238 560.9875 146.35675Q560.9875 144.79425 561.8 143.93488Q562.6125 143.05988 563.89374 143.05988Q565.14374 143.05988 565.925 143.90363Q566.72186 144.74738 566.72186 146.29425Q566.72186 146.388 566.72186 146.5755L562.08124 146.5755Q562.14374 147.60675 562.65936 148.15363Q563.175 148.68488 563.95624 148.68488Q564.53436 148.68488 564.9406 148.388Q565.3625 148.0755 565.59686 147.41925ZM562.14374 145.71613L565.6125 145.71613Q565.55 144.91925 565.22186 144.52863Q564.70624 143.91925 563.90936 143.91925Q563.175 143.91925 562.675 144.40363Q562.1906 144.888 562.14374 145.71613ZM572.40936 147.138L573.4406 147.27863Q573.26874 148.34113 572.5656 148.9505Q571.8625 149.55988 570.84686 149.55988Q569.5656 149.55988 568.78436 148.73175Q568.01874 147.888 568.01874 146.3255Q568.01874 145.3255 568.34686 144.5755Q568.6906 143.80988 569.3625 143.43488Q570.05 143.05988 570.8625 143.05988Q571.8625 143.05988 572.5031 143.5755Q573.15936 144.0755 573.34686 145.02863L572.3156 145.18488Q572.175 144.55988 571.8 144.24738Q571.425 143.91925 570.89374 143.91925Q570.09686 143.91925 569.59686 144.49738Q569.09686 145.05988 569.09686 146.29425Q569.09686 147.55988 569.58124 148.12238Q570.0656 148.68488 570.83124 148.68488Q571.45624 148.68488 571.8625 148.30988Q572.28436 147.93488 572.40936 147.138ZM581.59686 147.41925L582.6906 147.54425Q582.4406 148.49738 581.7375 149.02863Q581.03436 149.55988 579.95624 149.55988Q578.59686 149.55988 577.78436 148.71613Q576.9875 147.87238 576.9875 146.35675Q576.9875 144.79425 577.8 143.93488Q578.6125 143.05988 579.89374 143.05988Q581.14374 143.05988 581.925 143.90363Q582.72186 144.74738 582.72186 146.29425Q582.72186 146.388 582.72186 146.5755L578.08124 146.5755Q578.14374 147.60675 578.65936 148.15363Q579.175 148.68488 579.95624 148.68488Q580.53436 148.68488 580.9406 148.388Q581.3625 148.0755 581.59686 147.41925ZM578.14374 145.71613L581.6125 145.71613Q581.55 144.91925 581.22186 144.52863Q580.70624 143.91925 579.90936 143.91925Q579.175 143.91925 578.675 144.40363Q578.1906 144.888 578.14374 145.71613ZM584.34686 149.41925L584.34686 143.2005L585.28436 143.2005L585.28436 144.0755Q585.97186 143.05988 587.26874 143.05988Q587.83124 143.05988 588.3 143.263Q588.78436 143.46613 589.01874 143.79425Q589.2531 144.12238 589.34686 144.55988Q589.39374 144.85675 589.39374 145.59113L589.39374 149.41925L588.34686 149.41925L588.34686 145.638Q588.34686 144.98175 588.22186 144.66925Q588.09686 144.35675 587.78436 144.16925Q587.47186 143.96613 587.05 143.96613Q586.3781 143.96613 585.8781 144.40363Q585.39374 144.8255 585.39374 146.013L585.39374 149.41925L584.34686 149.41925ZM591.59686 149.41925L591.59686 144.013L590.65936 144.013L590.65936 143.2005L591.59686 143.2005L591.59686 142.52863Q591.59686 141.90363 591.70624 141.60675Q591.8625 141.18488 592.2375 140.93488Q592.6281 140.68488 593.3156 140.68488Q593.76874 140.68488 594.3 140.79425L594.14374 141.7005Q593.8156 141.65363 593.51874 141.65363Q593.03436 141.65363 592.83124 141.85675Q592.64374 142.05988 592.64374 142.62238L592.64374 143.2005L593.8625 143.2005L593.8625 144.013L592.64374 144.013L592.64374 149.41925L591.59686 149.41925ZM598.40936 148.65363Q597.8156 149.15363 597.26874 149.35675Q596.7375 149.55988 596.1125 149.55988Q595.08124 149.55988 594.53436 149.05988Q593.9875 148.55988 593.9875 147.77863Q593.9875 147.3255 594.1906 146.9505Q594.39374 146.55988 594.7375 146.34113Q595.08124 146.10675 595.5031 145.99738Q595.8 145.90363 596.4406 145.8255Q597.70624 145.68488 598.3156 145.46613Q598.3156 145.24738 598.3156 145.2005Q598.3156 144.54425 598.01874 144.27863Q597.6125 143.93488 596.8156 143.93488Q596.08124 143.93488 595.72186 144.2005Q595.3625 144.4505 595.1906 145.10675L594.15936 144.96613Q594.3 144.30988 594.6281 143.90363Q594.95624 143.49738 595.5656 143.27863Q596.175 143.05988 596.97186 143.05988Q597.76874 143.05988 598.26874 143.24738Q598.76874 143.43488 599.0031 143.71613Q599.2375 143.99738 599.33124 144.43488Q599.3781 144.7005 599.3781 145.40363L599.3781 146.80988Q599.3781 148.27863 599.4406 148.66925Q599.51874 149.05988 599.72186 149.41925L598.6125 149.41925Q598.45624 149.09113 598.40936 148.65363ZM598.3156 146.29425Q597.7375 146.52863 596.59686 146.7005Q595.9406 146.79425 595.675 146.91925Q595.40936 147.02863 595.2531 147.24738Q595.1125 147.46613 595.1125 147.74738Q595.1125 148.16925 595.425 148.4505Q595.7531 148.73175 596.3625 148.73175Q596.97186 148.73175 597.4406 148.46613Q597.925 148.2005 598.14374 147.73175Q598.3156 147.37238 598.3156 146.68488L598.3156 146.29425ZM601.34686 149.41925L601.34686 143.2005L602.28436 143.2005L602.28436 144.0755Q602.97186 143.05988 604.26874 143.05988Q604.83124 143.05988 605.3 143.263Q605.78436 143.46613 606.01874 143.79425Q606.2531 144.12238 606.34686 144.55988Q606.39374 144.85675 606.39374 145.59113L606.39374 149.41925L605.34686 149.41925L605.34686 145.638Q605.34686 144.98175 605.22186 144.66925Q605.09686 144.35675 604.78436 144.16925Q604.47186 143.96613 604.05 143.96613Q603.3781 143.96613 602.8781 144.40363Q602.39374 144.8255 602.39374 146.013L602.39374 149.41925L601.34686 149.41925ZM610.64374 148.48175L610.8 149.40363Q610.34686 149.49738 610.0031 149.49738Q609.425 149.49738 609.1125 149.3255Q608.8 149.138 608.65936 148.84113Q608.53436 148.54425 608.53436 147.59113L608.53436 144.013L607.76874 144.013L607.76874 143.2005L608.53436 143.2005L608.53436 141.65363L609.58124 141.02863L609.58124 143.2005L610.64374 143.2005L610.64374 144.013L609.58124 144.013L609.58124 147.65363Q609.58124 148.10675 609.6281 148.23175Q609.6906 148.35675 609.8156 148.43488Q609.9406 148.513 610.175 148.513Q610.3625 148.513 610.64374 148.48175ZM613.3625 151.9505Q612.4875 150.84113 611.8781 149.37238Q611.28436 147.888 611.28436 146.30988Q611.28436 144.91925 611.72186 143.638Q612.2531 142.15363 613.3625 140.68488L614.1125 140.68488Q613.40936 141.90363 613.175 142.41925Q612.8156 143.23175 612.6125 144.10675Q612.3625 145.2005 612.3625 146.30988Q612.3625 149.138 614.1125 151.9505L613.3625 151.9505ZM614.925 147.55988L615.95624 147.40363Q616.05 148.02863 616.4406 148.35675Q616.84686 148.68488 617.58124 148.68488Q618.3 148.68488 618.64374 148.40363Q619.0031 148.10675 619.0031 147.7005Q619.0031 147.34113 618.6906 147.138Q618.47186 146.99738 617.6125 146.77863Q616.45624 146.48175 616.0031 146.27863Q615.5656 146.05988 615.33124 145.68488Q615.09686 145.30988 615.09686 144.84113Q615.09686 144.43488 615.28436 144.0755Q615.47186 143.71613 615.8 143.48175Q616.05 143.30988 616.47186 143.18488Q616.89374 143.05988 617.39374 143.05988Q618.1125 143.05988 618.65936 143.27863Q619.22186 143.48175 619.4875 143.84113Q619.7531 144.2005 619.84686 144.79425L618.8156 144.93488Q618.7531 144.46613 618.40936 144.2005Q618.08124 143.91925 617.45624 143.91925Q616.7375 143.91925 616.425 144.16925Q616.1125 144.40363 616.1125 144.73175Q616.1125 144.93488 616.2375 145.09113Q616.3781 145.263 616.64374 145.37238Q616.8 145.43488 617.58124 145.638Q618.70624 145.9505 619.14374 146.138Q619.58124 146.3255 619.83124 146.68488Q620.08124 147.04425 620.08124 147.59113Q620.08124 148.12238 619.76874 148.59113Q619.47186 149.04425 618.89374 149.30988Q618.3156 149.55988 617.58124 149.55988Q616.3625 149.55988 615.72186 149.05988Q615.09686 148.54425 614.925 147.55988ZM623.03436 151.9505L622.28436 151.9505Q624.03436 149.138 624.03436 146.30988Q624.03436 145.21613 623.78436 144.12238Q623.58124 143.24738 623.22186 142.43488Q622.9875 141.91925 622.28436 140.68488L623.03436 140.68488Q624.1281 142.15363 624.65936 143.638Q625.1125 144.91925 625.1125 146.30988Q625.1125 147.888 624.5031 149.37238Q623.89374 150.84113 623.03436 151.9505Z" fill-rule="nonzero"/><path fill="#9e9e9e" d="M591.05 164.15363L592.1125 164.013Q592.28436 164.90363 592.72186 165.30988Q593.15936 165.7005 593.78436 165.7005Q594.53436 165.7005 595.05 165.18488Q595.5656 164.66925 595.5656 163.90363Q595.5656 163.18488 595.08124 162.71613Q594.6125 162.23175 593.8781 162.23175Q593.58124 162.23175 593.1281 162.35675L593.2531 161.41925Q593.3625 161.43488 593.425 161.43488Q594.09686 161.43488 594.6281 161.09113Q595.175 160.73175 595.175 159.99738Q595.175 159.41925 594.78436 159.04425Q594.39374 158.65363 593.76874 158.65363Q593.15936 158.65363 592.7375 159.04425Q592.33124 159.43488 592.22186 160.2005L591.15936 160.013Q591.34686 158.96613 592.03436 158.388Q592.72186 157.79425 593.7375 157.79425Q594.4406 157.79425 595.03436 158.10675Q595.6281 158.40363 595.9406 158.91925Q596.2531 159.43488 596.2531 160.02863Q596.2531 160.5755 595.95624 161.04425Q595.65936 161.49738 595.08124 161.763Q595.83124 161.93488 596.2531 162.49738Q596.675 163.04425 596.675 163.888Q596.675 165.013 595.84686 165.79425Q595.03436 166.5755 593.78436 166.5755Q592.65936 166.5755 591.90936 165.90363Q591.15936 165.21613 591.05 164.15363ZM598.1125 158.9505L598.1125 157.93488L603.675 157.93488L603.675 158.763Q602.8625 159.638 602.05 161.09113Q601.2531 162.52863 600.8156 164.05988Q600.4875 165.138 600.40936 166.41925L599.3156 166.41925Q599.33124 165.40363 599.70624 163.96613Q600.09686 162.52863 600.8 161.2005Q601.51874 159.87238 602.33124 158.9505L598.1125 158.9505ZM605.6125 166.41925L605.6125 165.21613L606.8156 165.21613L606.8156 166.41925Q606.8156 167.0755 606.58124 167.48175Q606.34686 167.90363 605.84686 168.12238L605.55 167.66925Q605.8781 167.52863 606.03436 167.23175Q606.1906 166.9505 606.22186 166.41925L605.6125 166.41925ZM608.05 164.16925L609.15936 164.0755Q609.28436 164.888 609.72186 165.29425Q610.175 165.7005 610.8156 165.7005Q611.5656 165.7005 612.09686 165.12238Q612.6281 164.54425 612.6281 163.60675Q612.6281 162.7005 612.1125 162.18488Q611.6125 161.65363 610.78436 161.65363Q610.28436 161.65363 609.8625 161.888Q609.45624 162.12238 609.22186 162.48175L608.2375 162.35675L609.0656 157.9505L613.34686 157.9505L613.34686 158.9505L609.90936 158.9505L609.45624 161.263Q610.22186 160.71613 611.0656 160.71613Q612.1906 160.71613 612.95624 161.49738Q613.7375 162.27863 613.7375 163.513Q613.7375 164.66925 613.0656 165.52863Q612.2375 166.55988 610.8156 166.55988Q609.64374 166.55988 608.89374 165.90363Q608.15936 165.24738 608.05 164.16925ZM615.2531 159.888Q615.2531 158.96613 615.70624 158.3255Q616.175 157.68488 617.05 157.68488Q617.8625 157.68488 618.39374 158.263Q618.925 158.84113 618.925 159.9505Q618.925 161.04425 618.3781 161.638Q617.84686 162.21613 617.0656 162.21613Q616.28436 162.21613 615.76874 161.638Q615.2531 161.05988 615.2531 159.888ZM617.08124 158.40363Q616.6906 158.40363 616.425 158.74738Q616.175 159.09113 616.175 159.99738Q616.175 160.8255 616.425 161.16925Q616.6906 161.49738 617.08124 161.49738Q617.4875 161.49738 617.7375 161.15363Q618.0031 160.80988 618.0031 159.91925Q618.0031 159.0755 617.7375 158.74738Q617.47186 158.40363 617.08124 158.40363ZM617.08124 166.73175L621.78436 157.68488L622.64374 157.68488L617.95624 166.73175L617.08124 166.73175ZM620.8 164.40363Q620.8 163.48175 621.2531 162.84113Q621.72186 162.2005 622.6125 162.2005Q623.425 162.2005 623.95624 162.77863Q624.4875 163.34113 624.4875 164.46613Q624.4875 165.55988 623.9406 166.15363Q623.40936 166.73175 622.6125 166.73175Q621.84686 166.73175 621.3156 166.15363Q620.8 165.5755 620.8 164.40363ZM622.64374 162.91925Q622.2375 162.91925 621.97186 163.263Q621.72186 163.60675 621.72186 164.513Q621.72186 165.3255 621.9875 165.66925Q622.2531 166.013 622.64374 166.013Q623.03436 166.013 623.3 165.66925Q623.5656 165.3255 623.5656 164.41925Q623.5656 163.59113 623.3 163.263Q623.03436 162.91925 622.64374 162.91925Z" fill-rule="nonzero"/><path stroke="#757575" stroke-width="1.0" stroke-linecap="butt" d="M625.55 153.91925L475.9 153.91925L451.8097 153.91925" fill-rule="nonzero"/><path fill="#9e9e9e" d="M453.8097 153.91925C453.8097 152.81468 452.91428 151.91925 451.8097 151.91925C450.70514 151.91925 449.8097 152.81468 449.8097 153.91925C449.8097 155.02382 450.70514 155.91925 451.8097 155.91925C452.91428 155.91925 453.8097 155.02382 453.8097 153.91925" fill-rule="nonzero"/><path fill="#757575" d="M19.996876 37.45L19.996876 23.1375L25.3875 23.1375Q26.825 23.1375 27.575 23.2625Q28.621876 23.45 29.340626 23.95Q30.059376 24.434376 30.48125 25.325Q30.91875 26.215626 30.91875 27.278126Q30.91875 29.10625 29.746876 30.371876Q28.590626 31.621876 25.559376 31.621876L21.8875 31.621876L21.8875 37.45L19.996876 37.45ZM21.8875 29.934376L25.590626 29.934376Q27.41875 29.934376 28.184376 29.2625Q28.965626 28.575 28.965626 27.325Q28.965626 26.434376 28.5125 25.79375Q28.059376 25.153126 27.325 24.95Q26.840626 24.825 25.54375 24.825L21.8875 24.825L21.8875 29.934376ZM39.54375 36.16875Q38.559376 36.996876 37.653126 37.340626Q36.746876 37.684376 35.715626 37.684376Q34.0125 37.684376 33.090626 36.85625Q32.16875 36.0125 32.16875 34.715626Q32.16875 33.95 32.5125 33.325Q32.871876 32.7 33.434376 32.325Q33.996876 31.934376 34.7 31.73125Q35.215626 31.60625 36.2625 31.465626Q38.3875 31.215626 39.3875 30.871876Q39.403126 30.5125 39.403126 30.403126Q39.403126 29.340626 38.903126 28.8875Q38.23125 28.29375 36.903126 28.29375Q35.653126 28.29375 35.059376 28.73125Q34.48125 29.16875 34.2 30.278126L32.48125 30.04375Q32.715626 28.934376 33.246876 28.2625Q33.778126 27.575 34.79375 27.215626Q35.809376 26.840626 37.153126 26.840626Q38.48125 26.840626 39.309376 27.153126Q40.1375 27.465626 40.528126 27.95Q40.91875 28.41875 41.075 29.1375Q41.16875 29.590626 41.16875 30.7625L41.16875 33.10625Q41.16875 35.559376 41.278126 36.215626Q41.3875 36.85625 41.73125 37.45L39.8875 37.45Q39.621876 36.903126 39.54375 36.16875ZM39.3875 32.246876Q38.434376 32.6375 36.5125 32.903126Q35.434376 33.059376 34.98125 33.2625Q34.54375 33.45 34.29375 33.825Q34.04375 34.2 34.04375 34.66875Q34.04375 35.371876 34.575 35.840626Q35.10625 36.309376 36.1375 36.309376Q37.153126 36.309376 37.934376 35.871876Q38.73125 35.41875 39.10625 34.653126Q39.3875 34.04375 39.3875 32.8875L39.3875 32.246876ZM43.746876 37.45L43.746876 27.075L45.325 27.075L45.325 28.653126Q45.934376 27.54375 46.45 27.2Q46.965626 26.840626 47.575 26.840626Q48.465626 26.840626 49.3875 27.403126L48.778126 29.04375Q48.1375 28.653126 47.496876 28.653126Q46.91875 28.653126 46.45 29.0125Q45.996876 29.35625 45.79375 29.965626Q45.5125 30.903126 45.5125 32.0125L45.5125 37.45L43.746876 37.45ZM50.7625 37.45L50.7625 27.075L52.340626 27.075L52.340626 28.528126Q52.825 27.778126 53.6375 27.309376Q54.45 26.840626 55.48125 26.840626Q56.6375 26.840626 57.371876 27.325Q58.10625 27.79375 58.41875 28.653126Q59.653126 26.840626 61.621876 26.840626Q63.16875 26.840626 63.996876 27.7Q64.825 28.559376 64.825 30.325L64.825 37.45L63.075 37.45L63.075 30.91875Q63.075 29.85625 62.903126 29.403126Q62.73125 28.934376 62.278126 28.653126Q61.840626 28.371876 61.23125 28.371876Q60.1375 28.371876 59.403126 29.10625Q58.684376 29.825 58.684376 31.41875L58.684376 37.45L56.934376 37.45L56.934376 30.715626Q56.934376 29.54375 56.496876 28.965626Q56.075 28.371876 55.090626 28.371876Q54.35625 28.371876 53.715626 28.7625Q53.090626 29.153126 52.809376 29.903126Q52.528126 30.653126 52.528126 32.075L52.528126 37.45L50.7625 37.45ZM66.77812 25.153126L66.77812 23.1375L68.54375 23.1375L68.54375 25.153126L66.77812 25.153126ZM66.77812 37.45L66.77812 27.075L68.54375 27.075L68.54375 37.45L66.77812 37.45ZM76.73125 37.45L76.73125 23.1375L78.48125 23.1375L78.48125 37.45L76.73125 37.45ZM87.87187 34.10625L89.68437 34.340626Q89.2625 35.91875 88.09062 36.809376Q86.93437 37.684376 85.12187 37.684376Q82.85625 37.684376 81.5125 36.29375Q80.18437 34.8875 80.18437 32.35625Q80.18437 29.73125 81.52812 28.29375Q82.87187 26.840626 85.02812 26.840626Q87.10625 26.840626 88.41875 28.2625Q89.74687 29.66875 89.74687 32.246876Q89.74687 32.403126 89.73125 32.715626L81.99687 32.715626Q82.09062 34.41875 82.96562 35.325Q83.84062 36.23125 85.1375 36.23125Q86.10625 36.23125 86.77812 35.73125Q87.46562 35.215626 87.87187 34.10625ZM82.09062 31.2625L87.8875 31.2625Q87.77812 29.965626 87.23125 29.309376Q86.3875 28.29375 85.04375 28.29375Q83.84062 28.29375 83.0125 29.10625Q82.18437 29.903126 82.09062 31.2625ZM91.05937 34.35625L92.80937 34.075Q92.95 35.121876 93.62187 35.684376Q94.29375 36.23125 95.49687 36.23125Q96.7 36.23125 97.27812 35.746876Q97.87187 35.246876 97.87187 34.590626Q97.87187 33.996876 97.35625 33.653126Q96.99687 33.41875 95.55937 33.059376Q93.62187 32.559376 92.87187 32.215626Q92.1375 31.85625 91.74687 31.23125Q91.35625 30.590626 91.35625 29.825Q91.35625 29.1375 91.66875 28.54375Q91.99687 27.95 92.54375 27.559376Q92.95 27.2625 93.65312 27.059376Q94.37187 26.840626 95.18437 26.840626Q96.40312 26.840626 97.325 27.2Q98.24687 27.54375 98.68437 28.153126Q99.12187 28.746876 99.29375 29.746876L97.575 29.98125Q97.45 29.184376 96.8875 28.746876Q96.325 28.29375 95.30937 28.29375Q94.09062 28.29375 93.575 28.7Q93.05937 29.090626 93.05937 29.621876Q93.05937 29.965626 93.27812 30.246876Q93.48125 30.528126 93.95 30.715626Q94.21562 30.809376 95.49687 31.153126Q97.37187 31.653126 98.10625 31.98125Q98.84062 32.29375 99.2625 32.903126Q99.68437 33.496876 99.68437 34.403126Q99.68437 35.278126 99.16875 36.059376Q98.65312 36.840626 97.68437 37.2625Q96.71562 37.684376 95.49687 37.684376Q93.48125 37.684376 92.41875 36.840626Q91.35625 35.996876 91.05937 34.35625ZM116.5125 35.7625L116.5125 37.45L107.05937 37.45Q107.04375 36.809376 107.2625 36.23125Q107.62187 35.2625 108.41875 34.325Q109.21562 33.3875 110.71562 32.153126Q113.05937 30.246876 113.87187 29.1375Q114.7 28.0125 114.7 27.0125Q114.7 25.965626 113.95 25.246876Q113.2 24.528126 111.99687 24.528126Q110.73125 24.528126 109.96562 25.29375Q109.2 26.059376 109.2 27.403126L107.3875 27.215626Q107.575 25.2 108.77812 24.1375Q109.99687 23.075 112.04375 23.075Q114.09062 23.075 115.29375 24.215626Q116.49687 25.35625 116.49687 27.04375Q116.49687 27.903126 116.1375 28.746876Q115.79375 29.575 114.98125 30.496876Q114.16875 31.403126 112.27812 33.0125Q110.68437 34.340626 110.23125 34.809376Q109.79375 35.278126 109.49687 35.7625L116.5125 35.7625ZM123.91875 37.45L123.91875 34.028126L117.7 34.028126L117.7 32.403126L124.23125 23.1375L125.66875 23.1375L125.66875 32.403126L127.60625 32.403126L127.60625 34.028126L125.66875 34.028126L125.66875 37.45L123.91875 37.45ZM123.91875 32.403126L123.91875 25.95L119.43437 32.403126L123.91875 32.403126ZM135.7625 37.45L135.7625 23.1375L137.52812 23.1375L137.52812 28.2625Q138.7625 26.840626 140.6375 26.840626Q141.77812 26.840626 142.62187 27.29375Q143.48125 27.746876 143.84062 28.559376Q144.21562 29.35625 144.21562 30.871876L144.21562 37.45L142.46562 37.45L142.46562 30.871876Q142.46562 29.559376 141.8875 28.965626Q141.30937 28.35625 140.27812 28.35625Q139.49687 28.35625 138.79375 28.7625Q138.10625 29.16875 137.80937 29.871876Q137.52812 30.559376 137.52812 31.778126L137.52812 37.45L135.7625 37.45ZM152.54375 36.16875Q151.55937 36.996876 150.65312 37.340626Q149.74687 37.684376 148.71562 37.684376Q147.0125 37.684376 146.09062 36.85625Q145.16875 36.0125 145.16875 34.715626Q145.16875 33.95 145.5125 33.325Q145.87187 32.7 146.43437 32.325Q146.99687 31.934376 147.7 31.73125Q148.21562 31.60625 149.2625 31.465626Q151.3875 31.215626 152.3875 30.871876Q152.40312 30.5125 152.40312 30.403126Q152.40312 29.340626 151.90312 28.8875Q151.23125 28.29375 149.90312 28.29375Q148.65312 28.29375 148.05937 28.73125Q147.48125 29.16875 147.2 30.278126L145.48125 30.04375Q145.71562 28.934376 146.24687 28.2625Q146.77812 27.575 147.79375 27.215626Q148.80937 26.840626 150.15312 26.840626Q151.48125 26.840626 152.30937 27.153126Q153.1375 27.465626 153.52812 27.95Q153.91875 28.41875 154.075 29.1375Q154.16875 29.590626 154.16875 30.7625L154.16875 33.10625Q154.16875 35.559376 154.27812 36.215626Q154.3875 36.85625 154.73125 37.45L152.8875 37.45Q152.62187 36.903126 152.54375 36.16875ZM152.3875 32.246876Q151.43437 32.6375 149.5125 32.903126Q148.43437 33.059376 147.98125 33.2625Q147.54375 33.45 147.29375 33.825Q147.04375 34.2 147.04375 34.66875Q147.04375 35.371876 147.575 35.840626Q148.10625 36.309376 149.1375 36.309376Q150.15312 36.309376 150.93437 35.871876Q151.73125 35.41875 152.10625 34.653126Q152.3875 34.04375 152.3875 32.8875L152.3875 32.246876ZM158.3875 37.45L156.7625 37.45L156.7625 23.1375L158.5125 23.1375L158.5125 28.246876Q159.6375 26.840626 161.35625 26.840626Q162.30937 26.840626 163.16875 27.23125Q164.02812 27.621876 164.575 28.325Q165.12187 29.0125 165.43437 29.996876Q165.74687 30.98125 165.74687 32.10625Q165.74687 34.778126 164.43437 36.23125Q163.12187 37.684376 161.27812 37.684376Q159.43437 37.684376 158.3875 36.153126L158.3875 37.45ZM158.37187 32.184376Q158.37187 34.04375 158.87187 34.8875Q159.71562 36.23125 161.12187 36.23125Q162.27812 36.23125 163.10625 35.23125Q163.95 34.23125 163.95 32.246876Q163.95 30.215626 163.1375 29.2625Q162.34062 28.29375 161.2 28.29375Q160.04375 28.29375 159.2 29.29375Q158.37187 30.29375 158.37187 32.184376ZM167.77812 25.153126L167.77812 23.1375L169.54375 23.1375L169.54375 25.153126L167.77812 25.153126ZM167.77812 37.45L167.77812 27.075L169.54375 27.075L169.54375 37.45L167.77812 37.45ZM175.60625 35.871876L175.85625 37.434376Q175.12187 37.590626 174.52812 37.590626Q173.575 37.590626 173.04375 37.29375Q172.52812 36.98125 172.30937 36.496876Q172.09062 35.996876 172.09062 34.41875L172.09062 28.45L170.80937 28.45L170.80937 27.075L172.09062 27.075L172.09062 24.5125L173.84062 23.45L173.84062 27.075L175.60625 27.075L175.60625 28.45L173.84062 28.45L173.84062 34.5125Q173.84062 35.2625 173.93437 35.48125Q174.02812 35.684376 174.23125 35.825Q174.45 35.95 174.84062 35.95Q175.12187 35.95 175.60625 35.871876ZM184.54375 36.16875Q183.55937 36.996876 182.65312 37.340626Q181.74687 37.684376 180.71562 37.684376Q179.0125 37.684376 178.09062 36.85625Q177.16875 36.0125 177.16875 34.715626Q177.16875 33.95 177.5125 33.325Q177.87187 32.7 178.43437 32.325Q178.99687 31.934376 179.7 31.73125Q180.21562 31.60625 181.2625 31.465626Q183.3875 31.215626 184.3875 30.871876Q184.40312 30.5125 184.40312 30.403126Q184.40312 29.340626 183.90312 28.8875Q183.23125 28.29375 181.90312 28.29375Q180.65312 28.29375 180.05937 28.73125Q179.48125 29.16875 179.2 30.278126L177.48125 30.04375Q177.71562 28.934376 178.24687 28.2625Q178.77812 27.575 179.79375 27.215626Q180.80937 26.840626 182.15312 26.840626Q183.48125 26.840626 184.30937 27.153126Q185.1375 27.465626 185.52812 27.95Q185.91875 28.41875 186.075 29.1375Q186.16875 29.590626 186.16875 30.7625L186.16875 33.10625Q186.16875 35.559376 186.27812 36.215626Q186.3875 36.85625 186.73125 37.45L184.8875 37.45Q184.62187 36.903126 184.54375 36.16875ZM184.3875 32.246876Q183.43437 32.6375 181.5125 32.903126Q180.43437 33.059376 179.98125 33.2625Q179.54375 33.45 179.29375 33.825Q179.04375 34.2 179.04375 34.66875Q179.04375 35.371876 179.575 35.840626Q180.10625 36.309376 181.1375 36.309376Q182.15312 36.309376 182.93437 35.871876Q183.73125 35.41875 184.10625 34.653126Q184.3875 34.04375 184.3875 32.8875L184.3875 32.246876ZM192.60625 35.871876L192.85625 37.434376Q192.12187 37.590626 191.52812 37.590626Q190.575 37.590626 190.04375 37.29375Q189.52812 36.98125 189.30937 36.496876Q189.09062 35.996876 189.09062 34.41875L189.09062 28.45L187.80937 28.45L187.80937 27.075L189.09062 27.075L189.09062 24.5125L190.84062 23.45L190.84062 27.075L192.60625 27.075L192.60625 28.45L190.84062 28.45L190.84062 34.5125Q190.84062 35.2625 190.93437 35.48125Q191.02812 35.684376 191.23125 35.825Q191.45 35.95 191.84062 35.95Q192.12187 35.95 192.60625 35.871876ZM194.77812 25.153126L194.77812 23.1375L196.54375 23.1375L196.54375 25.153126L194.77812 25.153126ZM194.77812 37.45L194.77812 27.075L196.54375 27.075L196.54375 37.45L194.77812 37.45ZM198.12187 32.2625Q198.12187 29.3875 199.71562 27.996876Q201.05937 26.840626 202.98125 26.840626Q205.12187 26.840626 206.46562 28.246876Q207.825 29.653126 207.825 32.121876Q207.825 34.121876 207.23125 35.278126Q206.6375 36.41875 205.48125 37.059376Q204.34062 37.684376 202.98125 37.684376Q200.79375 37.684376 199.45 36.29375Q198.12187 34.8875 198.12187 32.2625ZM199.91875 32.2625Q199.91875 34.2625 200.77812 35.246876Q201.65312 36.23125 202.98125 36.23125Q204.29375 36.23125 205.15312 35.246876Q206.02812 34.246876 206.02812 32.2Q206.02812 30.278126 205.15312 29.29375Q204.27812 28.29375 202.98125 28.29375Q201.65312 28.29375 200.77812 29.29375Q199.91875 30.278126 199.91875 32.2625ZM209.7625 37.45L209.7625 27.075L211.35625 27.075L211.35625 28.559376Q212.49687 26.840626 214.65312 26.840626Q215.59062 26.840626 216.37187 27.184376Q217.16875 27.5125 217.55937 28.059376Q217.95 28.60625 218.10625 29.35625Q218.2 29.85625 218.2 31.075L218.2 37.45L216.43437 37.45L216.43437 31.1375Q216.43437 30.059376 216.23125 29.528126Q216.02812 28.996876 215.49687 28.684376Q214.98125 28.371876 214.27812 28.371876Q213.15312 28.371876 212.34062 29.090626Q211.52812 29.79375 211.52812 31.778126L211.52812 37.45L209.7625 37.45ZM219.05937 34.35625L220.80937 34.075Q220.95 35.121876 221.62187 35.684376Q222.29375 36.23125 223.49687 36.23125Q224.7 36.23125 225.27812 35.746876Q225.87187 35.246876 225.87187 34.590626Q225.87187 33.996876 225.35625 33.653126Q224.99687 33.41875 223.55937 33.059376Q221.62187 32.559376 220.87187 32.215626Q220.1375 31.85625 219.74687 31.23125Q219.35625 30.590626 219.35625 29.825Q219.35625 29.1375 219.66875 28.54375Q219.99687 27.95 220.54375 27.559376Q220.95 27.2625 221.65312 27.059376Q222.37187 26.840626 223.18437 26.840626Q224.40312 26.840626 225.325 27.2Q226.24687 27.54375 226.68437 28.153126Q227.12187 28.746876 227.29375 29.746876L225.575 29.98125Q225.45 29.184376 224.8875 28.746876Q224.325 28.29375 223.30937 28.29375Q222.09062 28.29375 221.575 28.7Q221.05937 29.090626 221.05937 29.621876Q221.05937 29.965626 221.27812 30.246876Q221.48125 30.528126 221.95 30.715626Q222.21562 30.809376 223.49687 31.153126Q225.37187 31.653126 226.10625 31.98125Q226.84062 32.29375 227.2625 32.903126Q227.68437 33.496876 227.68437 34.403126Q227.68437 35.278126 227.16875 36.059376Q226.65312 36.840626 225.68437 37.2625Q224.71562 37.684376 223.49687 37.684376Q221.48125 37.684376 220.41875 36.840626Q219.35625 35.996876 219.05937 34.35625Z" fill-rule="nonzero"/></svg>