<svg version="1.1" viewBox="0.0 0.0 539.0 369.0" fill="none" stroke="none" stroke-linecap="square" stroke-miterlimit="10" width="539" height="369" xmlns:xlink="http://www.w3.org/1999/xlink" xmlns="http://www.w3.org/2000/svg"><path fill="#ffffff" d="M0 0L539.0 0L539.0 369.0L0 369.0L0 0Z" fill-rule="nonzero"/><path fill="#2e5dab" d="M417.4 213.7425C417.4 270.92053 351.18292 317.2725 269.5 317.2725L269.5 295.0875C351.18292 295.0875 417.4 248.73553 417.4 191.5575Z" fill-rule="nonzero"/><path fill="#2e5dab" d="M269.5 139.7925C310.34146 139.7925 343.45 162.96848 343.45 191.5575L343.45 213.7425C343.45 185.15347 310.34146 161.9775 269.5 161.9775Z" fill-rule="nonzero"/><path fill="#4285f4" d="M269.5 88.0275C351.18292 88.0275 417.4 134.37946 417.4 191.5575C417.4 248.73553 351.18292 295.0875 269.5 295.0875L269.5 243.3225C310.34146 243.3225 343.45 220.14651 343.45 191.5575C343.45 162.96848 310.34146 139.7925 269.5 139.7925Z" fill-rule="nonzero"/><path fill="#b34c01" d="M198.06978 178.15973C206.73251 155.52893 236.02982 139.7925 269.5 139.7925L269.5 161.9775C236.02982 161.9775 206.73251 177.71393 198.06978 200.34473Z" fill-rule="nonzero"/><path fill="#ff6d01" d="M126.63957 164.76196C143.96501 119.50036 202.55962 88.0275 269.5 88.0275L269.5 139.7925C236.02982 139.7925 206.73251 155.52893 198.06978 178.15973Z" fill-rule="nonzero"/><path fill="#24763a" d="M126.63957 240.53804C123.29429 231.7987 121.6 222.79012 121.6 213.7425L121.6 191.5575C121.6 200.60512 123.29429 209.61371 126.63957 218.35304Z" fill-rule="nonzero"/><path fill="#24763a" d="M195.55 191.5575C195.55 187.03369 196.39714 182.5294 198.06978 178.15973L198.06978 200.34473C196.39714 204.7144 195.55 209.21869 195.55 213.7425Z" fill-rule="nonzero"/><path fill="#34a853" d="M126.63957 218.35304C119.92014 200.79897 119.92014 182.31604 126.63957 164.76196L198.06978 178.15973C194.71007 186.93677 194.71007 196.17824 198.06978 204.95526Z" fill-rule="nonzero"/><path fill="#b08403" d="M195.55 303.4021C161.5797 289.6732 136.79189 267.0603 126.63957 240.53804L126.63957 218.35304C136.79189 244.87529 161.5797 267.4882 195.55 281.2171Z" fill-rule="nonzero"/><path fill="#fbbc04" d="M195.55 281.2171C161.5797 267.4882 136.79189 244.87529 126.63957 218.35304L198.06978 204.95526C203.14594 218.2164 215.53986 229.52284 232.525 236.3873Z" fill-rule="nonzero"/><path fill="#6f8aa2" d="M269.5 317.2725C243.53813 317.2725 218.03365 312.48877 195.55 303.4021L195.55 281.2171C218.03365 290.30377 243.53813 295.0875 269.5 295.0875Z" fill-rule="nonzero"/><path fill="#9fc5e8" d="M269.5 295.0875C243.53813 295.0875 218.03365 290.30377 195.55 281.2171L232.525 236.3873C243.76682 240.93063 256.51907 243.3225 269.5 243.3225Z" fill-rule="nonzero"/><path fill="#000000" d="M388.20087 196.5575L386.9665 196.5575L386.9665 188.71375Q386.529 189.13562 385.79462 189.57312Q385.07587 189.995 384.51337 190.19812L384.51337 189.01062Q385.54462 188.52625 386.31024 187.83875Q387.0915 187.15125 387.404 186.495L388.20087 186.495L388.20087 196.5575ZM398.029 195.37L398.029 196.5575L391.404 196.5575Q391.38837 196.12 391.54462 195.69812Q391.81024 195.02625 392.35712 194.37Q392.91962 193.71375 393.9665 192.85437Q395.60712 191.51062 396.16962 190.72937Q396.74774 189.94812 396.74774 189.245Q396.74774 188.51062 396.2165 188.01062Q395.70087 187.51062 394.87274 187.51062Q393.98212 187.51062 393.43524 188.04187Q392.904 188.57312 392.904 189.52625L391.63837 189.38562Q391.76337 187.97937 392.60712 187.245Q393.4665 186.495 394.88837 186.495Q396.3415 186.495 397.16962 187.29187Q398.01337 188.08875 398.01337 189.27625Q398.01337 189.88562 397.76337 190.46375Q397.529 191.04187 396.95087 191.6825Q396.38837 192.32312 395.06024 193.44812Q393.95087 194.37 393.63837 194.71375Q393.32587 195.04187 393.12274 195.37L398.029 195.37Z" fill-rule="nonzero"/><path fill="#000000" d="M243.74832 270.60434L243.74832 271.79184L237.12332 271.79184Q237.1077 271.35434 237.26395 270.93246Q237.52957 270.2606 238.07645 269.60434Q238.63895 268.9481 239.68582 268.0887Q241.32645 266.74496 241.88895 265.9637Q242.46707 265.18246 242.46707 264.47934Q242.46707 263.74496 241.93582 263.24496Q241.4202 262.74496 240.59207 262.74496Q239.70145 262.74496 239.15457 263.2762Q238.62332 263.80746 238.62332 264.7606L237.3577 264.61996Q237.4827 263.2137 238.32645 262.47934Q239.18582 261.72934 240.6077 261.72934Q242.06082 261.72934 242.88895 262.5262Q243.7327 263.3231 243.7327 264.5106Q243.7327 265.11996 243.4827 265.6981Q243.24832 266.2762 242.6702 266.91684Q242.1077 267.55746 240.77957 268.68246Q239.6702 269.60434 239.3577 269.9481Q239.0452 270.2762 238.84207 270.60434L243.74832 270.60434Z" fill-rule="nonzero"/><path fill="#000000" d="M176.86404 241.84473L178.0828 241.67285Q178.30154 242.71973 178.80154 243.18848Q179.31717 243.6416 180.05154 243.6416Q180.92654 243.6416 181.5203 243.04785Q182.11404 242.43848 182.11404 241.54785Q182.11404 240.7041 181.55154 240.15723Q181.00467 239.61035 180.16092 239.61035Q179.80154 239.61035 179.28592 239.73535L179.42654 238.65723Q179.55154 238.67285 179.61404 238.67285Q180.41092 238.67285 181.03592 238.2666Q181.66092 237.86035 181.66092 237.00098Q181.66092 236.3291 181.2078 235.8916Q180.75467 235.43848 180.0203 235.43848Q179.30154 235.43848 178.81717 235.8916Q178.34842 236.3291 178.2078 237.23535L176.98904 237.0166Q177.2078 235.78223 178.00467 235.11035Q178.80154 234.42285 179.98904 234.42285Q180.81717 234.42285 181.50467 234.78223Q182.19217 235.12598 182.55154 235.73535Q182.92654 236.34473 182.92654 237.03223Q182.92654 237.67285 182.5828 238.2041Q182.23904 238.73535 181.55154 239.06348Q182.44217 239.2666 182.92654 239.90723Q183.42654 240.54785 183.42654 241.53223Q183.42654 242.84473 182.4578 243.75098Q181.50467 244.65723 180.05154 244.65723Q178.72342 244.65723 177.84842 243.87598Q176.98904 243.09473 176.86404 241.84473Z" fill-rule="nonzero"/><path fill="#000000" d="M147.06476 195.37L147.06476 196.5575L140.43976 196.5575Q140.42413 196.12 140.58038 195.69812Q140.84601 195.02625 141.39288 194.37Q141.95538 193.71375 143.00226 192.85437Q144.64288 191.51062 145.20538 190.72937Q145.78351 189.94812 145.78351 189.245Q145.78351 188.51062 145.25226 188.01062Q144.73663 187.51062 143.90851 187.51062Q143.01788 187.51062 142.47101 188.04187Q141.93976 188.57312 141.93976 189.52625L140.67413 189.38562Q140.79913 187.97937 141.64288 187.245Q142.50226 186.495 143.92413 186.495Q145.37726 186.495 146.20538 187.29187Q147.04913 188.08875 147.04913 189.27625Q147.04913 189.88562 146.79913 190.46375Q146.56476 191.04187 145.98663 191.6825Q145.42413 192.32312 144.09601 193.44812Q142.98663 194.37 142.67413 194.71375Q142.36163 195.04187 142.15851 195.37L147.06476 195.37Z" fill-rule="nonzero"/><path fill="#000000" d="M198.55127 132.3306L199.84814 132.22122Q199.98877 133.15872 200.5044 133.6431Q201.03564 134.11185 201.77002 134.11185Q202.66064 134.11185 203.27002 133.43997Q203.89502 132.7681 203.89502 131.67435Q203.89502 130.61185 203.30127 130.00247Q202.70752 129.3931 201.7544 129.3931Q201.16064 129.3931 200.67627 129.67435Q200.20752 129.93997 199.92627 130.36185L198.77002 130.22122L199.73877 125.06497L204.72314 125.06497L204.72314 126.25247L200.72314 126.25247L200.1919 128.93997Q201.09814 128.31497 202.08252 128.31497Q203.39502 128.31497 204.28564 129.22122Q205.1919 130.12747 205.1919 131.56497Q205.1919 132.92435 204.41064 133.90872Q203.4419 135.12747 201.77002 135.12747Q200.41064 135.12747 199.53564 134.36185Q198.67627 133.59622 198.55127 132.3306Z" fill-rule="nonzero"/><path fill="#1a1a1a" d="M19.246876 109.02842L19.246876 102.80967L20.184376 102.80967L20.184376 103.68467Q20.48125 103.21592 20.965626 102.950294Q21.45 102.669044 22.075 102.669044Q22.7625 102.669044 23.2 102.950294Q23.653126 103.231544 23.825 103.74717Q24.575 102.669044 25.746876 102.669044Q26.684376 102.669044 27.16875 103.18467Q27.66875 103.68467 27.66875 104.762794L27.66875 109.02842L26.621876 109.02842L26.621876 105.106544Q26.621876 104.481544 26.5125 104.200294Q26.41875 103.919044 26.153126 103.74717Q25.8875 103.575294 25.5125 103.575294Q24.85625 103.575294 24.41875 104.012794Q23.996876 104.450294 23.996876 105.419044L23.996876 109.02842L22.934376 109.02842L22.934376 104.981544Q22.934376 104.27842 22.66875 103.93467Q22.41875 103.575294 21.840626 103.575294Q21.3875 103.575294 21.0125 103.80967Q20.6375 104.044044 20.465626 104.49717Q20.29375 104.950294 20.29375 105.794044L20.29375 109.02842L19.246876 109.02842ZM29.85625 105.919044Q29.85625 104.18467 30.809376 103.356544Q31.60625 102.669044 32.7625 102.669044Q34.04375 102.669044 34.85625 103.512794Q35.684376 104.34092 35.684376 105.825294Q35.684376 107.02842 35.325 107.71592Q34.965626 108.40342 34.2625 108.794044Q33.575 109.169044 32.7625 109.169044Q31.465626 109.169044 30.653126 108.34092Q29.85625 107.49717 29.85625 105.919044ZM30.934376 105.919044Q30.934376 107.106544 31.45 107.700294Q31.98125 108.294044 32.7625 108.294044Q33.559376 108.294044 34.075 107.700294Q34.590626 107.106544 34.590626 105.887794Q34.590626 104.731544 34.059376 104.137794Q33.54375 103.544044 32.7625 103.544044Q31.98125 103.544044 31.45 104.137794Q30.934376 104.71592 30.934376 105.919044ZM37.246876 101.65342L37.246876 100.43467L38.309376 100.43467L38.309376 101.65342L37.246876 101.65342ZM37.246876 109.02842L37.246876 102.80967L38.309376 102.80967L38.309376 109.02842L37.246876 109.02842ZM40.246876 109.02842L40.246876 102.80967L41.184376 102.80967L41.184376 103.68467Q41.871876 102.669044 43.16875 102.669044Q43.73125 102.669044 44.2 102.87217Q44.684376 103.075294 44.91875 103.40342Q45.153126 103.731544 45.246876 104.169044Q45.29375 104.46592 45.29375 105.200294L45.29375 109.02842L44.246876 109.02842L44.246876 105.24717Q44.246876 104.59092 44.121876 104.27842Q43.996876 103.96592 43.684376 103.77842Q43.371876 103.575294 42.95 103.575294Q42.278126 103.575294 41.778126 104.012794Q41.29375 104.43467 41.29375 105.62217L41.29375 109.02842L40.246876 109.02842ZM46.825 107.169044L47.85625 107.012794Q47.95 107.637794 48.340626 107.96592Q48.746876 108.294044 49.48125 108.294044Q50.2 108.294044 50.54375 108.012794Q50.903126 107.71592 50.903126 107.30967Q50.903126 106.950294 50.590626 106.74717Q50.371876 106.606544 49.5125 106.387794Q48.35625 106.09092 47.903126 105.887794Q47.465626 105.669044 47.23125 105.294044Q46.996876 104.919044 46.996876 104.450294Q46.996876 104.044044 47.184376 103.68467Q47.371876 103.325294 47.7 103.09092Q47.95 102.919044 48.371876 102.794044Q48.79375 102.669044 49.29375 102.669044Q50.0125 102.669044 50.559376 102.887794Q51.121876 103.09092 51.3875 103.450294Q51.653126 103.80967 51.746876 104.40342L50.715626 104.544044Q50.653126 104.075294 50.309376 103.80967Q49.98125 103.52842 49.35625 103.52842Q48.6375 103.52842 48.325 103.77842Q48.0125 104.012794 48.0125 104.34092Q48.0125 104.544044 48.1375 104.700294Q48.278126 104.87217 48.54375 104.981544Q48.7 105.044044 49.48125 105.24717Q50.60625 105.55967 51.04375 105.74717Q51.48125 105.93467 51.73125 106.294044Q51.98125 106.65342 51.98125 107.200294Q51.98125 107.731544 51.66875 108.200294Q51.371876 108.65342 50.79375 108.919044Q50.215626 109.169044 49.48125 109.169044Q48.2625 109.169044 47.621876 108.669044Q46.996876 108.15342 46.825 107.169044ZM61.278126 109.02842L61.278126 108.24717Q60.684376 109.169044 59.54375 109.169044Q58.79375 109.169044 58.16875 108.762794Q57.54375 108.34092 57.2 107.606544Q56.85625 106.87217 56.85625 105.919044Q56.85625 104.99717 57.16875 104.231544Q57.48125 103.46592 58.10625 103.075294Q58.73125 102.669044 59.496876 102.669044Q60.059376 102.669044 60.496876 102.90342Q60.934376 103.137794 61.215626 103.512794L61.215626 100.43467L62.2625 100.43467L62.2625 109.02842L61.278126 109.02842ZM57.95 105.919044Q57.95 107.12217 58.45 107.71592Q58.95 108.294044 59.6375 108.294044Q60.325 108.294044 60.809376 107.731544Q61.29375 107.169044 61.29375 106.012794Q61.29375 104.731544 60.79375 104.137794Q60.309376 103.544044 59.590626 103.544044Q58.8875 103.544044 58.41875 104.12217Q57.95 104.68467 57.95 105.919044ZM68.49687 107.02842L69.59062 107.15342Q69.34062 108.106544 68.6375 108.637794Q67.93437 109.169044 66.85625 109.169044Q65.49687 109.169044 64.68437 108.325294Q63.8875 107.481544 63.8875 105.96592Q63.8875 104.40342 64.7 103.544044Q65.5125 102.669044 66.79375 102.669044Q68.04375 102.669044 68.825 103.512794Q69.62187 104.356544 69.62187 105.90342Q69.62187 105.99717 69.62187 106.18467L64.98125 106.18467Q65.04375 107.21592 65.55937 107.762794Q66.075 108.294044 66.85625 108.294044Q67.43437 108.294044 67.84062 107.99717Q68.2625 107.68467 68.49687 107.02842ZM65.04375 105.325294L68.5125 105.325294Q68.45 104.52842 68.12187 104.137794Q67.60625 103.52842 66.80937 103.52842Q66.075 103.52842 65.575 104.012794Q65.09062 104.49717 65.04375 105.325294ZM73.95 106.77842L75.05937 106.68467Q75.18437 107.49717 75.62187 107.90342Q76.075 108.30967 76.71562 108.30967Q77.46562 108.30967 77.99687 107.731544Q78.52812 107.15342 78.52812 106.21592Q78.52812 105.30967 78.0125 104.794044Q77.5125 104.262794 76.68437 104.262794Q76.18437 104.262794 75.7625 104.49717Q75.35625 104.731544 75.12187 105.09092L74.1375 104.96592L74.96562 100.55967L79.24687 100.55967L79.24687 101.55967L75.80937 101.55967L75.35625 103.87217Q76.12187 103.325294 76.96562 103.325294Q78.09062 103.325294 78.85625 104.106544Q79.6375 104.887794 79.6375 106.12217Q79.6375 107.27842 78.96562 108.137794Q78.1375 109.169044 76.71562 109.169044Q75.54375 109.169044 74.79375 108.512794Q74.05937 107.856544 73.95 106.77842ZM88.30937 108.262794Q87.71562 108.762794 87.16875 108.96592Q86.6375 109.169044 86.0125 109.169044Q84.98125 109.169044 84.43437 108.669044Q83.8875 108.169044 83.8875 107.387794Q83.8875 106.93467 84.09062 106.55967Q84.29375 106.169044 84.6375 105.950294Q84.98125 105.71592 85.40312 105.606544Q85.7 105.512794 86.34062 105.43467Q87.60625 105.294044 88.21562 105.075294Q88.21562 104.856544 88.21562 104.80967Q88.21562 104.15342 87.91875 103.887794Q87.5125 103.544044 86.71562 103.544044Q85.98125 103.544044 85.62187 103.80967Q85.2625 104.05967 85.09062 104.71592L84.05937 104.575294Q84.2 103.919044 84.52812 103.512794Q84.85625 103.106544 85.46562 102.887794Q86.075 102.669044 86.87187 102.669044Q87.66875 102.669044 88.16875 102.856544Q88.66875 103.044044 88.90312 103.325294Q89.1375 103.606544 89.23125 104.044044Q89.27812 104.30967 89.27812 105.012794L89.27812 106.419044Q89.27812 107.887794 89.34062 108.27842Q89.41875 108.669044 89.62187 109.02842L88.5125 109.02842Q88.35625 108.700294 88.30937 108.262794ZM88.21562 105.90342Q87.6375 106.137794 86.49687 106.30967Q85.84062 106.40342 85.575 106.52842Q85.30937 106.637794 85.15312 106.856544Q85.0125 107.075294 85.0125 107.356544Q85.0125 107.77842 85.325 108.05967Q85.65312 108.34092 86.2625 108.34092Q86.87187 108.34092 87.34062 108.075294Q87.825 107.80967 88.04375 107.34092Q88.21562 106.981544 88.21562 106.294044L88.21562 105.90342ZM91.24687 109.02842L91.24687 102.80967L92.18437 102.80967L92.18437 103.68467Q92.87187 102.669044 94.16875 102.669044Q94.73125 102.669044 95.2 102.87217Q95.68437 103.075294 95.91875 103.40342Q96.15312 103.731544 96.24687 104.169044Q96.29375 104.46592 96.29375 105.200294L96.29375 109.02842L95.24687 109.02842L95.24687 105.24717Q95.24687 104.59092 95.12187 104.27842Q94.99687 103.96592 94.68437 103.77842Q94.37187 103.575294 93.95 103.575294Q93.27812 103.575294 92.77812 104.012794Q92.29375 104.43467 92.29375 105.62217L92.29375 109.02842L91.24687 109.02842ZM97.825 107.169044L98.85625 107.012794Q98.95 107.637794 99.34062 107.96592Q99.74687 108.294044 100.48125 108.294044Q101.2 108.294044 101.54375 108.012794Q101.90312 107.71592 101.90312 107.30967Q101.90312 106.950294 101.59062 106.74717Q101.37187 106.606544 100.5125 106.387794Q99.35625 106.09092 98.90312 105.887794Q98.46562 105.669044 98.23125 105.294044Q97.99687 104.919044 97.99687 104.450294Q97.99687 104.044044 98.18437 103.68467Q98.37187 103.325294 98.7 103.09092Q98.95 102.919044 99.37187 102.794044Q99.79375 102.669044 100.29375 102.669044Q101.0125 102.669044 101.55937 102.887794Q102.12187 103.09092 102.3875 103.450294Q102.65312 103.80967 102.74687 104.40342L101.71562 104.544044Q101.65312 104.075294 101.30937 103.80967Q100.98125 103.52842 100.35625 103.52842Q99.6375 103.52842 99.325 103.77842Q99.0125 104.012794 99.0125 104.34092Q99.0125 104.544044 99.1375 104.700294Q99.27812 104.87217 99.54375 104.981544Q99.7 105.044044 100.48125 105.24717Q101.60625 105.55967 102.04375 105.74717Q102.48125 105.93467 102.73125 106.294044Q102.98125 106.65342 102.98125 107.200294Q102.98125 107.731544 102.66875 108.200294Q102.37187 108.65342 101.79375 108.919044Q101.21562 109.169044 100.48125 109.169044Q99.2625 109.169044 98.62187 108.669044Q97.99687 108.15342 97.825 107.169044Z" fill-rule="nonzero"/><path fill="#9e9e9e" d="M24.496876 125.012794L24.496876 126.02842L18.809376 126.02842Q18.809376 125.65342 18.934376 125.294044Q19.153126 124.71592 19.621876 124.15342Q20.10625 123.59092 21.0125 122.856544Q22.41875 121.700294 22.903126 121.02842Q23.403126 120.356544 23.403126 119.762794Q23.403126 119.137794 22.95 118.71592Q22.496876 118.27842 21.778126 118.27842Q21.0125 118.27842 20.559376 118.731544Q20.10625 119.18467 20.090626 119.99717L19.0125 119.887794Q19.121876 118.669044 19.840626 118.044044Q20.575 117.40342 21.809376 117.40342Q23.04375 117.40342 23.7625 118.09092Q24.48125 118.77842 24.48125 119.794044Q24.48125 120.30967 24.2625 120.80967Q24.059376 121.294044 23.559376 121.856544Q23.075 122.40342 21.95 123.356544Q20.996876 124.15342 20.715626 124.450294Q20.45 124.731544 20.278126 125.012794L24.496876 125.012794ZM25.95 121.794044Q25.95 120.262794 26.2625 119.34092Q26.575 118.40342 27.184376 117.90342Q27.809376 117.40342 28.746876 117.40342Q29.434376 117.40342 29.95 117.68467Q30.48125 117.96592 30.825 118.49717Q31.16875 119.012794 31.35625 119.762794Q31.54375 120.512794 31.54375 121.794044Q31.54375 123.30967 31.23125 124.231544Q30.934376 125.15342 30.309376 125.669044Q29.7 126.169044 28.746876 126.169044Q27.5125 126.169044 26.79375 125.27842Q25.95 124.21592 25.95 121.794044ZM27.028126 121.794044Q27.028126 123.90342 27.528126 124.606544Q28.028126 125.30967 28.746876 125.30967Q29.48125 125.30967 29.965626 124.606544Q30.465626 123.90342 30.465626 121.794044Q30.465626 119.669044 29.965626 118.981544Q29.48125 118.27842 28.73125 118.27842Q28.0125 118.27842 27.575 118.887794Q27.028126 119.669044 27.028126 121.794044ZM33.5125 126.02842L33.5125 124.825294L34.715626 124.825294L34.715626 126.02842Q34.715626 126.68467 34.48125 127.09092Q34.246876 127.512794 33.746876 127.731544L33.45 127.27842Q33.778126 127.137794 33.934376 126.84092Q34.090626 126.55967 34.121876 126.02842L33.5125 126.02842ZM37.575 121.37217Q36.91875 121.12217 36.590626 120.68467Q36.278126 120.231544 36.278126 119.62217Q36.278126 118.68467 36.95 118.044044Q37.6375 117.40342 38.746876 117.40342Q39.871876 117.40342 40.559376 118.05967Q41.246876 118.71592 41.246876 119.65342Q41.246876 120.24717 40.934376 120.68467Q40.621876 121.12217 39.98125 121.37217Q40.778126 121.62217 41.184376 122.200294Q41.590626 122.77842 41.590626 123.575294Q41.590626 124.669044 40.809376 125.419044Q40.04375 126.169044 38.7625 126.169044Q37.496876 126.169044 36.715626 125.419044Q35.934376 124.669044 35.934376 123.544044Q35.934376 122.700294 36.35625 122.137794Q36.79375 121.575294 37.575 121.37217ZM37.35625 119.575294Q37.35625 120.18467 37.746876 120.575294Q38.153126 120.96592 38.778126 120.96592Q39.3875 120.96592 39.778126 120.59092Q40.16875 120.200294 40.16875 119.637794Q40.16875 119.05967 39.7625 118.669044Q39.35625 118.262794 38.7625 118.262794Q38.153126 118.262794 37.746876 118.65342Q37.35625 119.044044 37.35625 119.575294ZM37.028126 123.544044Q37.028126 123.99717 37.23125 124.419044Q37.45 124.84092 37.871876 125.075294Q38.29375 125.30967 38.778126 125.30967Q39.528126 125.30967 40.0125 124.825294Q40.5125 124.34092 40.5125 123.59092Q40.5125 122.825294 40.0125 122.325294Q39.5125 121.825294 38.746876 121.825294Q37.996876 121.825294 37.5125 122.325294Q37.028126 122.80967 37.028126 123.544044ZM43.153126 119.49717Q43.153126 118.575294 43.60625 117.93467Q44.075 117.294044 44.95 117.294044Q45.7625 117.294044 46.29375 117.87217Q46.825 118.450294 46.825 119.55967Q46.825 120.65342 46.278126 121.24717Q45.746876 121.825294 44.965626 121.825294Q44.184376 121.825294 43.66875 121.24717Q43.153126 120.669044 43.153126 119.49717ZM44.98125 118.012794Q44.590626 118.012794 44.325 118.356544Q44.075 118.700294 44.075 119.606544Q44.075 120.43467 44.325 120.77842Q44.590626 121.106544 44.98125 121.106544Q45.3875 121.106544 45.6375 120.762794Q45.903126 120.419044 45.903126 119.52842Q45.903126 118.68467 45.6375 118.356544Q45.371876 118.012794 44.98125 118.012794ZM44.98125 126.34092L49.684376 117.294044L50.54375 117.294044L45.85625 126.34092L44.98125 126.34092ZM48.7 124.012794Q48.7 123.09092 49.153126 122.450294Q49.621876 121.80967 50.5125 121.80967Q51.325 121.80967 51.85625 122.387794Q52.3875 122.950294 52.3875 124.075294Q52.3875 125.169044 51.840626 125.762794Q51.309376 126.34092 50.5125 126.34092Q49.746876 126.34092 49.215626 125.762794Q48.7 125.18467 48.7 124.012794ZM50.54375 122.52842Q50.1375 122.52842 49.871876 122.87217Q49.621876 123.21592 49.621876 124.12217Q49.621876 124.93467 49.8875 125.27842Q50.153126 125.62217 50.54375 125.62217Q50.934376 125.62217 51.2 125.27842Q51.465626 124.93467 51.465626 124.02842Q51.465626 123.200294 51.2 122.87217Q50.934376 122.52842 50.54375 122.52842Z" fill-rule="nonzero"/><path stroke="#757575" stroke-width="1.0" stroke-linecap="butt" d="M18.45 113.52842L115.6 113.52842L183.96597 113.52842" fill-rule="nonzero"/><path fill="#9e9e9e" d="M185.96597 113.52842C185.96597 112.42385 185.07054 111.52842 183.96597 111.52842C182.8614 111.52842 181.96597 112.42385 181.96597 113.52842C181.96597 114.63299 182.8614 115.52842 183.96597 115.52842C185.07054 115.52842 185.96597 114.63299 185.96597 113.52842" fill-rule="nonzero"/><path fill="#1a1a1a" d="M19.246876 189.44812L19.246876 180.83875L20.2 180.83875L20.2 181.63562Q20.54375 181.16687 20.965626 180.9325Q21.403126 180.69812 22.0125 180.69812Q22.809376 180.69812 23.41875 181.10437Q24.028126 181.51062 24.325 182.26062Q24.6375 183.01062 24.6375 183.90125Q24.6375 184.85437 24.29375 185.62Q23.965626 186.38562 23.309376 186.79187Q22.653126 187.19812 21.934376 187.19812Q21.403126 187.19812 20.98125 186.97937Q20.559376 186.745 20.29375 186.41687L20.29375 189.44812L19.246876 189.44812ZM20.2 183.97937Q20.2 185.1825 20.684376 185.76062Q21.16875 186.32312 21.85625 186.32312Q22.559376 186.32312 23.059376 185.72937Q23.559376 185.13562 23.559376 183.88562Q23.559376 182.69812 23.075 182.12Q22.590626 181.52625 21.903126 181.52625Q21.23125 181.52625 20.715626 182.15125Q20.2 182.77625 20.2 183.97937ZM26.215626 187.0575L26.215626 178.46375L27.278126 178.46375L27.278126 187.0575L26.215626 187.0575ZM33.325 187.0575L33.325 186.13562Q32.590626 187.19812 31.340626 187.19812Q30.79375 187.19812 30.309376 186.995Q29.840626 186.77625 29.60625 186.46375Q29.371876 186.13562 29.278126 185.66687Q29.215626 185.37 29.215626 184.6825L29.215626 180.83875L30.278126 180.83875L30.278126 184.29187Q30.278126 185.10437 30.340626 185.40125Q30.434376 185.8075 30.746876 186.0575Q31.075 186.29187 31.559376 186.29187Q32.028126 186.29187 32.434376 186.0575Q32.85625 185.8075 33.028126 185.38562Q33.215626 184.96375 33.215626 184.16687L33.215626 180.83875L34.2625 180.83875L34.2625 187.0575L33.325 187.0575ZM35.825 185.19812L36.85625 185.04187Q36.95 185.66687 37.340626 185.995Q37.746876 186.32312 38.48125 186.32312Q39.2 186.32312 39.54375 186.04187Q39.903126 185.745 39.903126 185.33875Q39.903126 184.97937 39.590626 184.77625Q39.371876 184.63562 38.5125 184.41687Q37.35625 184.12 36.903126 183.91687Q36.465626 183.69812 36.23125 183.32312Q35.996876 182.94812 35.996876 182.47937Q35.996876 182.07312 36.184376 181.71375Q36.371876 181.35437 36.7 181.12Q36.95 180.94812 37.371876 180.82312Q37.79375 180.69812 38.29375 180.69812Q39.0125 180.69812 39.559376 180.91687Q40.121876 181.12 40.3875 181.47937Q40.653126 181.83875 40.746876 182.4325L39.715626 182.57312Q39.653126 182.10437 39.309376 181.83875Q38.98125 181.5575 38.35625 181.5575Q37.6375 181.5575 37.325 181.8075Q37.0125 182.04187 37.0125 182.37Q37.0125 182.57312 37.1375 182.72937Q37.278126 182.90125 37.54375 183.01062Q37.7 183.07312 38.48125 183.27625Q39.60625 183.58875 40.04375 183.77625Q40.48125 183.96375 40.73125 184.32312Q40.98125 184.6825 40.98125 185.22937Q40.98125 185.76062 40.66875 186.22937Q40.371876 186.6825 39.79375 186.94812Q39.215626 187.19812 38.48125 187.19812Q37.2625 187.19812 36.621876 186.69812Q35.996876 186.1825 35.825 185.19812ZM50.278126 187.0575L50.278126 186.27625Q49.684376 187.19812 48.54375 187.19812Q47.79375 187.19812 47.16875 186.79187Q46.54375 186.37 46.2 185.63562Q45.85625 184.90125 45.85625 183.94812Q45.85625 183.02625 46.16875 182.26062Q46.48125 181.495 47.10625 181.10437Q47.73125 180.69812 48.496876 180.69812Q49.059376 180.69812 49.496876 180.9325Q49.934376 181.16687 50.215626 181.54187L50.215626 178.46375L51.2625 178.46375L51.2625 187.0575L50.278126 187.0575ZM46.95 183.94812Q46.95 185.15125 47.45 185.745Q47.95 186.32312 48.6375 186.32312Q49.325 186.32312 49.809376 185.76062Q50.29375 185.19812 50.29375 184.04187Q50.29375 182.76062 49.79375 182.16687Q49.309376 181.57312 48.590626 181.57312Q47.8875 181.57312 47.41875 182.15125Q46.95 182.71375 46.95 183.94812ZM57.496876 185.0575L58.590626 185.1825Q58.340626 186.13562 57.6375 186.66687Q56.934376 187.19812 55.85625 187.19812Q54.496876 187.19812 53.684376 186.35437Q52.8875 185.51062 52.8875 183.995Q52.8875 182.4325 53.7 181.57312Q54.5125 180.69812 55.79375 180.69812Q57.04375 180.69812 57.825 181.54187Q58.621876 182.38562 58.621876 183.9325Q58.621876 184.02625 58.621876 184.21375L53.98125 184.21375Q54.04375 185.245 54.559376 185.79187Q55.075 186.32312 55.85625 186.32312Q56.434376 186.32312 56.840626 186.02625Q57.2625 185.71375 57.496876 185.0575ZM54.04375 183.35437L57.5125 183.35437Q57.45 182.5575 57.121876 182.16687Q56.60625 181.5575 55.809376 181.5575Q55.075 181.5575 54.575 182.04187Q54.090626 182.52625 54.04375 183.35437ZM62.95 184.8075L64.05937 184.71375Q64.18437 185.52625 64.62187 185.9325Q65.075 186.33875 65.71562 186.33875Q66.46562 186.33875 66.99687 185.76062Q67.52812 185.1825 67.52812 184.245Q67.52812 183.33875 67.0125 182.82312Q66.5125 182.29187 65.68437 182.29187Q65.18437 182.29187 64.7625 182.52625Q64.35625 182.76062 64.12187 183.12L63.1375 182.995L63.965626 178.58875L68.24687 178.58875L68.24687 179.58875L64.80937 179.58875L64.35625 181.90125Q65.12187 181.35437 65.96562 181.35437Q67.09062 181.35437 67.85625 182.13562Q68.6375 182.91687 68.6375 184.15125Q68.6375 185.3075 67.96562 186.16687Q67.1375 187.19812 65.71562 187.19812Q64.54375 187.19812 63.79375 186.54187Q63.059376 185.88562 62.95 184.8075ZM77.30937 186.29187Q76.71562 186.79187 76.16875 186.995Q75.6375 187.19812 75.0125 187.19812Q73.98125 187.19812 73.43437 186.69812Q72.8875 186.19812 72.8875 185.41687Q72.8875 184.96375 73.09062 184.58875Q73.29375 184.19812 73.6375 183.97937Q73.98125 183.745 74.40312 183.63562Q74.7 183.54187 75.34062 183.46375Q76.60625 183.32312 77.21562 183.10437Q77.21562 182.88562 77.21562 182.83875Q77.21562 182.1825 76.91875 181.91687Q76.5125 181.57312 75.71562 181.57312Q74.98125 181.57312 74.62187 181.83875Q74.2625 182.08875 74.09062 182.745L73.05937 182.60437Q73.2 181.94812 73.52812 181.54187Q73.85625 181.13562 74.46562 180.91687Q75.075 180.69812 75.87187 180.69812Q76.66875 180.69812 77.16875 180.88562Q77.66875 181.07312 77.90312 181.35437Q78.1375 181.63562 78.23125 182.07312Q78.27812 182.33875 78.27812 183.04187L78.27812 184.44812Q78.27812 185.91687 78.34062 186.3075Q78.41875 186.69812 78.62187 187.0575L77.5125 187.0575Q77.35625 186.72937 77.30937 186.29187ZM77.21562 183.9325Q76.6375 184.16687 75.49687 184.33875Q74.84062 184.4325 74.575 184.5575Q74.30937 184.66687 74.15312 184.88562Q74.0125 185.10437 74.0125 185.38562Q74.0125 185.8075 74.325 186.08875Q74.65312 186.37 75.2625 186.37Q75.87187 186.37 76.34062 186.10437Q76.825 185.83875 77.04375 185.37Q77.21562 185.01062 77.21562 184.32312L77.21562 183.9325ZM80.24687 187.0575L80.24687 180.83875L81.18437 180.83875L81.18437 181.71375Q81.87187 180.69812 83.16875 180.69812Q83.73125 180.69812 84.2 180.90125Q84.68437 181.10437 84.91875 181.4325Q85.15312 181.76062 85.24687 182.19812Q85.29375 182.495 85.29375 183.22937L85.29375 187.0575L84.24687 187.0575L84.24687 183.27625Q84.24687 182.62 84.12187 182.3075Q83.99687 181.995 83.68437 181.8075Q83.37187 181.60437 82.95 181.60437Q82.27812 181.60437 81.77812 182.04187Q81.29375 182.46375 81.29375 183.65125L81.29375 187.0575L80.24687 187.0575ZM86.825 185.19812L87.85625 185.04187Q87.95 185.66687 88.34062 185.995Q88.74687 186.32312 89.48125 186.32312Q90.2 186.32312 90.54375 186.04187Q90.90312 185.745 90.90312 185.33875Q90.90312 184.97937 90.59062 184.77625Q90.37187 184.63562 89.5125 184.41687Q88.35625 184.12 87.90312 183.91687Q87.46562 183.69812 87.23125 183.32312Q86.99687 182.94812 86.99687 182.47937Q86.99687 182.07312 87.18437 181.71375Q87.37187 181.35437 87.7 181.12Q87.95 180.94812 88.37187 180.82312Q88.79375 180.69812 89.29375 180.69812Q90.0125 180.69812 90.55937 180.91687Q91.12187 181.12 91.3875 181.47937Q91.65312 181.83875 91.74687 182.4325L90.71562 182.57312Q90.65312 182.10437 90.30937 181.83875Q89.98125 181.5575 89.35625 181.5575Q88.6375 181.5575 88.325 181.8075Q88.0125 182.04187 88.0125 182.37Q88.0125 182.57312 88.1375 182.72937Q88.27812 182.90125 88.54375 183.01062Q88.7 183.07312 89.48125 183.27625Q90.60625 183.58875 91.04375 183.77625Q91.48125 183.96375 91.73125 184.32312Q91.98125 184.6825 91.98125 185.22937Q91.98125 185.76062 91.66875 186.22937Q91.37187 186.6825 90.79375 186.94812Q90.21562 187.19812 89.48125 187.19812Q88.2625 187.19812 87.62187 186.69812Q86.99687 186.1825 86.825 185.19812Z" fill-rule="nonzero"/><path fill="#9e9e9e" d="M20.575 199.40125Q19.91875 199.15125 19.590626 198.71375Q19.278126 198.26062 19.278126 197.65125Q19.278126 196.71375 19.95 196.07312Q20.6375 195.4325 21.746876 195.4325Q22.871876 195.4325 23.559376 196.08875Q24.246876 196.745 24.246876 197.6825Q24.246876 198.27625 23.934376 198.71375Q23.621876 199.15125 22.98125 199.40125Q23.778126 199.65125 24.184376 200.22937Q24.590626 200.8075 24.590626 201.60437Q24.590626 202.69812 23.809376 203.44812Q23.04375 204.19812 21.7625 204.19812Q20.496876 204.19812 19.715626 203.44812Q18.934376 202.69812 18.934376 201.57312Q18.934376 200.72937 19.35625 200.16687Q19.79375 199.60437 20.575 199.40125ZM20.35625 197.60437Q20.35625 198.21375 20.746876 198.60437Q21.153126 198.995 21.778126 198.995Q22.3875 198.995 22.778126 198.62Q23.16875 198.22937 23.16875 197.66687Q23.16875 197.08875 22.7625 196.69812Q22.35625 196.29187 21.7625 196.29187Q21.153126 196.29187 20.746876 196.6825Q20.35625 197.07312 20.35625 197.60437ZM20.028126 201.57312Q20.028126 202.02625 20.23125 202.44812Q20.45 202.87 20.871876 203.10437Q21.29375 203.33875 21.778126 203.33875Q22.528126 203.33875 23.0125 202.85437Q23.5125 202.37 23.5125 201.62Q23.5125 200.85437 23.0125 200.35437Q22.5125 199.85437 21.746876 199.85437Q20.996876 199.85437 20.5125 200.35437Q20.028126 200.83875 20.028126 201.57312ZM26.5125 204.0575L26.5125 202.85437L27.715626 202.85437L27.715626 204.0575Q27.715626 204.71375 27.48125 205.12Q27.246876 205.54187 26.746876 205.76062L26.45 205.3075Q26.778126 205.16687 26.934376 204.87Q27.090626 204.58875 27.121876 204.0575L26.5125 204.0575ZM28.95 201.79187L30.0125 201.65125Q30.184376 202.54187 30.621876 202.94812Q31.059376 203.33875 31.684376 203.33875Q32.434376 203.33875 32.95 202.82312Q33.465626 202.3075 33.465626 201.54187Q33.465626 200.82312 32.98125 200.35437Q32.5125 199.87 31.778126 199.87Q31.48125 199.87 31.028126 199.995L31.153126 199.0575Q31.2625 199.07312 31.325 199.07312Q31.996876 199.07312 32.528126 198.72937Q33.075 198.37 33.075 197.63562Q33.075 197.0575 32.684376 196.6825Q32.29375 196.29187 31.66875 196.29187Q31.059376 196.29187 30.6375 196.6825Q30.23125 197.07312 30.121876 197.83875L29.059376 197.65125Q29.246876 196.60437 29.934376 196.02625Q30.621876 195.4325 31.6375 195.4325Q32.340626 195.4325 32.934376 195.745Q33.528126 196.04187 33.840626 196.5575Q34.153126 197.07312 34.153126 197.66687Q34.153126 198.21375 33.85625 198.6825Q33.559376 199.13562 32.98125 199.40125Q33.73125 199.57312 34.153126 200.13562Q34.575 200.6825 34.575 201.52625Q34.575 202.65125 33.746876 203.4325Q32.934376 204.21375 31.684376 204.21375Q30.559376 204.21375 29.809376 203.54187Q29.059376 202.85437 28.95 201.79187ZM36.153126 197.52625Q36.153126 196.60437 36.60625 195.96375Q37.075 195.32312 37.95 195.32312Q38.7625 195.32312 39.29375 195.90125Q39.825 196.47937 39.825 197.58875Q39.825 198.6825 39.278126 199.27625Q38.746876 199.85437 37.965626 199.85437Q37.184376 199.85437 36.66875 199.27625Q36.153126 198.69812 36.153126 197.52625ZM37.98125 196.04187Q37.590626 196.04187 37.325 196.38562Q37.075 196.72937 37.075 197.63562Q37.075 198.46375 37.325 198.8075Q37.590626 199.13562 37.98125 199.13562Q38.3875 199.13562 38.6375 198.79187Q38.903126 198.44812 38.903126 197.5575Q38.903126 196.71375 38.6375 196.38562Q38.371876 196.04187 37.98125 196.04187ZM37.98125 204.37L42.684376 195.32312L43.54375 195.32312L38.85625 204.37L37.98125 204.37ZM41.7 202.04187Q41.7 201.12 42.153126 200.47937Q42.621876 199.83875 43.5125 199.83875Q44.325 199.83875 44.85625 200.41687Q45.3875 200.97937 45.3875 202.10437Q45.3875 203.19812 44.840626 203.79187Q44.309376 204.37 43.5125 204.37Q42.746876 204.37 42.215626 203.79187Q41.7 203.21375 41.7 202.04187ZM43.54375 200.5575Q43.1375 200.5575 42.871876 200.90125Q42.621876 201.245 42.621876 202.15125Q42.621876 202.96375 42.8875 203.3075Q43.153126 203.65125 43.54375 203.65125Q43.934376 203.65125 44.2 203.3075Q44.465626 202.96375 44.465626 202.0575Q44.465626 201.22937 44.2 200.90125Q43.934376 200.5575 43.54375 200.5575Z" fill-rule="nonzero"/><path stroke="#757575" stroke-width="1.0" stroke-linecap="butt" d="M18.45 191.5575L115.6 191.5575L128.995 191.5575" fill-rule="nonzero"/><path fill="#9e9e9e" d="M130.995 191.5575C130.995 190.45293 130.09956 189.5575 128.995 189.5575C127.890434 189.5575 126.995 190.45293 126.995 191.5575C126.995 192.66206 127.890434 193.5575 128.995 193.5575C130.09956 193.5575 130.995 192.66206 130.995 191.5575" fill-rule="nonzero"/><path fill="#1a1a1a" d="M19.246876 249.32195L19.246876 240.71257L20.2 240.71257L20.2 241.50945Q20.54375 241.0407 20.965626 240.80632Q21.403126 240.57195 22.0125 240.57195Q22.809376 240.57195 23.41875 240.9782Q24.028126 241.38445 24.325 242.13445Q24.6375 242.88445 24.6375 243.77507Q24.6375 244.7282 24.29375 245.49382Q23.965626 246.25945 23.309376 246.6657Q22.653126 247.07195 21.934376 247.07195Q21.403126 247.07195 20.98125 246.8532Q20.559376 246.61882 20.29375 246.2907L20.29375 249.32195L19.246876 249.32195ZM20.2 243.8532Q20.2 245.05632 20.684376 245.63445Q21.16875 246.19695 21.85625 246.19695Q22.559376 246.19695 23.059376 245.6032Q23.559376 245.00945 23.559376 243.75945Q23.559376 242.57195 23.075 241.99382Q22.590626 241.40007 21.903126 241.40007Q21.23125 241.40007 20.715626 242.02507Q20.2 242.65007 20.2 243.8532ZM26.215626 246.93132L26.215626 238.33757L27.278126 238.33757L27.278126 246.93132L26.215626 246.93132ZM33.325 246.93132L33.325 246.00945Q32.590626 247.07195 31.340626 247.07195Q30.79375 247.07195 30.309376 246.86882Q29.840626 246.65007 29.60625 246.33757Q29.371876 246.00945 29.278126 245.5407Q29.215626 245.24382 29.215626 244.55632L29.215626 240.71257L30.278126 240.71257L30.278126 244.1657Q30.278126 244.9782 30.340626 245.27507Q30.434376 245.68132 30.746876 245.93132Q31.075 246.1657 31.559376 246.1657Q32.028126 246.1657 32.434376 245.93132Q32.85625 245.68132 33.028126 245.25945Q33.215626 244.83757 33.215626 244.0407L33.215626 240.71257L34.2625 240.71257L34.2625 246.93132L33.325 246.93132ZM35.825 245.07195L36.85625 244.9157Q36.95 245.5407 37.340626 245.86882Q37.746876 246.19695 38.48125 246.19695Q39.2 246.19695 39.54375 245.9157Q39.903126 245.61882 39.903126 245.21257Q39.903126 244.8532 39.590626 244.65007Q39.371876 244.50945 38.5125 244.2907Q37.35625 243.99382 36.903126 243.7907Q36.465626 243.57195 36.23125 243.19695Q35.996876 242.82195 35.996876 242.3532Q35.996876 241.94695 36.184376 241.58757Q36.371876 241.2282 36.7 240.99382Q36.95 240.82195 37.371876 240.69695Q37.79375 240.57195 38.29375 240.57195Q39.0125 240.57195 39.559376 240.7907Q40.121876 240.99382 40.3875 241.3532Q40.653126 241.71257 40.746876 242.30632L39.715626 242.44695Q39.653126 241.9782 39.309376 241.71257Q38.98125 241.43132 38.35625 241.43132Q37.6375 241.43132 37.325 241.68132Q37.0125 241.9157 37.0125 242.24382Q37.0125 242.44695 37.1375 242.6032Q37.278126 242.77507 37.54375 242.88445Q37.7 242.94695 38.48125 243.15007Q39.60625 243.46257 40.04375 243.65007Q40.48125 243.83757 40.73125 244.19695Q40.98125 244.55632 40.98125 245.1032Q40.98125 245.63445 40.66875 246.1032Q40.371876 246.55632 39.79375 246.82195Q39.215626 247.07195 38.48125 247.07195Q37.2625 247.07195 36.621876 246.57195Q35.996876 246.05632 35.825 245.07195ZM50.278126 246.93132L50.278126 246.15007Q49.684376 247.07195 48.54375 247.07195Q47.79375 247.07195 47.16875 246.6657Q46.54375 246.24382 46.2 245.50945Q45.85625 244.77507 45.85625 243.82195Q45.85625 242.90007 46.16875 242.13445Q46.48125 241.36882 47.10625 240.9782Q47.73125 240.57195 48.496876 240.57195Q49.059376 240.57195 49.496876 240.80632Q49.934376 241.0407 50.215626 241.4157L50.215626 238.33757L51.2625 238.33757L51.2625 246.93132L50.278126 246.93132ZM46.95 243.82195Q46.95 245.02507 47.45 245.61882Q47.95 246.19695 48.6375 246.19695Q49.325 246.19695 49.809376 245.63445Q50.29375 245.07195 50.29375 243.9157Q50.29375 242.63445 49.79375 242.0407Q49.309376 241.44695 48.590626 241.44695Q47.8875 241.44695 47.41875 242.02507Q46.95 242.58757 46.95 243.82195ZM57.496876 244.93132L58.590626 245.05632Q58.340626 246.00945 57.6375 246.5407Q56.934376 247.07195 55.85625 247.07195Q54.496876 247.07195 53.684376 246.2282Q52.8875 245.38445 52.8875 243.86882Q52.8875 242.30632 53.7 241.44695Q54.5125 240.57195 55.79375 240.57195Q57.04375 240.57195 57.825 241.4157Q58.621876 242.25945 58.621876 243.80632Q58.621876 243.90007 58.621876 244.08757L53.98125 244.08757Q54.04375 245.11882 54.559376 245.6657Q55.075 246.19695 55.85625 246.19695Q56.434376 246.19695 56.840626 245.90007Q57.2625 245.58757 57.496876 244.93132ZM54.04375 243.2282L57.5125 243.2282Q57.45 242.43132 57.121876 242.0407Q56.60625 241.43132 55.809376 241.43132Q55.075 241.43132 54.575 241.9157Q54.090626 242.40007 54.04375 243.2282ZM66.91875 246.93132L65.87187 246.93132L65.87187 240.21257Q65.48125 240.57195 64.85625 240.94695Q64.24687 241.30632 63.7625 241.4782L63.7625 240.46257Q64.6375 240.0407 65.29375 239.46257Q65.96562 238.86882 66.24687 238.30632L66.91875 238.30632L66.91875 246.93132ZM69.95 242.69695Q69.95 241.1657 70.2625 240.24382Q70.575 239.30632 71.18437 238.80632Q71.80937 238.30632 72.74687 238.30632Q73.43437 238.30632 73.95 238.58757Q74.48125 238.86882 74.825 239.40007Q75.16875 239.9157 75.35625 240.6657Q75.54375 241.4157 75.54375 242.69695Q75.54375 244.21257 75.23125 245.13445Q74.93437 246.05632 74.30937 246.57195Q73.7 247.07195 72.74687 247.07195Q71.5125 247.07195 70.79375 246.18132Q69.95 245.11882 69.95 242.69695ZM71.02812 242.69695Q71.02812 244.80632 71.52812 245.50945Q72.02812 246.21257 72.74687 246.21257Q73.48125 246.21257 73.96562 245.50945Q74.46562 244.80632 74.46562 242.69695Q74.46562 240.57195 73.96562 239.88445Q73.48125 239.18132 72.73125 239.18132Q72.0125 239.18132 71.575 239.7907Q71.02812 240.57195 71.02812 242.69695ZM84.30937 246.1657Q83.71562 246.6657 83.16875 246.86882Q82.6375 247.07195 82.0125 247.07195Q80.98125 247.07195 80.43437 246.57195Q79.8875 246.07195 79.8875 245.2907Q79.8875 244.83757 80.09062 244.46257Q80.29375 244.07195 80.6375 243.8532Q80.98125 243.61882 81.40312 243.50945Q81.7 243.4157 82.34062 243.33757Q83.60625 243.19695 84.21562 242.9782Q84.21562 242.75945 84.21562 242.71257Q84.21562 242.05632 83.91875 241.7907Q83.5125 241.44695 82.71562 241.44695Q81.98125 241.44695 81.62187 241.71257Q81.2625 241.96257 81.09062 242.61882L80.05937 242.4782Q80.2 241.82195 80.52812 241.4157Q80.85625 241.00945 81.46562 240.7907Q82.075 240.57195 82.87187 240.57195Q83.66875 240.57195 84.16875 240.75945Q84.66875 240.94695 84.90312 241.2282Q85.1375 241.50945 85.23125 241.94695Q85.27812 242.21257 85.27812 242.9157L85.27812 244.32195Q85.27812 245.7907 85.34062 246.18132Q85.41875 246.57195 85.62187 246.93132L84.5125 246.93132Q84.35625 246.6032 84.30937 246.1657ZM84.21562 243.80632Q83.6375 244.0407 82.49687 244.21257Q81.84062 244.30632 81.575 244.43132Q81.30937 244.5407 81.15312 244.75945Q81.0125 244.9782 81.0125 245.25945Q81.0125 245.68132 81.325 245.96257Q81.65312 246.24382 82.2625 246.24382Q82.87187 246.24382 83.34062 245.9782Q83.825 245.71257 84.04375 245.24382Q84.21562 244.88445 84.21562 244.19695L84.21562 243.80632ZM87.24687 246.93132L87.24687 240.71257L88.18437 240.71257L88.18437 241.58757Q88.87187 240.57195 90.16875 240.57195Q90.73125 240.57195 91.2 240.77507Q91.68437 240.9782 91.91875 241.30632Q92.15312 241.63445 92.24687 242.07195Q92.29375 242.36882 92.29375 243.1032L92.29375 246.93132L91.24687 246.93132L91.24687 243.15007Q91.24687 242.49382 91.12187 242.18132Q90.99687 241.86882 90.68437 241.68132Q90.37187 241.4782 89.95 241.4782Q89.27812 241.4782 88.77812 241.9157Q88.29375 242.33757 88.29375 243.52507L88.29375 246.93132L87.24687 246.93132ZM93.825 245.07195L94.85625 244.9157Q94.95 245.5407 95.34062 245.86882Q95.74687 246.19695 96.48125 246.19695Q97.2 246.19695 97.54375 245.9157Q97.90312 245.61882 97.90312 245.21257Q97.90312 244.8532 97.59062 244.65007Q97.37187 244.50945 96.5125 244.2907Q95.35625 243.99382 94.90312 243.7907Q94.46562 243.57195 94.23125 243.19695Q93.99687 242.82195 93.99687 242.3532Q93.99687 241.94695 94.18437 241.58757Q94.37187 241.2282 94.7 240.99382Q94.95 240.82195 95.37187 240.69695Q95.79375 240.57195 96.29375 240.57195Q97.0125 240.57195 97.55937 240.7907Q98.12187 240.99382 98.3875 241.3532Q98.65312 241.71257 98.74687 242.30632L97.71562 242.44695Q97.65312 241.9782 97.30937 241.71257Q96.98125 241.43132 96.35625 241.43132Q95.6375 241.43132 95.325 241.68132Q95.0125 241.9157 95.0125 242.24382Q95.0125 242.44695 95.1375 242.6032Q95.27812 242.77507 95.54375 242.88445Q95.7 242.94695 96.48125 243.15007Q97.60625 243.46257 98.04375 243.65007Q98.48125 243.83757 98.73125 244.19695Q98.98125 244.55632 98.98125 245.1032Q98.98125 245.63445 98.66875 246.1032Q98.37187 246.55632 97.79375 246.82195Q97.21562 247.07195 96.48125 247.07195Q95.2625 247.07195 94.62187 246.57195Q93.99687 246.05632 93.825 245.07195Z" fill-rule="nonzero"/><path fill="#9e9e9e" d="M22.91875 263.9313L21.871876 263.9313L21.871876 257.21255Q21.48125 257.57193 20.85625 257.94693Q20.246876 258.3063 19.7625 258.47818L19.7625 257.46255Q20.6375 257.04068 21.29375 256.46255Q21.965626 255.8688 22.246876 255.3063L22.91875 255.3063L22.91875 263.9313ZM31.496876 262.91568L31.496876 263.9313L25.809376 263.9313Q25.809376 263.5563 25.934376 263.19693Q26.153126 262.6188 26.621876 262.0563Q27.10625 261.4938 28.0125 260.75943Q29.41875 259.60318 29.903126 258.9313Q30.403126 258.25943 30.403126 257.66568Q30.403126 257.04068 29.95 256.6188Q29.496876 256.1813 28.778126 256.1813Q28.0125 256.1813 27.559376 256.63443Q27.10625 257.08755 27.090626 257.90005L26.0125 257.79068Q26.121876 256.57193 26.840626 255.94693Q27.575 255.3063 28.809376 255.3063Q30.04375 255.3063 30.7625 255.9938Q31.48125 256.6813 31.48125 257.69693Q31.48125 258.21255 31.2625 258.71255Q31.059376 259.19693 30.559376 259.75943Q30.075 260.3063 28.95 261.25943Q27.996876 262.0563 27.715626 262.35318Q27.45 262.63443 27.278126 262.91568L31.496876 262.91568ZM33.5125 263.9313L33.5125 262.72818L34.715626 262.72818L34.715626 263.9313Q34.715626 264.58755 34.48125 264.9938Q34.246876 265.41568 33.746876 265.63443L33.45 265.1813Q33.778126 265.04068 33.934376 264.7438Q34.090626 264.46255 34.121876 263.9313L33.5125 263.9313ZM35.95 261.6813L37.059376 261.58755Q37.184376 262.40005 37.621876 262.8063Q38.075 263.21255 38.715626 263.21255Q39.465626 263.21255 39.996876 262.63443Q40.528126 262.0563 40.528126 261.1188Q40.528126 260.21255 40.0125 259.69693Q39.5125 259.16568 38.684376 259.16568Q38.184376 259.16568 37.7625 259.40005Q37.35625 259.63443 37.121876 259.9938L36.1375 259.8688L36.965626 255.46255L41.246876 255.46255L41.246876 256.46255L37.809376 256.46255L37.35625 258.77505Q38.121876 258.22818 38.965626 258.22818Q40.090626 258.22818 40.85625 259.00943Q41.6375 259.79068 41.6375 261.02505Q41.6375 262.1813 40.965626 263.04068Q40.1375 264.07193 38.715626 264.07193Q37.54375 264.07193 36.79375 263.41568Q36.059376 262.75943 35.95 261.6813ZM43.153126 257.40005Q43.153126 256.47818 43.60625 255.83755Q44.075 255.19693 44.95 255.19693Q45.7625 255.19693 46.29375 255.77505Q46.825 256.35318 46.825 257.46255Q46.825 258.5563 46.278126 259.15005Q45.746876 259.72818 44.965626 259.72818Q44.184376 259.72818 43.66875 259.15005Q43.153126 258.57193 43.153126 257.40005ZM44.98125 255.91568Q44.590626 255.91568 44.325 256.25943Q44.075 256.60318 44.075 257.50943Q44.075 258.33755 44.325 258.6813Q44.590626 259.00943 44.98125 259.00943Q45.3875 259.00943 45.6375 258.66568Q45.903126 258.32193 45.903126 257.4313Q45.903126 256.58755 45.6375 256.25943Q45.371876 255.91568 44.98125 255.91568ZM44.98125 264.2438L49.684376 255.19693L50.54375 255.19693L45.85625 264.2438L44.98125 264.2438ZM48.7 261.91568Q48.7 260.9938 49.153126 260.35318Q49.621876 259.71255 50.5125 259.71255Q51.325 259.71255 51.85625 260.29068Q52.3875 260.85318 52.3875 261.97818Q52.3875 263.07193 51.840626 263.66568Q51.309376 264.2438 50.5125 264.2438Q49.746876 264.2438 49.215626 263.66568Q48.7 263.08755 48.7 261.91568ZM50.54375 260.4313Q50.1375 260.4313 49.871876 260.77505Q49.621876 261.1188 49.621876 262.02505Q49.621876 262.83755 49.8875 263.1813Q50.153126 263.52505 50.54375 263.52505Q50.934376 263.52505 51.2 263.1813Q51.465626 262.83755 51.465626 261.9313Q51.465626 261.10318 51.2 260.77505Q50.934376 260.4313 50.54375 260.4313Z" fill-rule="nonzero"/><path stroke="#757575" stroke-width="1.0" stroke-linecap="butt" d="M18.45 251.43132L115.6 251.43132L158.02989 251.43132" fill-rule="nonzero"/><path fill="#9e9e9e" d="M160.02989 251.43132C160.02989 250.32675 159.13446 249.43132 158.02989 249.43132C156.92532 249.43132 156.02989 250.32675 156.02989 251.43132C156.02989 252.53589 156.92532 253.43132 158.02989 253.43132C159.13446 253.43132 160.02989 252.53589 160.02989 251.43132" fill-rule="nonzero"/><path fill="#1a1a1a" d="M19.246876 284.45032L19.246876 275.84094L20.2 275.84094L20.2 276.63782Q20.54375 276.16907 20.965626 275.9347Q21.403126 275.70032 22.0125 275.70032Q22.809376 275.70032 23.41875 276.10657Q24.028126 276.51282 24.325 277.26282Q24.6375 278.01282 24.6375 278.90344Q24.6375 279.85657 24.29375 280.6222Q23.965626 281.38782 23.309376 281.79407Q22.653126 282.20032 21.934376 282.20032Q21.403126 282.20032 20.98125 281.98157Q20.559376 281.7472 20.29375 281.41907L20.29375 284.45032L19.246876 284.45032ZM20.2 278.98157Q20.2 280.1847 20.684376 280.76282Q21.16875 281.32532 21.85625 281.32532Q22.559376 281.32532 23.059376 280.73157Q23.559376 280.13782 23.559376 278.88782Q23.559376 277.70032 23.075 277.1222Q22.590626 276.52844 21.903126 276.52844Q21.23125 276.52844 20.715626 277.15344Q20.2 277.77844 20.2 278.98157ZM26.215626 282.0597L26.215626 273.46594L27.278126 273.46594L27.278126 282.0597L26.215626 282.0597ZM33.325 282.0597L33.325 281.13782Q32.590626 282.20032 31.340626 282.20032Q30.79375 282.20032 30.309376 281.9972Q29.840626 281.77844 29.60625 281.46594Q29.371876 281.13782 29.278126 280.66907Q29.215626 280.3722 29.215626 279.6847L29.215626 275.84094L30.278126 275.84094L30.278126 279.29407Q30.278126 280.10657 30.340626 280.40344Q30.434376 280.8097 30.746876 281.0597Q31.075 281.29407 31.559376 281.29407Q32.028126 281.29407 32.434376 281.0597Q32.85625 280.8097 33.028126 280.38782Q33.215626 279.96594 33.215626 279.16907L33.215626 275.84094L34.2625 275.84094L34.2625 282.0597L33.325 282.0597ZM35.825 280.20032L36.85625 280.04407Q36.95 280.66907 37.340626 280.9972Q37.746876 281.32532 38.48125 281.32532Q39.2 281.32532 39.54375 281.04407Q39.903126 280.7472 39.903126 280.34094Q39.903126 279.98157 39.590626 279.77844Q39.371876 279.63782 38.5125 279.41907Q37.35625 279.1222 36.903126 278.91907Q36.465626 278.70032 36.23125 278.32532Q35.996876 277.95032 35.996876 277.48157Q35.996876 277.07532 36.184376 276.71594Q36.371876 276.35657 36.7 276.1222Q36.95 275.95032 37.371876 275.82532Q37.79375 275.70032 38.29375 275.70032Q39.0125 275.70032 39.559376 275.91907Q40.121876 276.1222 40.3875 276.48157Q40.653126 276.84094 40.746876 277.4347L39.715626 277.57532Q39.653126 277.10657 39.309376 276.84094Q38.98125 276.5597 38.35625 276.5597Q37.6375 276.5597 37.325 276.8097Q37.0125 277.04407 37.0125 277.3722Q37.0125 277.57532 37.1375 277.73157Q37.278126 277.90344 37.54375 278.01282Q37.7 278.07532 38.48125 278.27844Q39.60625 278.59094 40.04375 278.77844Q40.48125 278.96594 40.73125 279.32532Q40.98125 279.6847 40.98125 280.23157Q40.98125 280.76282 40.66875 281.23157Q40.371876 281.6847 39.79375 281.95032Q39.215626 282.20032 38.48125 282.20032Q37.2625 282.20032 36.621876 281.70032Q35.996876 281.1847 35.825 280.20032ZM50.278126 282.0597L50.278126 281.27844Q49.684376 282.20032 48.54375 282.20032Q47.79375 282.20032 47.16875 281.79407Q46.54375 281.3722 46.2 280.63782Q45.85625 279.90344 45.85625 278.95032Q45.85625 278.02844 46.16875 277.26282Q46.48125 276.4972 47.10625 276.10657Q47.73125 275.70032 48.496876 275.70032Q49.059376 275.70032 49.496876 275.9347Q49.934376 276.16907 50.215626 276.54407L50.215626 273.46594L51.2625 273.46594L51.2625 282.0597L50.278126 282.0597ZM46.95 278.95032Q46.95 280.15344 47.45 280.7472Q47.95 281.32532 48.6375 281.32532Q49.325 281.32532 49.809376 280.76282Q50.29375 280.20032 50.29375 279.04407Q50.29375 277.76282 49.79375 277.16907Q49.309376 276.57532 48.590626 276.57532Q47.8875 276.57532 47.41875 277.15344Q46.95 277.71594 46.95 278.95032ZM57.496876 280.0597L58.590626 280.1847Q58.340626 281.13782 57.6375 281.66907Q56.934376 282.20032 55.85625 282.20032Q54.496876 282.20032 53.684376 281.35657Q52.8875 280.51282 52.8875 278.9972Q52.8875 277.4347 53.7 276.57532Q54.5125 275.70032 55.79375 275.70032Q57.04375 275.70032 57.825 276.54407Q58.621876 277.38782 58.621876 278.9347Q58.621876 279.02844 58.621876 279.21594L53.98125 279.21594Q54.04375 280.2472 54.559376 280.79407Q55.075 281.32532 55.85625 281.32532Q56.434376 281.32532 56.840626 281.02844Q57.2625 280.71594 57.496876 280.0597ZM54.04375 278.35657L57.5125 278.35657Q57.45 277.5597 57.121876 277.16907Q56.60625 276.5597 55.809376 276.5597Q55.075 276.5597 54.575 277.04407Q54.090626 277.52844 54.04375 278.35657ZM66.91875 282.0597L65.87187 282.0597L65.87187 275.34094Q65.48125 275.70032 64.85625 276.07532Q64.24687 276.4347 63.7625 276.60657L63.7625 275.59094Q64.6375 275.16907 65.29375 274.59094Q65.96562 273.9972 66.24687 273.4347L66.91875 273.4347L66.91875 282.0597ZM69.95 279.8097L71.05937 279.71594Q71.18437 280.52844 71.62187 280.9347Q72.075 281.34094 72.71562 281.34094Q73.46562 281.34094 73.99687 280.76282Q74.52812 280.1847 74.52812 279.2472Q74.52812 278.34094 74.0125 277.82532Q73.5125 277.29407 72.68437 277.29407Q72.18437 277.29407 71.7625 277.52844Q71.35625 277.76282 71.12187 278.1222L70.1375 277.9972L70.96562 273.59094L75.24687 273.59094L75.24687 274.59094L71.80937 274.59094L71.35625 276.90344Q72.12187 276.35657 72.96562 276.35657Q74.09062 276.35657 74.85625 277.13782Q75.6375 277.91907 75.6375 279.15344Q75.6375 280.3097 74.96562 281.16907Q74.1375 282.20032 72.71562 282.20032Q71.54375 282.20032 70.79375 281.54407Q70.05937 280.88782 69.95 279.8097ZM84.30937 281.29407Q83.71562 281.79407 83.16875 281.9972Q82.6375 282.20032 82.0125 282.20032Q80.98125 282.20032 80.43437 281.70032Q79.8875 281.20032 79.8875 280.41907Q79.8875 279.96594 80.09062 279.59094Q80.29375 279.20032 80.6375 278.98157Q80.98125 278.7472 81.40312 278.63782Q81.7 278.54407 82.34062 278.46594Q83.60625 278.32532 84.21562 278.10657Q84.21562 277.88782 84.21562 277.84094Q84.21562 277.1847 83.91875 276.91907Q83.5125 276.57532 82.71562 276.57532Q81.98125 276.57532 81.62187 276.84094Q81.2625 277.09094 81.09062 277.7472L80.05937 277.60657Q80.2 276.95032 80.52812 276.54407Q80.85625 276.13782 81.46562 275.91907Q82.075 275.70032 82.87187 275.70032Q83.66875 275.70032 84.16875 275.88782Q84.66875 276.07532 84.90312 276.35657Q85.1375 276.63782 85.23125 277.07532Q85.27812 277.34094 85.27812 278.04407L85.27812 279.45032Q85.27812 280.91907 85.34062 281.3097Q85.41875 281.70032 85.62187 282.0597L84.5125 282.0597Q84.35625 281.73157 84.30937 281.29407ZM84.21562 278.9347Q83.6375 279.16907 82.49687 279.34094Q81.84062 279.4347 81.575 279.5597Q81.30937 279.66907 81.15312 279.88782Q81.0125 280.10657 81.0125 280.38782Q81.0125 280.8097 81.325 281.09094Q81.65312 281.3722 82.2625 281.3722Q82.87187 281.3722 83.34062 281.10657Q83.825 280.84094 84.04375 280.3722Q84.21562 280.01282 84.21562 279.32532L84.21562 278.9347ZM87.24687 282.0597L87.24687 275.84094L88.18437 275.84094L88.18437 276.71594Q88.87187 275.70032 90.16875 275.70032Q90.73125 275.70032 91.2 275.90344Q91.68437 276.10657 91.91875 276.4347Q92.15312 276.76282 92.24687 277.20032Q92.29375 277.4972 92.29375 278.23157L92.29375 282.0597L91.24687 282.0597L91.24687 278.27844Q91.24687 277.6222 91.12187 277.3097Q90.99687 276.9972 90.68437 276.8097Q90.37187 276.60657 89.95 276.60657Q89.27812 276.60657 88.77812 277.04407Q88.29375 277.46594 88.29375 278.65344L88.29375 282.0597L87.24687 282.0597ZM93.825 280.20032L94.85625 280.04407Q94.95 280.66907 95.34062 280.9972Q95.74687 281.32532 96.48125 281.32532Q97.2 281.32532 97.54375 281.04407Q97.90312 280.7472 97.90312 280.34094Q97.90312 279.98157 97.59062 279.77844Q97.37187 279.63782 96.5125 279.41907Q95.35625 279.1222 94.90312 278.91907Q94.46562 278.70032 94.23125 278.32532Q93.99687 277.95032 93.99687 277.48157Q93.99687 277.07532 94.18437 276.71594Q94.37187 276.35657 94.7 276.1222Q94.95 275.95032 95.37187 275.82532Q95.79375 275.70032 96.29375 275.70032Q97.0125 275.70032 97.55937 275.91907Q98.12187 276.1222 98.3875 276.48157Q98.65312 276.84094 98.74687 277.4347L97.71562 277.57532Q97.65312 277.10657 97.30937 276.84094Q96.98125 276.5597 96.35625 276.5597Q95.6375 276.5597 95.325 276.8097Q95.0125 277.04407 95.0125 277.3722Q95.0125 277.57532 95.1375 277.73157Q95.27812 277.90344 95.54375 278.01282Q95.7 278.07532 96.48125 278.27844Q97.60625 278.59094 98.04375 278.77844Q98.48125 278.96594 98.73125 279.32532Q98.98125 279.6847 98.98125 280.23157Q98.98125 280.76282 98.66875 281.23157Q98.37187 281.6847 97.79375 281.95032Q97.21562 282.20032 96.48125 282.20032Q95.2625 282.20032 94.62187 281.70032Q93.99687 281.1847 93.825 280.20032Z" fill-rule="nonzero"/><path fill="#9e9e9e" d="M20.575 294.40344Q19.91875 294.15344 19.590626 293.71594Q19.278126 293.26282 19.278126 292.65344Q19.278126 291.71594 19.95 291.07532Q20.6375 290.4347 21.746876 290.4347Q22.871876 290.4347 23.559376 291.09094Q24.246876 291.7472 24.246876 292.6847Q24.246876 293.27844 23.934376 293.71594Q23.621876 294.15344 22.98125 294.40344Q23.778126 294.65344 24.184376 295.23157Q24.590626 295.8097 24.590626 296.60657Q24.590626 297.70032 23.809376 298.45032Q23.04375 299.20032 21.7625 299.20032Q20.496876 299.20032 19.715626 298.45032Q18.934376 297.70032 18.934376 296.57532Q18.934376 295.73157 19.35625 295.16907Q19.79375 294.60657 20.575 294.40344ZM20.35625 292.60657Q20.35625 293.21594 20.746876 293.60657Q21.153126 293.9972 21.778126 293.9972Q22.3875 293.9972 22.778126 293.6222Q23.16875 293.23157 23.16875 292.66907Q23.16875 292.09094 22.7625 291.70032Q22.35625 291.29407 21.7625 291.29407Q21.153126 291.29407 20.746876 291.6847Q20.35625 292.07532 20.35625 292.60657ZM20.028126 296.57532Q20.028126 297.02844 20.23125 297.45032Q20.45 297.8722 20.871876 298.10657Q21.29375 298.34094 21.778126 298.34094Q22.528126 298.34094 23.0125 297.85657Q23.5125 297.3722 23.5125 296.6222Q23.5125 295.85657 23.0125 295.35657Q22.5125 294.85657 21.746876 294.85657Q20.996876 294.85657 20.5125 295.35657Q20.028126 295.84094 20.028126 296.57532ZM26.5125 299.0597L26.5125 297.85657L27.715626 297.85657L27.715626 299.0597Q27.715626 299.71594 27.48125 300.1222Q27.246876 300.54407 26.746876 300.76282L26.45 300.3097Q26.778126 300.16907 26.934376 299.8722Q27.090626 299.59094 27.121876 299.0597L26.5125 299.0597ZM28.95 296.79407L30.0125 296.65344Q30.184376 297.54407 30.621876 297.95032Q31.059376 298.34094 31.684376 298.34094Q32.434376 298.34094 32.95 297.82532Q33.465626 297.3097 33.465626 296.54407Q33.465626 295.82532 32.98125 295.35657Q32.5125 294.8722 31.778126 294.8722Q31.48125 294.8722 31.028126 294.9972L31.153126 294.0597Q31.2625 294.07532 31.325 294.07532Q31.996876 294.07532 32.528126 293.73157Q33.075 293.3722 33.075 292.63782Q33.075 292.0597 32.684376 291.6847Q32.29375 291.29407 31.66875 291.29407Q31.059376 291.29407 30.6375 291.6847Q30.23125 292.07532 30.121876 292.84094L29.059376 292.65344Q29.246876 291.60657 29.934376 291.02844Q30.621876 290.4347 31.6375 290.4347Q32.340626 290.4347 32.934376 290.7472Q33.528126 291.04407 33.840626 291.5597Q34.153126 292.07532 34.153126 292.66907Q34.153126 293.21594 33.85625 293.6847Q33.559376 294.13782 32.98125 294.40344Q33.73125 294.57532 34.153126 295.13782Q34.575 295.6847 34.575 296.52844Q34.575 297.65344 33.746876 298.4347Q32.934376 299.21594 31.684376 299.21594Q30.559376 299.21594 29.809376 298.54407Q29.059376 297.85657 28.95 296.79407ZM36.153126 292.52844Q36.153126 291.60657 36.60625 290.96594Q37.075 290.32532 37.95 290.32532Q38.7625 290.32532 39.29375 290.90344Q39.825 291.48157 39.825 292.59094Q39.825 293.6847 39.278126 294.27844Q38.746876 294.85657 37.965626 294.85657Q37.184376 294.85657 36.66875 294.27844Q36.153126 293.70032 36.153126 292.52844ZM37.98125 291.04407Q37.590626 291.04407 37.325 291.38782Q37.075 291.73157 37.075 292.63782Q37.075 293.46594 37.325 293.8097Q37.590626 294.13782 37.98125 294.13782Q38.3875 294.13782 38.6375 293.79407Q38.903126 293.45032 38.903126 292.5597Q38.903126 291.71594 38.6375 291.38782Q38.371876 291.04407 37.98125 291.04407ZM37.98125 299.3722L42.684376 290.32532L43.54375 290.32532L38.85625 299.3722L37.98125 299.3722ZM41.7 297.04407Q41.7 296.1222 42.153126 295.48157Q42.621876 294.84094 43.5125 294.84094Q44.325 294.84094 44.85625 295.41907Q45.3875 295.98157 45.3875 297.10657Q45.3875 298.20032 44.840626 298.79407Q44.309376 299.3722 43.5125 299.3722Q42.746876 299.3722 42.215626 298.79407Q41.7 298.21594 41.7 297.04407ZM43.54375 295.5597Q43.1375 295.5597 42.871876 295.90344Q42.621876 296.2472 42.621876 297.15344Q42.621876 297.96594 42.8875 298.3097Q43.153126 298.65344 43.54375 298.65344Q43.934376 298.65344 44.2 298.3097Q44.465626 297.96594 44.465626 297.0597Q44.465626 296.23157 44.2 295.90344Q43.934376 295.5597 43.54375 295.5597Z" fill-rule="nonzero"/><path stroke="#757575" stroke-width="1.0" stroke-linecap="butt" d="M18.45 286.5597L115.6 286.5597L233.13463 286.5597" fill-rule="nonzero"/><path fill="#9e9e9e" d="M235.13463 286.5597C235.13463 285.4551 234.2392 284.5597 233.13463 284.5597C232.03006 284.5597 231.13463 285.4551 231.13463 286.5597C231.13463 287.66425 232.03006 288.5597 233.13463 288.5597C234.2392 288.5597 235.13463 287.66425 235.13463 286.5597" fill-rule="nonzero"/><path fill="#1a1a1a" d="M439.34686 189.44812L439.34686 180.83875L440.3 180.83875L440.3 181.63562Q440.64374 181.16687 441.0656 180.9325Q441.5031 180.69812 442.1125 180.69812Q442.90936 180.69812 443.51874 181.10437Q444.1281 181.51062 444.425 182.26062Q444.7375 183.01062 444.7375 183.90125Q444.7375 184.85437 444.39374 185.62Q444.0656 186.38562 443.40936 186.79187Q442.7531 187.19812 442.03436 187.19812Q441.5031 187.19812 441.08124 186.97937Q440.65936 186.745 440.39374 186.41687L440.39374 189.44812L439.34686 189.44812ZM440.3 183.97937Q440.3 185.1825 440.78436 185.76062Q441.26874 186.32312 441.95624 186.32312Q442.65936 186.32312 443.15936 185.72937Q443.65936 185.13562 443.65936 183.88562Q443.65936 182.69812 443.175 182.12Q442.6906 181.52625 442.0031 181.52625Q441.33124 181.52625 440.8156 182.15125Q440.3 182.77625 440.3 183.97937ZM446.3156 187.0575L446.3156 178.46375L447.3781 178.46375L447.3781 187.0575L446.3156 187.0575ZM453.425 187.0575L453.425 186.13562Q452.6906 187.19812 451.4406 187.19812Q450.89374 187.19812 450.40936 186.995Q449.9406 186.77625 449.70624 186.46375Q449.47186 186.13562 449.3781 185.66687Q449.3156 185.37 449.3156 184.6825L449.3156 180.83875L450.3781 180.83875L450.3781 184.29187Q450.3781 185.10437 450.4406 185.40125Q450.53436 185.8075 450.84686 186.0575Q451.175 186.29187 451.65936 186.29187Q452.1281 186.29187 452.53436 186.0575Q452.95624 185.8075 453.1281 185.38562Q453.3156 184.96375 453.3156 184.16687L453.3156 180.83875L454.3625 180.83875L454.3625 187.0575L453.425 187.0575ZM455.925 185.19812L456.95624 185.04187Q457.05 185.66687 457.4406 185.995Q457.84686 186.32312 458.58124 186.32312Q459.3 186.32312 459.64374 186.04187Q460.0031 185.745 460.0031 185.33875Q460.0031 184.97937 459.6906 184.77625Q459.47186 184.63562 458.6125 184.41687Q457.45624 184.12 457.0031 183.91687Q456.5656 183.69812 456.33124 183.32312Q456.09686 182.94812 456.09686 182.47937Q456.09686 182.07312 456.28436 181.71375Q456.47186 181.35437 456.8 181.12Q457.05 180.94812 457.47186 180.82312Q457.89374 180.69812 458.39374 180.69812Q459.1125 180.69812 459.65936 180.91687Q460.22186 181.12 460.4875 181.47937Q460.7531 181.83875 460.84686 182.4325L459.8156 182.57312Q459.7531 182.10437 459.40936 181.83875Q459.08124 181.5575 458.45624 181.5575Q457.7375 181.5575 457.425 181.8075Q457.1125 182.04187 457.1125 182.37Q457.1125 182.57312 457.2375 182.72937Q457.3781 182.90125 457.64374 183.01062Q457.8 183.07312 458.58124 183.27625Q459.70624 183.58875 460.14374 183.77625Q460.58124 183.96375 460.83124 184.32312Q461.08124 184.6825 461.08124 185.22937Q461.08124 185.76062 460.76874 186.22937Q460.47186 186.6825 459.89374 186.94812Q459.3156 187.19812 458.58124 187.19812Q457.3625 187.19812 456.72186 186.69812Q456.09686 186.1825 455.925 185.19812ZM470.3781 187.0575L470.3781 186.27625Q469.78436 187.19812 468.64374 187.19812Q467.89374 187.19812 467.26874 186.79187Q466.64374 186.37 466.3 185.63562Q465.95624 184.90125 465.95624 183.94812Q465.95624 183.02625 466.26874 182.26062Q466.58124 181.495 467.20624 181.10437Q467.83124 180.69812 468.59686 180.69812Q469.15936 180.69812 469.59686 180.9325Q470.03436 181.16687 470.3156 181.54187L470.3156 178.46375L471.3625 178.46375L471.3625 187.0575L470.3781 187.0575ZM467.05 183.94812Q467.05 185.15125 467.55 185.745Q468.05 186.32312 468.7375 186.32312Q469.425 186.32312 469.90936 185.76062Q470.39374 185.19812 470.39374 184.04187Q470.39374 182.76062 469.89374 182.16687Q469.40936 181.57312 468.6906 181.57312Q467.9875 181.57312 467.51874 182.15125Q467.05 182.71375 467.05 183.94812ZM477.59686 185.0575L478.6906 185.1825Q478.4406 186.13562 477.7375 186.66687Q477.03436 187.19812 475.95624 187.19812Q474.59686 187.19812 473.78436 186.35437Q472.9875 185.51062 472.9875 183.995Q472.9875 182.4325 473.8 181.57312Q474.6125 180.69812 475.89374 180.69812Q477.14374 180.69812 477.925 181.54187Q478.72186 182.38562 478.72186 183.9325Q478.72186 184.02625 478.72186 184.21375L474.08124 184.21375Q474.14374 185.245 474.65936 185.79187Q475.175 186.32312 475.95624 186.32312Q476.53436 186.32312 476.9406 186.02625Q477.3625 185.71375 477.59686 185.0575ZM474.14374 183.35437L477.6125 183.35437Q477.55 182.5575 477.22186 182.16687Q476.70624 181.5575 475.90936 181.5575Q475.175 181.5575 474.675 182.04187Q474.1906 182.52625 474.14374 183.35437ZM488.59686 186.04187L488.59686 187.0575L482.90936 187.0575Q482.90936 186.6825 483.03436 186.32312Q483.2531 185.745 483.72186 185.1825Q484.20624 184.62 485.1125 183.88562Q486.51874 182.72937 487.0031 182.0575Q487.5031 181.38562 487.5031 180.79187Q487.5031 180.16687 487.05 179.745Q486.59686 179.3075 485.8781 179.3075Q485.1125 179.3075 484.65936 179.76062Q484.20624 180.21375 484.1906 181.02625L483.1125 180.91687Q483.22186 179.69812 483.9406 179.07312Q484.675 178.4325 485.90936 178.4325Q487.14374 178.4325 487.8625 179.12Q488.58124 179.8075 488.58124 180.82312Q488.58124 181.33875 488.3625 181.83875Q488.15936 182.32312 487.65936 182.88562Q487.175 183.4325 486.05 184.38562Q485.09686 185.1825 484.8156 185.47937Q484.55 185.76062 484.3781 186.04187L488.59686 186.04187ZM490.05 182.82312Q490.05 181.29187 490.3625 180.37Q490.675 179.4325 491.28436 178.9325Q491.90936 178.4325 492.84686 178.4325Q493.53436 178.4325 494.05 178.71375Q494.58124 178.995 494.925 179.52625Q495.26874 180.04187 495.45624 180.79187Q495.64374 181.54187 495.64374 182.82312Q495.64374 184.33875 495.33124 185.26062Q495.03436 186.1825 494.40936 186.69812Q493.8 187.19812 492.84686 187.19812Q491.6125 187.19812 490.89374 186.3075Q490.05 185.245 490.05 182.82312ZM491.1281 182.82312Q491.1281 184.9325 491.6281 185.63562Q492.1281 186.33875 492.84686 186.33875Q493.58124 186.33875 494.0656 185.63562Q494.5656 184.9325 494.5656 182.82312Q494.5656 180.69812 494.0656 180.01062Q493.58124 179.3075 492.83124 179.3075Q492.1125 179.3075 491.675 179.91687Q491.1281 180.69812 491.1281 182.82312ZM504.40936 186.29187Q503.8156 186.79187 503.26874 186.995Q502.7375 187.19812 502.1125 187.19812Q501.08124 187.19812 500.53436 186.69812Q499.9875 186.19812 499.9875 185.41687Q499.9875 184.96375 500.1906 184.58875Q500.39374 184.19812 500.7375 183.97937Q501.08124 183.745 501.5031 183.63562Q501.8 183.54187 502.4406 183.46375Q503.70624 183.32312 504.3156 183.10437Q504.3156 182.88562 504.3156 182.83875Q504.3156 182.1825 504.01874 181.91687Q503.6125 181.57312 502.8156 181.57312Q502.08124 181.57312 501.72186 181.83875Q501.3625 182.08875 501.1906 182.745L500.15936 182.60437Q500.3 181.94812 500.6281 181.54187Q500.95624 181.13562 501.5656 180.91687Q502.175 180.69812 502.97186 180.69812Q503.76874 180.69812 504.26874 180.88562Q504.76874 181.07312 505.0031 181.35437Q505.2375 181.63562 505.33124 182.07312Q505.3781 182.33875 505.3781 183.04187L505.3781 184.44812Q505.3781 185.91687 505.4406 186.3075Q505.51874 186.69812 505.72186 187.0575L504.6125 187.0575Q504.45624 186.72937 504.40936 186.29187ZM504.3156 183.9325Q503.7375 184.16687 502.59686 184.33875Q501.9406 184.4325 501.675 184.5575Q501.40936 184.66687 501.2531 184.88562Q501.1125 185.10437 501.1125 185.38562Q501.1125 185.8075 501.425 186.08875Q501.7531 186.37 502.3625 186.37Q502.97186 186.37 503.4406 186.10437Q503.925 185.83875 504.14374 185.37Q504.3156 185.01062 504.3156 184.32312L504.3156 183.9325ZM507.34686 187.0575L507.34686 180.83875L508.28436 180.83875L508.28436 181.71375Q508.97186 180.69812 510.26874 180.69812Q510.83124 180.69812 511.3 180.90125Q511.78436 181.10437 512.01874 181.4325Q512.2531 181.76062 512.34686 182.19812Q512.39374 182.495 512.39374 183.22937L512.39374 187.0575L511.34686 187.0575L511.34686 183.27625Q511.34686 182.62 511.22186 182.3075Q511.09686 181.995 510.78436 181.8075Q510.47186 181.60437 510.05 181.60437Q509.3781 181.60437 508.8781 182.04187Q508.39374 182.46375 508.39374 183.65125L508.39374 187.0575L507.34686 187.0575ZM513.925 185.19812L514.95624 185.04187Q515.05 185.66687 515.4406 185.995Q515.84686 186.32312 516.58124 186.32312Q517.3 186.32312 517.64374 186.04187Q518.0031 185.745 518.0031 185.33875Q518.0031 184.97937 517.6906 184.77625Q517.47186 184.63562 516.6125 184.41687Q515.45624 184.12 515.0031 183.91687Q514.5656 183.69812 514.33124 183.32312Q514.09686 182.94812 514.09686 182.47937Q514.09686 182.07312 514.28436 181.71375Q514.47186 181.35437 514.8 181.12Q515.05 180.94812 515.47186 180.82312Q515.89374 180.69812 516.39374 180.69812Q517.1125 180.69812 517.65936 180.91687Q518.22186 181.12 518.4875 181.47937Q518.7531 181.83875 518.84686 182.4325L517.8156 182.57312Q517.7531 182.10437 517.40936 181.83875Q517.08124 181.5575 516.45624 181.5575Q515.7375 181.5575 515.425 181.8075Q515.1125 182.04187 515.1125 182.37Q515.1125 182.57312 515.2375 182.72937Q515.3781 182.90125 515.64374 183.01062Q515.8 183.07312 516.58124 183.27625Q517.70624 183.58875 518.14374 183.77625Q518.58124 183.96375 518.83124 184.32312Q519.08124 184.6825 519.08124 185.22937Q519.08124 185.76062 518.76874 186.22937Q518.47186 186.6825 517.89374 186.94812Q517.3156 187.19812 516.58124 187.19812Q515.3625 187.19812 514.72186 186.69812Q514.09686 186.1825 513.925 185.19812Z" fill-rule="nonzero"/><path fill="#9e9e9e" d="M486.05 201.8075L487.15936 201.71375Q487.28436 202.52625 487.72186 202.9325Q488.175 203.33875 488.8156 203.33875Q489.5656 203.33875 490.09686 202.76062Q490.6281 202.1825 490.6281 201.245Q490.6281 200.33875 490.1125 199.82312Q489.6125 199.29187 488.78436 199.29187Q488.28436 199.29187 487.8625 199.52625Q487.45624 199.76062 487.22186 200.12L486.2375 199.995L487.0656 195.58875L491.34686 195.58875L491.34686 196.58875L487.90936 196.58875L487.45624 198.90125Q488.22186 198.35437 489.0656 198.35437Q490.1906 198.35437 490.95624 199.13562Q491.7375 199.91687 491.7375 201.15125Q491.7375 202.3075 491.0656 203.16687Q490.2375 204.19812 488.8156 204.19812Q487.64374 204.19812 486.89374 203.54187Q486.15936 202.88562 486.05 201.8075ZM493.05 199.82312Q493.05 198.29187 493.3625 197.37Q493.675 196.4325 494.28436 195.9325Q494.90936 195.4325 495.84686 195.4325Q496.53436 195.4325 497.05 195.71375Q497.58124 195.995 497.925 196.52625Q498.26874 197.04187 498.45624 197.79187Q498.64374 198.54187 498.64374 199.82312Q498.64374 201.33875 498.33124 202.26062Q498.03436 203.1825 497.40936 203.69812Q496.8 204.19812 495.84686 204.19812Q494.6125 204.19812 493.89374 203.3075Q493.05 202.245 493.05 199.82312ZM494.1281 199.82312Q494.1281 201.9325 494.6281 202.63562Q495.1281 203.33875 495.84686 203.33875Q496.58124 203.33875 497.0656 202.63562Q497.5656 201.9325 497.5656 199.82312Q497.5656 197.69812 497.0656 197.01062Q496.58124 196.3075 495.83124 196.3075Q495.1125 196.3075 494.675 196.91687Q494.1281 197.69812 494.1281 199.82312ZM500.6125 204.0575L500.6125 202.85437L501.8156 202.85437L501.8156 204.0575Q501.8156 204.71375 501.58124 205.12Q501.34686 205.54187 500.84686 205.76062L500.55 205.3075Q500.8781 205.16687 501.03436 204.87Q501.1906 204.58875 501.22186 204.0575L500.6125 204.0575ZM503.05 199.82312Q503.05 198.29187 503.3625 197.37Q503.675 196.4325 504.28436 195.9325Q504.90936 195.4325 505.84686 195.4325Q506.53436 195.4325 507.05 195.71375Q507.58124 195.995 507.925 196.52625Q508.26874 197.04187 508.45624 197.79187Q508.64374 198.54187 508.64374 199.82312Q508.64374 201.33875 508.33124 202.26062Q508.03436 203.1825 507.40936 203.69812Q506.8 204.19812 505.84686 204.19812Q504.6125 204.19812 503.89374 203.3075Q503.05 202.245 503.05 199.82312ZM504.1281 199.82312Q504.1281 201.9325 504.6281 202.63562Q505.1281 203.33875 505.84686 203.33875Q506.58124 203.33875 507.0656 202.63562Q507.5656 201.9325 507.5656 199.82312Q507.5656 197.69812 507.0656 197.01062Q506.58124 196.3075 505.83124 196.3075Q505.1125 196.3075 504.675 196.91687Q504.1281 197.69812 504.1281 199.82312ZM510.2531 197.52625Q510.2531 196.60437 510.70624 195.96375Q511.175 195.32312 512.05 195.32312Q512.8625 195.32312 513.39374 195.90125Q513.925 196.47937 513.925 197.58875Q513.925 198.6825 513.3781 199.27625Q512.84686 199.85437 512.0656 199.85437Q511.28436 199.85437 510.76874 199.27625Q510.2531 198.69812 510.2531 197.52625ZM512.08124 196.04187Q511.6906 196.04187 511.425 196.38562Q511.175 196.72937 511.175 197.63562Q511.175 198.46375 511.425 198.8075Q511.6906 199.13562 512.08124 199.13562Q512.4875 199.13562 512.7375 198.79187Q513.0031 198.44812 513.0031 197.5575Q513.0031 196.71375 512.7375 196.38562Q512.47186 196.04187 512.08124 196.04187ZM512.08124 204.37L516.78436 195.32312L517.64374 195.32312L512.95624 204.37L512.08124 204.37ZM515.8 202.04187Q515.8 201.12 516.2531 200.47937Q516.72186 199.83875 517.6125 199.83875Q518.425 199.83875 518.95624 200.41687Q519.4875 200.97937 519.4875 202.10437Q519.4875 203.19812 518.9406 203.79187Q518.40936 204.37 517.6125 204.37Q516.84686 204.37 516.3156 203.79187Q515.8 203.21375 515.8 202.04187ZM517.64374 200.5575Q517.2375 200.5575 516.97186 200.90125Q516.72186 201.245 516.72186 202.15125Q516.72186 202.96375 516.9875 203.3075Q517.2531 203.65125 517.64374 203.65125Q518.03436 203.65125 518.3 203.3075Q518.5656 202.96375 518.5656 202.0575Q518.5656 201.22937 518.3 200.90125Q518.03436 200.5575 517.64374 200.5575Z" fill-rule="nonzero"/><path stroke="#757575" stroke-width="1.0" stroke-linecap="butt" d="M520.55 191.5575L423.4 191.5575L410.005 191.5575" fill-rule="nonzero"/><path fill="#9e9e9e" d="M412.005 191.5575C412.005 190.45293 411.10956 189.5575 410.005 189.5575C408.90042 189.5575 408.005 190.45293 408.005 191.5575C408.005 192.66206 408.90042 193.5575 410.005 193.5575C411.10956 193.5575 412.005 192.66206 412.005 191.5575" fill-rule="nonzero"/><path fill="#757575" d="M20.059376 37.45L20.059376 23.1375L21.95 23.1375L21.95 29.0125L29.3875 29.0125L29.3875 23.1375L31.278126 23.1375L31.278126 37.45L29.3875 37.45L29.3875 30.7L21.95 30.7L21.95 37.45L20.059376 37.45ZM39.54375 36.16875Q38.559376 36.996876 37.653126 37.340626Q36.746876 37.684376 35.715626 37.684376Q34.0125 37.684376 33.090626 36.85625Q32.16875 36.0125 32.16875 34.715626Q32.16875 33.95 32.5125 33.325Q32.871876 32.7 33.434376 32.325Q33.996876 31.934376 34.7 31.73125Q35.215626 31.60625 36.2625 31.465626Q38.3875 31.215626 39.3875 30.871876Q39.403126 30.5125 39.403126 30.403126Q39.403126 29.340626 38.903126 28.8875Q38.23125 28.29375 36.903126 28.29375Q35.653126 28.29375 35.059376 28.73125Q34.48125 29.16875 34.2 30.278126L32.48125 30.04375Q32.715626 28.934376 33.246876 28.2625Q33.778126 27.575 34.79375 27.215626Q35.809376 26.840626 37.153126 26.840626Q38.48125 26.840626 39.309376 27.153126Q40.1375 27.465626 40.528126 27.95Q40.91875 28.41875 41.075 29.1375Q41.16875 29.590626 41.16875 30.7625L41.16875 33.10625Q41.16875 35.559376 41.278126 36.215626Q41.3875 36.85625 41.73125 37.45L39.8875 37.45Q39.621876 36.903126 39.54375 36.16875ZM39.3875 32.246876Q38.434376 32.6375 36.5125 32.903126Q35.434376 33.059376 34.98125 33.2625Q34.54375 33.45 34.29375 33.825Q34.04375 34.2 34.04375 34.66875Q34.04375 35.371876 34.575 35.840626Q35.10625 36.309376 36.1375 36.309376Q37.153126 36.309376 37.934376 35.871876Q38.73125 35.41875 39.10625 34.653126Q39.3875 34.04375 39.3875 32.8875L39.3875 32.246876ZM45.3875 37.45L43.7625 37.45L43.7625 23.1375L45.5125 23.1375L45.5125 28.246876Q46.6375 26.840626 48.35625 26.840626Q49.309376 26.840626 50.16875 27.23125Q51.028126 27.621876 51.575 28.325Q52.121876 29.0125 52.434376 29.996876Q52.746876 30.98125 52.746876 32.10625Q52.746876 34.778126 51.434376 36.23125Q50.121876 37.684376 48.278126 37.684376Q46.434376 37.684376 45.3875 36.153126L45.3875 37.45ZM45.371876 32.184376Q45.371876 34.04375 45.871876 34.8875Q46.715626 36.23125 48.121876 36.23125Q49.278126 36.23125 50.10625 35.23125Q50.95 34.23125 50.95 32.246876Q50.95 30.215626 50.1375 29.2625Q49.340626 28.29375 48.2 28.29375Q47.04375 28.29375 46.2 29.29375Q45.371876 30.29375 45.371876 32.184376ZM54.778126 25.153126L54.778126 23.1375L56.54375 23.1375L56.54375 25.153126L54.778126 25.153126ZM54.778126 37.45L54.778126 27.075L56.54375 27.075L56.54375 37.45L54.778126 37.45ZM62.60625 35.871876L62.85625 37.434376Q62.121876 37.590626 61.528126 37.590626Q60.575 37.590626 60.04375 37.29375Q59.528126 36.98125 59.309376 36.496876Q59.090626 35.996876 59.090626 34.41875L59.090626 28.45L57.809376 28.45L57.809376 27.075L59.090626 27.075L59.090626 24.5125L60.840626 23.45L60.840626 27.075L62.60625 27.075L62.60625 28.45L60.840626 28.45L60.840626 34.5125Q60.840626 35.2625 60.934376 35.48125Q61.028126 35.684376 61.23125 35.825Q61.45 35.95 61.840626 35.95Q62.121876 35.95 62.60625 35.871876ZM71.54375 36.16875Q70.55937 36.996876 69.65312 37.340626Q68.74687 37.684376 67.71562 37.684376Q66.0125 37.684376 65.09062 36.85625Q64.16875 36.0125 64.16875 34.715626Q64.16875 33.95 64.5125 33.325Q64.87187 32.7 65.43437 32.325Q65.99687 31.934376 66.7 31.73125Q67.21562 31.60625 68.2625 31.465626Q70.3875 31.215626 71.3875 30.871876Q71.40312 30.5125 71.40312 30.403126Q71.40312 29.340626 70.90312 28.8875Q70.23125 28.29375 68.90312 28.29375Q67.65312 28.29375 67.05937 28.73125Q66.48125 29.16875 66.2 30.278126L64.48125 30.04375Q64.71562 28.934376 65.24687 28.2625Q65.77812 27.575 66.79375 27.215626Q67.80937 26.840626 69.15312 26.840626Q70.48125 26.840626 71.30937 27.153126Q72.1375 27.465626 72.52812 27.95Q72.91875 28.41875 73.075 29.1375Q73.16875 29.590626 73.16875 30.7625L73.16875 33.10625Q73.16875 35.559376 73.27812 36.215626Q73.3875 36.85625 73.73125 37.45L71.8875 37.45Q71.62187 36.903126 71.54375 36.16875ZM71.3875 32.246876Q70.43437 32.6375 68.5125 32.903126Q67.43437 33.059376 66.98125 33.2625Q66.54375 33.45 66.29375 33.825Q66.04375 34.2 66.04375 34.66875Q66.04375 35.371876 66.575 35.840626Q67.10625 36.309376 68.1375 36.309376Q69.15312 36.309376 69.93437 35.871876Q70.73125 35.41875 71.10625 34.653126Q71.3875 34.04375 71.3875 32.8875L71.3875 32.246876ZM75.7625 37.45L75.7625 27.075L77.35625 27.075L77.35625 28.559376Q78.49687 26.840626 80.65312 26.840626Q81.59062 26.840626 82.37187 27.184376Q83.16875 27.5125 83.55937 28.059376Q83.95 28.60625 84.10625 29.35625Q84.2 29.85625 84.2 31.075L84.2 37.45L82.43437 37.45L82.43437 31.1375Q82.43437 30.059376 82.23125 29.528126Q82.02812 28.996876 81.49687 28.684376Q80.98125 28.371876 80.27812 28.371876Q79.15312 28.371876 78.34062 29.090626Q77.52812 29.79375 77.52812 31.778126L77.52812 37.45L75.7625 37.45ZM89.60625 35.871876L89.85625 37.434376Q89.12187 37.590626 88.52812 37.590626Q87.575 37.590626 87.04375 37.29375Q86.52812 36.98125 86.30937 36.496876Q86.09062 35.996876 86.09062 34.41875L86.09062 28.45L84.80937 28.45L84.80937 27.075L86.09062 27.075L86.09062 24.5125L87.84062 23.45L87.84062 27.075L89.60625 27.075L89.60625 28.45L87.84062 28.45L87.84062 34.5125Q87.84062 35.2625 87.93437 35.48125Q88.02812 35.684376 88.23125 35.825Q88.45 35.95 88.84062 35.95Q89.12187 35.95 89.60625 35.871876ZM91.05937 34.35625L92.80937 34.075Q92.95 35.121876 93.62187 35.684376Q94.29375 36.23125 95.49687 36.23125Q96.7 36.23125 97.27812 35.746876Q97.87187 35.246876 97.87187 34.590626Q97.87187 33.996876 97.35625 33.653126Q96.99687 33.41875 95.55937 33.059376Q93.62187 32.559376 92.87187 32.215626Q92.1375 31.85625 91.74687 31.23125Q91.35625 30.590626 91.35625 29.825Q91.35625 29.1375 91.66875 28.54375Q91.99687 27.95 92.54375 27.559376Q92.95 27.2625 93.65312 27.059376Q94.37187 26.840626 95.18437 26.840626Q96.40312 26.840626 97.325 27.2Q98.24687 27.54375 98.68437 28.153126Q99.12187 28.746876 99.29375 29.746876L97.575 29.98125Q97.45 29.184376 96.8875 28.746876Q96.325 28.29375 95.30937 28.29375Q94.09062 28.29375 93.575 28.7Q93.05937 29.090626 93.05937 29.621876Q93.05937 29.965626 93.27812 30.246876Q93.48125 30.528126 93.95 30.715626Q94.21562 30.809376 95.49687 31.153126Q97.37187 31.653126 98.10625 31.98125Q98.84062 32.29375 99.2625 32.903126Q99.68437 33.496876 99.68437 34.403126Q99.68437 35.278126 99.16875 36.059376Q98.65312 36.840626 97.68437 37.2625Q96.71562 37.684376 95.49687 37.684376Q93.48125 37.684376 92.41875 36.840626Q91.35625 35.996876 91.05937 34.35625ZM107.99687 37.45L107.99687 23.1375L113.3875 23.1375Q114.825 23.1375 115.575 23.2625Q116.62187 23.45 117.34062 23.95Q118.05937 24.434376 118.48125 25.325Q118.91875 26.215626 118.91875 27.278126Q118.91875 29.10625 117.74687 30.371876Q116.59062 31.621876 113.55937 31.621876L109.8875 31.621876L109.8875 37.45L107.99687 37.45ZM109.8875 29.934376L113.59062 29.934376Q115.41875 29.934376 116.18437 29.2625Q116.96562 28.575 116.96562 27.325Q116.96562 26.434376 116.5125 25.79375Q116.05937 25.153126 115.325 24.95Q114.84062 24.825 113.54375 24.825L109.8875 24.825L109.8875 29.934376ZM127.55937 37.45L127.55937 35.91875Q126.35625 37.684376 124.27812 37.684376Q123.35625 37.684376 122.55937 37.340626Q121.7625 36.98125 121.37187 36.45Q120.99687 35.91875 120.84062 35.1375Q120.73125 34.621876 120.73125 33.496876L120.73125 27.075L122.48125 27.075L122.48125 32.825Q122.48125 34.2 122.59062 34.684376Q122.7625 35.371876 123.29375 35.778126Q123.84062 36.16875 124.62187 36.16875Q125.41875 36.16875 126.10625 35.7625Q126.80937 35.35625 127.09062 34.66875Q127.3875 33.965626 127.3875 32.6375L127.3875 27.075L129.1375 27.075L129.1375 37.45L127.55937 37.45ZM134.60625 35.871876L134.85625 37.434376Q134.12187 37.590626 133.52812 37.590626Q132.575 37.590626 132.04375 37.29375Q131.52812 36.98125 131.30937 36.496876Q131.09062 35.996876 131.09062 34.41875L131.09062 28.45L129.80937 28.45L129.80937 27.075L131.09062 27.075L131.09062 24.5125L132.84062 23.45L132.84062 27.075L134.60625 27.075L134.60625 28.45L132.84062 28.45L132.84062 34.5125Q132.84062 35.2625 132.93437 35.48125Q133.02812 35.684376 133.23125 35.825Q133.45 35.95 133.84062 35.95Q134.12187 35.95 134.60625 35.871876ZM143.87187 34.10625L145.68437 34.340626Q145.2625 35.91875 144.09062 36.809376Q142.93437 37.684376 141.12187 37.684376Q138.85625 37.684376 137.5125 36.29375Q136.18437 34.8875 136.18437 32.35625Q136.18437 29.73125 137.52812 28.29375Q138.87187 26.840626 141.02812 26.840626Q143.10625 26.840626 144.41875 28.2625Q145.74687 29.66875 145.74687 32.246876Q145.74687 32.403126 145.73125 32.715626L137.99687 32.715626Q138.09062 34.41875 138.96562 35.325Q139.84062 36.23125 141.1375 36.23125Q142.10625 36.23125 142.77812 35.73125Q143.46562 35.215626 143.87187 34.10625ZM138.09062 31.2625L143.8875 31.2625Q143.77812 29.965626 143.23125 29.309376Q142.3875 28.29375 141.04375 28.29375Q139.84062 28.29375 139.0125 29.10625Q138.18437 29.903126 138.09062 31.2625ZM139.99687 25.79375L141.29375 23.059376L143.59062 23.059376L141.45 25.79375L139.99687 25.79375ZM147.12187 32.2625Q147.12187 29.3875 148.71562 27.996876Q150.05937 26.840626 151.98125 26.840626Q154.12187 26.840626 155.46562 28.246876Q156.825 29.653126 156.825 32.121876Q156.825 34.121876 156.23125 35.278126Q155.6375 36.41875 154.48125 37.059376Q153.34062 37.684376 151.98125 37.684376Q149.79375 37.684376 148.45 36.29375Q147.12187 34.8875 147.12187 32.2625ZM148.91875 32.2625Q148.91875 34.2625 149.77812 35.246876Q150.65312 36.23125 151.98125 36.23125Q153.29375 36.23125 154.15312 35.246876Q155.02812 34.246876 155.02812 32.2Q155.02812 30.278126 154.15312 29.29375Q153.27812 28.29375 151.98125 28.29375Q150.65312 28.29375 149.77812 29.29375Q148.91875 30.278126 148.91875 32.2625ZM158.73125 37.45L158.73125 23.1375L160.48125 23.1375L160.48125 37.45L158.73125 37.45ZM162.77812 25.153126L162.77812 23.1375L164.54375 23.1375L164.54375 25.153126L162.77812 25.153126ZM162.77812 37.45L162.77812 27.075L164.54375 27.075L164.54375 37.45L162.77812 37.45ZM173.87187 34.10625L175.68437 34.340626Q175.2625 35.91875 174.09062 36.809376Q172.93437 37.684376 171.12187 37.684376Q168.85625 37.684376 167.5125 36.29375Q166.18437 34.8875 166.18437 32.35625Q166.18437 29.73125 167.52812 28.29375Q168.87187 26.840626 171.02812 26.840626Q173.10625 26.840626 174.41875 28.2625Q175.74687 29.66875 175.74687 32.246876Q175.74687 32.403126 175.73125 32.715626L167.99687 32.715626Q168.09062 34.41875 168.96562 35.325Q169.84062 36.23125 171.1375 36.23125Q172.10625 36.23125 172.77812 35.73125Q173.46562 35.215626 173.87187 34.10625ZM168.09062 31.2625L173.8875 31.2625Q173.77812 29.965626 173.23125 29.309376Q172.3875 28.29375 171.04375 28.29375Q169.84062 28.29375 169.0125 29.10625Q168.18437 29.903126 168.09062 31.2625ZM177.7625 37.45L177.7625 27.075L179.35625 27.075L179.35625 28.559376Q180.49687 26.840626 182.65312 26.840626Q183.59062 26.840626 184.37187 27.184376Q185.16875 27.5125 185.55937 28.059376Q185.95 28.60625 186.10625 29.35625Q186.2 29.85625 186.2 31.075L186.2 37.45L184.43437 37.45L184.43437 31.1375Q184.43437 30.059376 184.23125 29.528126Q184.02812 28.996876 183.49687 28.684376Q182.98125 28.371876 182.27812 28.371876Q181.15312 28.371876 180.34062 29.090626Q179.52812 29.79375 179.52812 31.778126L179.52812 37.45L177.7625 37.45ZM187.05937 34.35625L188.80937 34.075Q188.95 35.121876 189.62187 35.684376Q190.29375 36.23125 191.49687 36.23125Q192.7 36.23125 193.27812 35.746876Q193.87187 35.246876 193.87187 34.590626Q193.87187 33.996876 193.35625 33.653126Q192.99687 33.41875 191.55937 33.059376Q189.62187 32.559376 188.87187 32.215626Q188.1375 31.85625 187.74687 31.23125Q187.35625 30.590626 187.35625 29.825Q187.35625 29.1375 187.66875 28.54375Q187.99687 27.95 188.54375 27.559376Q188.95 27.2625 189.65312 27.059376Q190.37187 26.840626 191.18437 26.840626Q192.40312 26.840626 193.325 27.2Q194.24687 27.54375 194.68437 28.153126Q195.12187 28.746876 195.29375 29.746876L193.575 29.98125Q193.45 29.184376 192.8875 28.746876Q192.325 28.29375 191.30937 28.29375Q190.09062 28.29375 189.575 28.7Q189.05937 29.090626 189.05937 29.621876Q189.05937 29.965626 189.27812 30.246876Q189.48125 30.528126 189.95 30.715626Q190.21562 30.809376 191.49687 31.153126Q193.37187 31.653126 194.10625 31.98125Q194.84062 32.29375 195.2625 32.903126Q195.68437 33.496876 195.68437 34.403126Q195.68437 35.278126 195.16875 36.059376Q194.65312 36.840626 193.68437 37.2625Q192.71562 37.684376 191.49687 37.684376Q189.48125 37.684376 188.41875 36.840626Q187.35625 35.996876 187.05937 34.35625ZM210.49687 37.45L210.49687 36.1375Q209.5125 37.684376 207.59062 37.684376Q206.35625 37.684376 205.30937 36.996876Q204.27812 36.309376 203.7 35.090626Q203.1375 33.871876 203.1375 32.278126Q203.1375 30.715626 203.65312 29.45Q204.16875 28.184376 205.2 27.5125Q206.24687 26.840626 207.5125 26.840626Q208.45 26.840626 209.18437 27.246876Q209.91875 27.6375 210.3875 28.2625L210.3875 23.1375L212.12187 23.1375L212.12187 37.45L210.49687 37.45ZM204.93437 32.278126Q204.93437 34.2625 205.77812 35.246876Q206.62187 36.23125 207.7625 36.23125Q208.91875 36.23125 209.71562 35.29375Q210.52812 34.35625 210.52812 32.41875Q210.52812 30.29375 209.7 29.29375Q208.8875 28.29375 207.68437 28.29375Q206.5125 28.29375 205.71562 29.2625Q204.93437 30.215626 204.93437 32.278126ZM221.87187 34.10625L223.68437 34.340626Q223.2625 35.91875 222.09062 36.809376Q220.93437 37.684376 219.12187 37.684376Q216.85625 37.684376 215.5125 36.29375Q214.18437 34.8875 214.18437 32.35625Q214.18437 29.73125 215.52812 28.29375Q216.87187 26.840626 219.02812 26.840626Q221.10625 26.840626 222.41875 28.2625Q223.74687 29.66875 223.74687 32.246876Q223.74687 32.403126 223.73125 32.715626L215.99687 32.715626Q216.09062 34.41875 216.96562 35.325Q217.84062 36.23125 219.1375 36.23125Q220.10625 36.23125 220.77812 35.73125Q221.46562 35.215626 221.87187 34.10625ZM216.09062 31.2625L221.8875 31.2625Q221.77812 29.965626 221.23125 29.309376Q220.3875 28.29375 219.04375 28.29375Q217.84062 28.29375 217.0125 29.10625Q216.18437 29.903126 216.09062 31.2625ZM225.7625 41.41875L225.7625 27.075L227.37187 27.075L227.37187 28.41875Q227.93437 27.6375 228.6375 27.246876Q229.35625 26.840626 230.37187 26.840626Q231.7 26.840626 232.71562 27.528126Q233.73125 28.215626 234.24687 29.465626Q234.77812 30.7 234.77812 32.184376Q234.77812 33.778126 234.2 35.059376Q233.6375 36.325 232.54375 37.0125Q231.45 37.684376 230.24687 37.684376Q229.37187 37.684376 228.66875 37.309376Q227.98125 36.934376 227.52812 36.371876L227.52812 41.41875L225.7625 41.41875ZM227.35625 32.325Q227.35625 34.325 228.16875 35.278126Q228.98125 36.23125 230.1375 36.23125Q231.30937 36.23125 232.1375 35.246876Q232.98125 34.2625 232.98125 32.16875Q232.98125 30.2 232.15312 29.215626Q231.34062 28.215626 230.21562 28.215626Q229.09062 28.215626 228.21562 29.278126Q227.35625 30.325 227.35625 32.325ZM243.55937 37.45L243.55937 35.91875Q242.35625 37.684376 240.27812 37.684376Q239.35625 37.684376 238.55937 37.340626Q237.7625 36.98125 237.37187 36.45Q236.99687 35.91875 236.84062 35.1375Q236.73125 34.621876 236.73125 33.496876L236.73125 27.075L238.48125 27.075L238.48125 32.825Q238.48125 34.2 238.59062 34.684376Q238.7625 35.371876 239.29375 35.778126Q239.84062 36.16875 240.62187 36.16875Q241.41875 36.16875 242.10625 35.7625Q242.80937 35.35625 243.09062 34.66875Q243.3875 33.965626 243.3875 32.6375L243.3875 27.075L245.1375 27.075L245.1375 37.45L243.55937 37.45ZM246.77812 25.153126L246.77812 23.1375L248.54375 23.1375L248.54375 25.153126L246.77812 25.153126ZM246.77812 37.45L246.77812 27.075L248.54375 27.075L248.54375 37.45L246.77812 37.45ZM250.05937 34.35625L251.80937 34.075Q251.95 35.121876 252.62187 35.684376Q253.29375 36.23125 254.49687 36.23125Q255.7 36.23125 256.27814 35.746876Q256.8719 35.246876 256.8719 34.590626Q256.8719 33.996876 256.35626 33.653126Q255.99687 33.41875 254.55937 33.059376Q252.62187 32.559376 251.87187 32.215626Q251.1375 31.85625 250.74687 31.23125Q250.35625 30.590626 250.35625 29.825Q250.35625 29.1375 250.66875 28.54375Q250.99687 27.95 251.54375 27.559376Q251.95 27.2625 252.65312 27.059376Q253.37187 26.840626 254.18437 26.840626Q255.40312 26.840626 256.325 27.2Q257.2469 27.54375 257.6844 28.153126Q258.1219 28.746876 258.29376 29.746876L256.575 29.98125Q256.45 29.184376 255.8875 28.746876Q255.325 28.29375 254.30937 28.29375Q253.09062 28.29375 252.575 28.7Q252.05937 29.090626 252.05937 29.621876Q252.05937 29.965626 252.27812 30.246876Q252.48125 30.528126 252.95 30.715626Q253.21562 30.809376 254.49687 31.153126Q256.3719 31.653126 257.10626 31.98125Q257.84064 32.29375 258.2625 32.903126Q258.6844 33.496876 258.6844 34.403126Q258.6844 35.278126 258.16876 36.059376Q257.65314 36.840626 256.6844 37.2625Q255.71562 37.684376 254.49687 37.684376Q252.48125 37.684376 251.41875 36.840626Q250.35625 35.996876 250.05937 34.35625Z" fill-rule="nonzero"/></svg>