<svg version="1.1" viewBox="0.0 0.0 655.0 369.0" fill="none" stroke="none" stroke-linecap="square" stroke-miterlimit="10" width="655" height="369" xmlns:xlink="http://www.w3.org/1999/xlink" xmlns="http://www.w3.org/2000/svg"><path fill="#ffffff" d="M0 0L655.0 0L655.0 369.0L0 369.0L0 0Z" fill-rule="nonzero"/><path fill="#6f8aa2" d="M263.45743 165.675C276.66733 149.65886 301.0802 139.7925 327.5 139.7925L327.5 161.9775C301.0802 161.9775 276.66733 171.84386 263.45743 187.86Z" fill-rule="nonzero"/><path fill="#9fc5e8" d="M199.41484 139.7925C225.83464 107.76021 274.66043 88.0275 327.5 88.0275L327.5 139.7925C301.0802 139.7925 276.66733 149.65886 263.45743 165.675Z" fill-rule="nonzero"/><path fill="#2e5dab" d="M475.4 213.7425C475.4 270.92053 409.18292 317.2725 327.5 317.2725C245.8171 317.2725 179.6 270.92053 179.6 213.7425L179.6 191.5575C179.6 248.73553 245.8171 295.0875 327.5 295.0875C409.18292 295.0875 475.4 248.73553 475.4 191.5575Z" fill-rule="nonzero"/><path fill="#2e5dab" d="M327.5 139.7925C368.34146 139.7925 401.45 162.96848 401.45 191.5575L401.45 213.7425C401.45 185.15347 368.34146 161.9775 327.5 161.9775Z" fill-rule="nonzero"/><path fill="#2e5dab" d="M253.55 191.5575C253.55 182.47084 256.96695 173.54428 263.45743 165.675L263.45743 187.86C256.96695 195.72928 253.55 204.65584 253.55 213.7425Z" fill-rule="nonzero"/><path fill="#4285f4" d="M327.5 88.0275C394.44037 88.0275 453.03497 119.50036 470.36044 164.76196C487.68588 210.02357 459.42206 257.78796 401.45 281.2171C343.47794 304.64624 270.2529 297.89807 222.9189 264.76425C175.58492 231.63046 165.94466 180.37296 199.41484 139.7925L263.45743 165.675C246.72232 185.96523 251.54245 211.59398 275.20944 228.16089C298.87646 244.72778 335.48895 248.10187 364.475 236.3873C393.46103 224.67274 407.59293 200.79054 398.9302 178.15973C390.2675 155.52893 360.97018 139.7925 327.5 139.7925Z" fill-rule="nonzero"/><path fill="#000000" d="M382.00937 262.61472L382.00937 263.80222L375.38437 263.80222Q375.36874 263.36472 375.525 262.94284Q375.79062 262.27097 376.3375 261.61472Q376.9 260.95847 377.94687 260.0991Q379.5875 258.75534 380.15 257.9741Q380.72812 257.19284 380.72812 256.48972Q380.72812 255.75534 380.19687 255.25534Q379.68124 254.75534 378.85312 254.75534Q377.9625 254.75534 377.41562 255.28659Q376.88437 255.81784 376.88437 256.77097L375.61874 256.63034Q375.74374 255.22409 376.5875 254.48972Q377.44687 253.73972 378.86874 253.73972Q380.32187 253.73972 381.15 254.53659Q381.99374 255.33347 381.99374 256.52097Q381.99374 257.13034 381.74374 257.70847Q381.50937 258.2866 380.93124 258.92722Q380.36874 259.56784 379.04062 260.69284Q377.93124 261.61472 377.61874 261.95847Q377.30624 262.2866 377.10312 262.61472L382.00937 262.61472ZM383.54062 258.86472Q383.54062 257.08347 383.9 256.00534Q384.275 254.91159 384.99374 254.33347Q385.7125 253.73972 386.80624 253.73972Q387.61874 253.73972 388.22812 254.06784Q388.8375 254.39597 389.22812 255.00534Q389.63437 255.61472 389.85312 256.48972Q390.07187 257.36472 390.07187 258.86472Q390.07187 260.63034 389.7125 261.70847Q389.35312 262.7866 388.63437 263.38034Q387.91562 263.9741 386.80624 263.9741Q385.36874 263.9741 384.54062 262.92722Q383.54062 261.67722 383.54062 258.86472ZM384.80624 258.86472Q384.80624 261.33347 385.38437 262.14597Q385.9625 262.95847 386.80624 262.95847Q387.66562 262.95847 388.24374 262.14597Q388.82187 261.31784 388.82187 258.86472Q388.82187 256.38034 388.24374 255.56784Q387.66562 254.75534 386.79062 254.75534Q385.94687 254.75534 385.44687 255.47409Q384.80624 256.39597 384.80624 258.86472Z" fill-rule="nonzero"/><path fill="#000000" d="M272.56876 129.31279L272.56876 126.90654L268.20938 126.90654L268.20938 125.78154L272.7875 119.297165L273.7875 119.297165L273.7875 125.78154L275.14688 125.78154L275.14688 126.90654L273.7875 126.90654L273.7875 129.31279L272.56876 129.31279ZM272.56876 125.78154L272.56876 121.265915L269.42813 125.78154L272.56876 125.78154Z" fill-rule="nonzero"/><path fill="#1a1a1a" d="M19.403126 101.88087L19.403126 93.28712L25.60625 93.28712L25.60625 94.30274L20.54375 94.30274L20.54375 96.92774L25.29375 96.92774L25.29375 97.94337L20.54375 97.94337L20.54375 100.86524L25.809376 100.86524L25.809376 101.88087L19.403126 101.88087ZM27.246876 101.88087L27.246876 95.66212L28.184376 95.66212L28.184376 96.53712Q28.871876 95.52149 30.16875 95.52149Q30.73125 95.52149 31.2 95.72462Q31.684376 95.92774 31.91875 96.25587Q32.153126 96.58399 32.246876 97.02149Q32.29375 97.31837 32.29375 98.05274L32.29375 101.88087L31.246876 101.88087L31.246876 98.09962Q31.246876 97.44337 31.121876 97.13087Q30.996876 96.81837 30.684376 96.63087Q30.371876 96.42774 29.95 96.42774Q29.278126 96.42774 28.778126 96.86524Q28.29375 97.28712 28.29375 98.47462L28.29375 101.88087L27.246876 101.88087ZM37.325 101.88087L37.325 93.28712L38.465626 93.28712L38.465626 100.86524L42.7 100.86524L42.7 101.88087L37.325 101.88087ZM43.85625 98.77149Q43.85625 97.03712 44.809376 96.20899Q45.60625 95.52149 46.7625 95.52149Q48.04375 95.52149 48.85625 96.36524Q49.684376 97.19337 49.684376 98.67774Q49.684376 99.88087 49.325 100.56837Q48.965626 101.25587 48.2625 101.64649Q47.575 102.02149 46.7625 102.02149Q45.465626 102.02149 44.653126 101.19337Q43.85625 100.34962 43.85625 98.77149ZM44.934376 98.77149Q44.934376 99.95899 45.45 100.55274Q45.98125 101.14649 46.7625 101.14649Q47.559376 101.14649 48.075 100.55274Q48.590626 99.95899 48.590626 98.74024Q48.590626 97.58399 48.059376 96.99024Q47.54375 96.39649 46.7625 96.39649Q45.98125 96.39649 45.45 96.99024Q44.934376 97.56837 44.934376 98.77149ZM55.309376 99.59962L56.340626 99.74024Q56.16875 100.80274 55.465626 101.41212Q54.7625 102.02149 53.746876 102.02149Q52.465626 102.02149 51.684376 101.19337Q50.91875 100.34962 50.91875 98.78712Q50.91875 97.78712 51.246876 97.03712Q51.590626 96.27149 52.2625 95.89649Q52.95 95.52149 53.7625 95.52149Q54.7625 95.52149 55.403126 96.03712Q56.059376 96.53712 56.246876 97.49024L55.215626 97.64649Q55.075 97.02149 54.7 96.70899Q54.325 96.38087 53.79375 96.38087Q52.996876 96.38087 52.496876 96.95899Q51.996876 97.52149 51.996876 98.75587Q51.996876 100.02149 52.48125 100.58399Q52.965626 101.14649 53.73125 101.14649Q54.35625 101.14649 54.7625 100.77149Q55.184376 100.39649 55.309376 99.59962ZM61.309376 101.11524Q60.715626 101.61524 60.16875 101.81837Q59.6375 102.02149 59.0125 102.02149Q57.98125 102.02149 57.434376 101.52149Q56.8875 101.02149 56.8875 100.24024Q56.8875 99.78712 57.090626 99.41212Q57.29375 99.02149 57.6375 98.80274Q57.98125 98.56837 58.403126 98.45899Q58.7 98.36524 59.340626 98.28712Q60.60625 98.14649 61.215626 97.92774Q61.215626 97.70899 61.215626 97.66212Q61.215626 97.00587 60.91875 96.74024Q60.5125 96.39649 59.715626 96.39649Q58.98125 96.39649 58.621876 96.66212Q58.2625 96.91212 58.090626 97.56837L57.059376 97.42774Q57.2 96.77149 57.528126 96.36524Q57.85625 95.95899 58.465626 95.74024Q59.075 95.52149 59.871876 95.52149Q60.66875 95.52149 61.16875 95.70899Q61.66875 95.89649 61.903126 96.17774Q62.1375 96.45899 62.23125 96.89649Q62.278126 97.16212 62.278126 97.86524L62.278126 99.27149Q62.278126 100.74024 62.340626 101.13087Q62.41875 101.52149 62.621876 101.88087L61.5125 101.88087Q61.35625 101.55274 61.309376 101.11524ZM61.215626 98.75587Q60.6375 98.99024 59.496876 99.16212Q58.840626 99.25587 58.575 99.38087Q58.309376 99.49024 58.153126 99.70899Q58.0125 99.92774 58.0125 100.20899Q58.0125 100.63087 58.325 100.91212Q58.653126 101.19337 59.2625 101.19337Q59.871876 101.19337 60.340626 100.92774Q60.825 100.66212 61.04375 100.19337Q61.215626 99.83399 61.215626 99.14649L61.215626 98.75587ZM66.54375 100.94337L66.7 101.86524Q66.24687 101.95899 65.90312 101.95899Q65.325 101.95899 65.0125 101.78712Q64.7 101.59962 64.55937 101.30274Q64.43437 101.00587 64.43437 100.05274L64.43437 96.47462L63.66875 96.47462L63.66875 95.66212L64.43437 95.66212L64.43437 94.11524L65.48125 93.49024L65.48125 95.66212L66.54375 95.66212L66.54375 96.47462L65.48125 96.47462L65.48125 100.11524Q65.48125 100.56837 65.52812 100.69337Q65.59062 100.81837 65.71562 100.89649Q65.84062 100.97462 66.075 100.97462Q66.2625 100.97462 66.54375 100.94337ZM67.24687 94.50587L67.24687 93.28712L68.30937 93.28712L68.30937 94.50587L67.24687 94.50587ZM67.24687 101.88087L67.24687 95.66212L68.30937 95.66212L68.30937 101.88087L67.24687 101.88087ZM69.85625 98.77149Q69.85625 97.03712 70.80937 96.20899Q71.60625 95.52149 72.7625 95.52149Q74.04375 95.52149 74.85625 96.36524Q75.68437 97.19337 75.68437 98.67774Q75.68437 99.88087 75.325 100.56837Q74.96562 101.25587 74.2625 101.64649Q73.575 102.02149 72.7625 102.02149Q71.46562 102.02149 70.65312 101.19337Q69.85625 100.34962 69.85625 98.77149ZM70.93437 98.77149Q70.93437 99.95899 71.45 100.55274Q71.98125 101.14649 72.7625 101.14649Q73.55937 101.14649 74.075 100.55274Q74.59062 99.95899 74.59062 98.74024Q74.59062 97.58399 74.05937 96.99024Q73.54375 96.39649 72.7625 96.39649Q71.98125 96.39649 71.45 96.99024Q70.93437 97.56837 70.93437 98.77149ZM77.24687 101.88087L77.24687 95.66212L78.18437 95.66212L78.18437 96.53712Q78.87187 95.52149 80.16875 95.52149Q80.73125 95.52149 81.2 95.72462Q81.68437 95.92774 81.91875 96.25587Q82.15312 96.58399 82.24687 97.02149Q82.29375 97.31837 82.29375 98.05274L82.29375 101.88087L81.24687 101.88087L81.24687 98.09962Q81.24687 97.44337 81.12187 97.13087Q80.99687 96.81837 80.68437 96.63087Q80.37187 96.42774 79.95 96.42774Q79.27812 96.42774 78.77812 96.86524Q78.29375 97.28712 78.29375 98.47462L78.29375 101.88087L77.24687 101.88087Z" fill-rule="nonzero"/><path fill="#9e9e9e" d="M22.91875 118.88087L21.871876 118.88087L21.871876 112.16212Q21.48125 112.52149 20.85625 112.89649Q20.246876 113.25587 19.7625 113.42774L19.7625 112.41212Q20.6375 111.99024 21.29375 111.41212Q21.965626 110.81837 22.246876 110.25587L22.91875 110.25587L22.91875 118.88087ZM31.41875 112.39649L30.371876 112.47462Q30.23125 111.84962 29.98125 111.56837Q29.54375 111.11524 28.91875 111.11524Q28.41875 111.11524 28.028126 111.39649Q27.54375 111.77149 27.246876 112.47462Q26.965626 113.16212 26.95 114.44337Q27.325 113.86524 27.871876 113.58399Q28.434376 113.30274 29.04375 113.30274Q30.090626 113.30274 30.825 114.08399Q31.575 114.86524 31.575 116.08399Q31.575 116.89649 31.215626 117.59962Q30.871876 118.28712 30.2625 118.66212Q29.653126 119.02149 28.8875 119.02149Q27.559376 119.02149 26.73125 118.05274Q25.903126 117.08399 25.903126 114.86524Q25.903126 112.36524 26.825 111.24024Q27.621876 110.25587 28.98125 110.25587Q29.996876 110.25587 30.6375 110.83399Q31.29375 111.39649 31.41875 112.39649ZM27.121876 116.09962Q27.121876 116.64649 27.340626 117.14649Q27.575 117.63087 27.98125 117.89649Q28.403126 118.16212 28.871876 118.16212Q29.528126 118.16212 30.0125 117.63087Q30.496876 117.08399 30.496876 116.16212Q30.496876 115.27149 30.0125 114.75587Q29.54375 114.24024 28.825 114.24024Q28.10625 114.24024 27.60625 114.75587Q27.121876 115.27149 27.121876 116.09962ZM33.5125 118.88087L33.5125 117.67774L34.715626 117.67774L34.715626 118.88087Q34.715626 119.53712 34.48125 119.94337Q34.246876 120.36524 33.746876 120.58399L33.45 120.13087Q33.778126 119.99024 33.934376 119.69337Q34.090626 119.41212 34.121876 118.88087L33.5125 118.88087ZM36.0125 111.41212L36.0125 110.39649L41.575 110.39649L41.575 111.22462Q40.7625 112.09962 39.95 113.55274Q39.153126 114.99024 38.715626 116.52149Q38.3875 117.59962 38.309376 118.88087L37.215626 118.88087Q37.23125 117.86524 37.60625 116.42774Q37.996876 114.99024 38.7 113.66212Q39.41875 112.33399 40.23125 111.41212L36.0125 111.41212ZM43.153126 112.34962Q43.153126 111.42774 43.60625 110.78712Q44.075 110.14649 44.95 110.14649Q45.7625 110.14649 46.29375 110.72462Q46.825 111.30274 46.825 112.41212Q46.825 113.50587 46.278126 114.09962Q45.746876 114.67774 44.965626 114.67774Q44.184376 114.67774 43.66875 114.09962Q43.153126 113.52149 43.153126 112.34962ZM44.98125 110.86524Q44.590626 110.86524 44.325 111.20899Q44.075 111.55274 44.075 112.45899Q44.075 113.28712 44.325 113.63087Q44.590626 113.95899 44.98125 113.95899Q45.3875 113.95899 45.6375 113.61524Q45.903126 113.27149 45.903126 112.38087Q45.903126 111.53712 45.6375 111.20899Q45.371876 110.86524 44.98125 110.86524ZM44.98125 119.19337L49.684376 110.14649L50.54375 110.14649L45.85625 119.19337L44.98125 119.19337ZM48.7 116.86524Q48.7 115.94337 49.153126 115.30274Q49.621876 114.66212 50.5125 114.66212Q51.325 114.66212 51.85625 115.24024Q52.3875 115.80274 52.3875 116.92774Q52.3875 118.02149 51.840626 118.61524Q51.309376 119.19337 50.5125 119.19337Q49.746876 119.19337 49.215626 118.61524Q48.7 118.03712 48.7 116.86524ZM50.54375 115.38087Q50.1375 115.38087 49.871876 115.72462Q49.621876 116.06837 49.621876 116.97462Q49.621876 117.78712 49.8875 118.13087Q50.153126 118.47462 50.54375 118.47462Q50.934376 118.47462 51.2 118.13087Q51.465626 117.78712 51.465626 116.88087Q51.465626 116.05274 51.2 115.72462Q50.934376 115.38087 50.54375 115.38087Z" fill-rule="nonzero"/><path stroke="#757575" stroke-width="1.0" stroke-linecap="butt" d="M18.45 106.38087L173.6 106.38087L257.2475 106.38087" fill-rule="nonzero"/><path fill="#9e9e9e" d="M259.2475 106.38087C259.2475 105.2763 258.35208 104.38087 257.2475 104.38087C256.14294 104.38087 255.2475 105.2763 255.2475 106.38087C255.2475 107.48544 256.14294 108.38087 257.2475 108.38087C258.35208 108.38087 259.2475 107.48544 259.2475 106.38087" fill-rule="nonzero"/><path fill="#1a1a1a" d="M504.47186 272.23413L504.47186 263.64038L507.72186 263.64038Q508.5656 263.64038 509.01874 263.7185Q509.65936 263.82788 510.08124 264.12476Q510.51874 264.42163 510.76874 264.95288Q511.03436 265.48413 511.03436 266.12476Q511.03436 267.2185 510.33124 267.98413Q509.64374 268.73413 507.8156 268.73413L505.6125 268.73413L505.6125 272.23413L504.47186 272.23413ZM505.6125 267.73413L507.83124 267.73413Q508.9406 267.73413 509.39374 267.32788Q509.8625 266.906 509.8625 266.156Q509.8625 265.62476 509.58124 265.24976Q509.3156 264.85913 508.8781 264.73413Q508.58124 264.656 507.8156 264.656L505.6125 264.656L505.6125 267.73413ZM512.33124 272.23413L512.33124 266.01538L513.28436 266.01538L513.28436 266.95288Q513.64374 266.29663 513.9406 266.0935Q514.2531 265.87476 514.6281 265.87476Q515.15936 265.87476 515.70624 266.20288L515.34686 267.18726Q514.95624 266.95288 514.58124 266.95288Q514.22186 266.95288 513.9406 267.17163Q513.675 267.37476 513.5656 267.74976Q513.3781 268.31226 513.3781 268.9685L513.3781 272.23413L512.33124 272.23413ZM515.95624 269.12476Q515.95624 267.39038 516.90936 266.56226Q517.70624 265.87476 518.8625 265.87476Q520.14374 265.87476 520.95624 266.7185Q521.78436 267.54663 521.78436 269.031Q521.78436 270.23413 521.425 270.92163Q521.0656 271.60913 520.3625 271.99976Q519.675 272.37476 518.8625 272.37476Q517.5656 272.37476 516.7531 271.54663Q515.95624 270.70288 515.95624 269.12476ZM517.03436 269.12476Q517.03436 270.31226 517.55 270.906Q518.08124 271.49976 518.8625 271.49976Q519.65936 271.49976 520.175 270.906Q520.6906 270.31226 520.6906 269.0935Q520.6906 267.93726 520.15936 267.3435Q519.64374 266.74976 518.8625 266.74976Q518.08124 266.74976 517.55 267.3435Q517.03436 267.92163 517.03436 269.12476ZM523.34686 274.62476L523.34686 266.01538L524.3 266.01538L524.3 266.81226Q524.64374 266.3435 525.0656 266.10913Q525.5031 265.87476 526.1125 265.87476Q526.90936 265.87476 527.51874 266.281Q528.1281 266.68726 528.425 267.43726Q528.7375 268.18726 528.7375 269.07788Q528.7375 270.031 528.39374 270.79663Q528.0656 271.56226 527.40936 271.9685Q526.7531 272.37476 526.03436 272.37476Q525.5031 272.37476 525.08124 272.156Q524.65936 271.92163 524.39374 271.5935L524.39374 274.62476L523.34686 274.62476ZM524.3 269.156Q524.3 270.35913 524.78436 270.93726Q525.26874 271.49976 525.95624 271.49976Q526.65936 271.49976 527.15936 270.906Q527.65936 270.31226 527.65936 269.06226Q527.65936 267.87476 527.175 267.29663Q526.6906 266.70288 526.0031 266.70288Q525.33124 266.70288 524.8156 267.32788Q524.3 267.95288 524.3 269.156ZM530.33124 272.23413L530.33124 266.01538L531.28436 266.01538L531.28436 266.95288Q531.64374 266.29663 531.9406 266.0935Q532.2531 265.87476 532.6281 265.87476Q533.15936 265.87476 533.70624 266.20288L533.34686 267.18726Q532.95624 266.95288 532.58124 266.95288Q532.22186 266.95288 531.9406 267.17163Q531.675 267.37476 531.5656 267.74976Q531.3781 268.31226 531.3781 268.9685L531.3781 272.23413L530.33124 272.23413ZM534.34686 264.85913L534.34686 263.64038L535.40936 263.64038L535.40936 264.85913L534.34686 264.85913ZM534.34686 272.23413L534.34686 266.01538L535.40936 266.01538L535.40936 272.23413L534.34686 272.23413ZM541.59686 270.23413L542.6906 270.35913Q542.4406 271.31226 541.7375 271.8435Q541.03436 272.37476 539.95624 272.37476Q538.59686 272.37476 537.78436 271.531Q536.9875 270.68726 536.9875 269.17163Q536.9875 267.60913 537.8 266.74976Q538.6125 265.87476 539.89374 265.87476Q541.14374 265.87476 541.925 266.7185Q542.72186 267.56226 542.72186 269.10913Q542.72186 269.20288 542.72186 269.39038L538.08124 269.39038Q538.14374 270.42163 538.65936 270.9685Q539.175 271.49976 539.95624 271.49976Q540.53436 271.49976 540.9406 271.20288Q541.3625 270.89038 541.59686 270.23413ZM538.14374 268.531L541.6125 268.531Q541.55 267.73413 541.22186 267.3435Q540.70624 266.73413 539.90936 266.73413Q539.175 266.73413 538.675 267.2185Q538.1906 267.70288 538.14374 268.531ZM539.26874 265.23413L540.05 263.5935L541.4406 263.5935L540.14374 265.23413L539.26874 265.23413ZM546.64374 271.29663L546.8 272.2185Q546.34686 272.31226 546.0031 272.31226Q545.425 272.31226 545.1125 272.14038Q544.8 271.95288 544.65936 271.656Q544.53436 271.35913 544.53436 270.406L544.53436 266.82788L543.76874 266.82788L543.76874 266.01538L544.53436 266.01538L544.53436 264.4685L545.58124 263.8435L545.58124 266.01538L546.64374 266.01538L546.64374 266.82788L545.58124 266.82788L545.58124 270.4685Q545.58124 270.92163 545.6281 271.04663Q545.6906 271.17163 545.8156 271.24976Q545.9406 271.32788 546.175 271.32788Q546.3625 271.32788 546.64374 271.29663ZM551.40936 271.4685Q550.8156 271.9685 550.26874 272.17163Q549.7375 272.37476 549.1125 272.37476Q548.08124 272.37476 547.53436 271.87476Q546.9875 271.37476 546.9875 270.5935Q546.9875 270.14038 547.1906 269.76538Q547.39374 269.37476 547.7375 269.156Q548.08124 268.92163 548.5031 268.81226Q548.8 268.7185 549.4406 268.64038Q550.70624 268.49976 551.3156 268.281Q551.3156 268.06226 551.3156 268.01538Q551.3156 267.35913 551.01874 267.0935Q550.6125 266.74976 549.8156 266.74976Q549.08124 266.74976 548.72186 267.01538Q548.3625 267.26538 548.1906 267.92163L547.15936 267.781Q547.3 267.12476 547.6281 266.7185Q547.95624 266.31226 548.5656 266.0935Q549.175 265.87476 549.97186 265.87476Q550.76874 265.87476 551.26874 266.06226Q551.76874 266.24976 552.0031 266.531Q552.2375 266.81226 552.33124 267.24976Q552.3781 267.51538 552.3781 268.2185L552.3781 269.62476Q552.3781 271.0935 552.4406 271.48413Q552.51874 271.87476 552.72186 272.23413L551.6125 272.23413Q551.45624 271.906 551.40936 271.4685ZM551.3156 269.10913Q550.7375 269.3435 549.59686 269.51538Q548.9406 269.60913 548.675 269.73413Q548.40936 269.8435 548.2531 270.06226Q548.1125 270.281 548.1125 270.56226Q548.1125 270.98413 548.425 271.26538Q548.7531 271.54663 549.3625 271.54663Q549.97186 271.54663 550.4406 271.281Q550.925 271.01538 551.14374 270.54663Q551.3156 270.18726 551.3156 269.49976L551.3156 269.10913ZM554.34686 264.85913L554.34686 263.64038L555.40936 263.64038L555.40936 264.85913L554.34686 264.85913ZM554.34686 272.23413L554.34686 266.01538L555.40936 266.01538L555.40936 272.23413L554.34686 272.23413ZM557.33124 272.23413L557.33124 266.01538L558.28436 266.01538L558.28436 266.95288Q558.64374 266.29663 558.9406 266.0935Q559.2531 265.87476 559.6281 265.87476Q560.15936 265.87476 560.70624 266.20288L560.34686 267.18726Q559.95624 266.95288 559.58124 266.95288Q559.22186 266.95288 558.9406 267.17163Q558.675 267.37476 558.5656 267.74976Q558.3781 268.31226 558.3781 268.9685L558.3781 272.23413L557.33124 272.23413ZM565.59686 270.23413L566.6906 270.35913Q566.4406 271.31226 565.7375 271.8435Q565.03436 272.37476 563.95624 272.37476Q562.59686 272.37476 561.78436 271.531Q560.9875 270.68726 560.9875 269.17163Q560.9875 267.60913 561.8 266.74976Q562.6125 265.87476 563.89374 265.87476Q565.14374 265.87476 565.925 266.7185Q566.72186 267.56226 566.72186 269.10913Q566.72186 269.20288 566.72186 269.39038L562.08124 269.39038Q562.14374 270.42163 562.65936 270.9685Q563.175 271.49976 563.95624 271.49976Q564.53436 271.49976 564.9406 271.20288Q565.3625 270.89038 565.59686 270.23413ZM562.14374 268.531L565.6125 268.531Q565.55 267.73413 565.22186 267.3435Q564.70624 266.73413 563.90936 266.73413Q563.175 266.73413 562.675 267.2185Q562.1906 267.70288 562.14374 268.531ZM567.925 270.37476L568.95624 270.2185Q569.05 270.8435 569.4406 271.17163Q569.84686 271.49976 570.58124 271.49976Q571.3 271.49976 571.64374 271.2185Q572.0031 270.92163 572.0031 270.51538Q572.0031 270.156 571.6906 269.95288Q571.47186 269.81226 570.6125 269.5935Q569.45624 269.29663 569.0031 269.0935Q568.5656 268.87476 568.33124 268.49976Q568.09686 268.12476 568.09686 267.656Q568.09686 267.24976 568.28436 266.89038Q568.47186 266.531 568.8 266.29663Q569.05 266.12476 569.47186 265.99976Q569.89374 265.87476 570.39374 265.87476Q571.1125 265.87476 571.65936 266.0935Q572.22186 266.29663 572.4875 266.656Q572.7531 267.01538 572.84686 267.60913L571.8156 267.74976Q571.7531 267.281 571.40936 267.01538Q571.08124 266.73413 570.45624 266.73413Q569.7375 266.73413 569.425 266.98413Q569.1125 267.2185 569.1125 267.54663Q569.1125 267.74976 569.2375 267.906Q569.3781 268.07788 569.64374 268.18726Q569.8 268.24976 570.58124 268.45288Q571.70624 268.76538 572.14374 268.95288Q572.58124 269.14038 572.83124 269.49976Q573.08124 269.85913 573.08124 270.406Q573.08124 270.93726 572.76874 271.406Q572.47186 271.85913 571.89374 272.12476Q571.3156 272.37476 570.58124 272.37476Q569.3625 272.37476 568.72186 271.87476Q568.09686 271.35913 567.925 270.37476ZM578.1281 268.04663Q578.1281 265.906 579.26874 264.70288Q580.425 263.48413 582.2375 263.48413Q583.4406 263.48413 584.39374 264.06226Q585.34686 264.62476 585.84686 265.64038Q586.34686 266.656 586.34686 267.95288Q586.34686 269.24976 585.8156 270.281Q585.28436 271.31226 584.3156 271.8435Q583.3625 272.37476 582.2375 272.37476Q581.01874 272.37476 580.0656 271.79663Q579.1125 271.20288 578.6125 270.20288Q578.1281 269.18726 578.1281 268.04663ZM579.3 268.06226Q579.3 269.62476 580.1281 270.51538Q580.97186 271.406 582.2375 271.406Q583.51874 271.406 584.34686 270.51538Q585.175 269.60913 585.175 267.93726Q585.175 266.89038 584.8156 266.10913Q584.47186 265.32788 583.78436 264.906Q583.09686 264.4685 582.2531 264.4685Q581.05 264.4685 580.175 265.29663Q579.3 266.12476 579.3 268.06226ZM591.40936 269.95288L592.4406 270.0935Q592.26874 271.156 591.5656 271.76538Q590.8625 272.37476 589.84686 272.37476Q588.5656 272.37476 587.78436 271.54663Q587.01874 270.70288 587.01874 269.14038Q587.01874 268.14038 587.34686 267.39038Q587.6906 266.62476 588.3625 266.24976Q589.05 265.87476 589.8625 265.87476Q590.8625 265.87476 591.5031 266.39038Q592.15936 266.89038 592.34686 267.8435L591.3156 267.99976Q591.175 267.37476 590.8 267.06226Q590.425 266.73413 589.89374 266.73413Q589.09686 266.73413 588.59686 267.31226Q588.09686 267.87476 588.09686 269.10913Q588.09686 270.37476 588.58124 270.93726Q589.0656 271.49976 589.83124 271.49976Q590.45624 271.49976 590.8625 271.12476Q591.28436 270.74976 591.40936 269.95288ZM597.40936 269.95288L598.4406 270.0935Q598.26874 271.156 597.5656 271.76538Q596.8625 272.37476 595.84686 272.37476Q594.5656 272.37476 593.78436 271.54663Q593.01874 270.70288 593.01874 269.14038Q593.01874 268.14038 593.34686 267.39038Q593.6906 266.62476 594.3625 266.24976Q595.05 265.87476 595.8625 265.87476Q596.8625 265.87476 597.5031 266.39038Q598.15936 266.89038 598.34686 267.8435L597.3156 267.99976Q597.175 267.37476 596.8 267.06226Q596.425 266.73413 595.89374 266.73413Q595.09686 266.73413 594.59686 267.31226Q594.09686 267.87476 594.09686 269.10913Q594.09686 270.37476 594.58124 270.93726Q595.0656 271.49976 595.83124 271.49976Q596.45624 271.49976 596.8625 271.12476Q597.28436 270.74976 597.40936 269.95288ZM603.425 272.23413L603.425 271.31226Q602.6906 272.37476 601.4406 272.37476Q600.89374 272.37476 600.40936 272.17163Q599.9406 271.95288 599.70624 271.64038Q599.47186 271.31226 599.3781 270.8435Q599.3156 270.54663 599.3156 269.85913L599.3156 266.01538L600.3781 266.01538L600.3781 269.4685Q600.3781 270.281 600.4406 270.57788Q600.53436 270.98413 600.84686 271.23413Q601.175 271.4685 601.65936 271.4685Q602.1281 271.4685 602.53436 271.23413Q602.95624 270.98413 603.1281 270.56226Q603.3156 270.14038 603.3156 269.3435L603.3156 266.01538L604.3625 266.01538L604.3625 272.23413L603.425 272.23413ZM606.34686 274.62476L606.34686 266.01538L607.3 266.01538L607.3 266.81226Q607.64374 266.3435 608.0656 266.10913Q608.5031 265.87476 609.1125 265.87476Q609.90936 265.87476 610.51874 266.281Q611.1281 266.68726 611.425 267.43726Q611.7375 268.18726 611.7375 269.07788Q611.7375 270.031 611.39374 270.79663Q611.0656 271.56226 610.40936 271.9685Q609.7531 272.37476 609.03436 272.37476Q608.5031 272.37476 608.08124 272.156Q607.65936 271.92163 607.39374 271.5935L607.39374 274.62476L606.34686 274.62476ZM607.3 269.156Q607.3 270.35913 607.78436 270.93726Q608.26874 271.49976 608.95624 271.49976Q609.65936 271.49976 610.15936 270.906Q610.65936 270.31226 610.65936 269.06226Q610.65936 267.87476 610.175 267.29663Q609.6906 266.70288 609.0031 266.70288Q608.33124 266.70288 607.8156 267.32788Q607.3 267.95288 607.3 269.156ZM617.40936 271.4685Q616.8156 271.9685 616.26874 272.17163Q615.7375 272.37476 615.1125 272.37476Q614.08124 272.37476 613.53436 271.87476Q612.9875 271.37476 612.9875 270.5935Q612.9875 270.14038 613.1906 269.76538Q613.39374 269.37476 613.7375 269.156Q614.08124 268.92163 614.5031 268.81226Q614.8 268.7185 615.4406 268.64038Q616.70624 268.49976 617.3156 268.281Q617.3156 268.06226 617.3156 268.01538Q617.3156 267.35913 617.01874 267.0935Q616.6125 266.74976 615.8156 266.74976Q615.08124 266.74976 614.72186 267.01538Q614.3625 267.26538 614.1906 267.92163L613.15936 267.781Q613.3 267.12476 613.6281 266.7185Q613.95624 266.31226 614.5656 266.0935Q615.175 265.87476 615.97186 265.87476Q616.76874 265.87476 617.26874 266.06226Q617.76874 266.24976 618.0031 266.531Q618.2375 266.81226 618.33124 267.24976Q618.3781 267.51538 618.3781 268.2185L618.3781 269.62476Q618.3781 271.0935 618.4406 271.48413Q618.51874 271.87476 618.72186 272.23413L617.6125 272.23413Q617.45624 271.906 617.40936 271.4685ZM617.3156 269.10913Q616.7375 269.3435 615.59686 269.51538Q614.9406 269.60913 614.675 269.73413Q614.40936 269.8435 614.2531 270.06226Q614.1125 270.281 614.1125 270.56226Q614.1125 270.98413 614.425 271.26538Q614.7531 271.54663 615.3625 271.54663Q615.97186 271.54663 616.4406 271.281Q616.925 271.01538 617.14374 270.54663Q617.3156 270.18726 617.3156 269.49976L617.3156 269.10913ZM620.34686 272.23413L620.34686 266.01538L621.28436 266.01538L621.28436 266.89038Q621.97186 265.87476 623.26874 265.87476Q623.83124 265.87476 624.3 266.07788Q624.78436 266.281 625.01874 266.60913Q625.2531 266.93726 625.34686 267.37476Q625.39374 267.67163 625.39374 268.406L625.39374 272.23413L624.34686 272.23413L624.34686 268.45288Q624.34686 267.79663 624.22186 267.48413Q624.09686 267.17163 623.78436 266.98413Q623.47186 266.781 623.05 266.781Q622.3781 266.781 621.8781 267.2185Q621.39374 267.64038 621.39374 268.82788L621.39374 272.23413L620.34686 272.23413ZM629.64374 271.29663L629.8 272.2185Q629.34686 272.31226 629.0031 272.31226Q628.425 272.31226 628.1125 272.14038Q627.8 271.95288 627.65936 271.656Q627.53436 271.35913 627.53436 270.406L627.53436 266.82788L626.76874 266.82788L626.76874 266.01538L627.53436 266.01538L627.53436 264.4685L628.58124 263.8435L628.58124 266.01538L629.64374 266.01538L629.64374 266.82788L628.58124 266.82788L628.58124 270.4685Q628.58124 270.92163 628.6281 271.04663Q628.6906 271.17163 628.8156 271.24976Q628.9406 271.32788 629.175 271.32788Q629.3625 271.32788 629.64374 271.29663ZM629.925 270.37476L630.95624 270.2185Q631.05 270.8435 631.4406 271.17163Q631.84686 271.49976 632.58124 271.49976Q633.3 271.49976 633.64374 271.2185Q634.0031 270.92163 634.0031 270.51538Q634.0031 270.156 633.6906 269.95288Q633.47186 269.81226 632.6125 269.5935Q631.45624 269.29663 631.0031 269.0935Q630.5656 268.87476 630.33124 268.49976Q630.09686 268.12476 630.09686 267.656Q630.09686 267.24976 630.28436 266.89038Q630.47186 266.531 630.8 266.29663Q631.05 266.12476 631.47186 265.99976Q631.89374 265.87476 632.39374 265.87476Q633.1125 265.87476 633.65936 266.0935Q634.22186 266.29663 634.4875 266.656Q634.7531 267.01538 634.84686 267.60913L633.8156 267.74976Q633.7531 267.281 633.40936 267.01538Q633.08124 266.73413 632.45624 266.73413Q631.7375 266.73413 631.425 266.98413Q631.1125 267.2185 631.1125 267.54663Q631.1125 267.74976 631.2375 267.906Q631.3781 268.07788 631.64374 268.18726Q631.8 268.24976 632.58124 268.45288Q633.70624 268.76538 634.14374 268.95288Q634.58124 269.14038 634.83124 269.49976Q635.08124 269.85913 635.08124 270.406Q635.08124 270.93726 634.76874 271.406Q634.47186 271.85913 633.89374 272.12476Q633.3156 272.37476 632.58124 272.37476Q631.3625 272.37476 630.72186 271.87476Q630.09686 271.35913 629.925 270.37476Z" fill-rule="nonzero"/><path fill="#9e9e9e" d="M603.675 284.57788Q603.01874 284.32788 602.6906 283.89038Q602.3781 283.43726 602.3781 282.82788Q602.3781 281.89038 603.05 281.24976Q603.7375 280.60913 604.84686 280.60913Q605.97186 280.60913 606.65936 281.26538Q607.34686 281.92163 607.34686 282.85913Q607.34686 283.45288 607.03436 283.89038Q606.72186 284.32788 606.08124 284.57788Q606.8781 284.82788 607.28436 285.406Q607.6906 285.98413 607.6906 286.781Q607.6906 287.87476 606.90936 288.62476Q606.14374 289.37476 604.8625 289.37476Q603.59686 289.37476 602.8156 288.62476Q602.03436 287.87476 602.03436 286.74976Q602.03436 285.906 602.45624 285.3435Q602.89374 284.781 603.675 284.57788ZM603.45624 282.781Q603.45624 283.39038 603.84686 283.781Q604.2531 284.17163 604.8781 284.17163Q605.4875 284.17163 605.8781 283.79663Q606.26874 283.406 606.26874 282.8435Q606.26874 282.26538 605.8625 281.87476Q605.45624 281.4685 604.8625 281.4685Q604.2531 281.4685 603.84686 281.85913Q603.45624 282.24976 603.45624 282.781ZM603.1281 286.74976Q603.1281 287.20288 603.33124 287.62476Q603.55 288.04663 603.97186 288.281Q604.39374 288.51538 604.8781 288.51538Q605.6281 288.51538 606.1125 288.031Q606.6125 287.54663 606.6125 286.79663Q606.6125 286.031 606.1125 285.531Q605.6125 285.031 604.84686 285.031Q604.09686 285.031 603.6125 285.531Q603.1281 286.01538 603.1281 286.74976ZM609.05 286.9685L610.1125 286.82788Q610.28436 287.7185 610.72186 288.12476Q611.15936 288.51538 611.78436 288.51538Q612.53436 288.51538 613.05 287.99976Q613.5656 287.48413 613.5656 286.7185Q613.5656 285.99976 613.08124 285.531Q612.6125 285.04663 611.8781 285.04663Q611.58124 285.04663 611.1281 285.17163L611.2531 284.23413Q611.3625 284.24976 611.425 284.24976Q612.09686 284.24976 612.6281 283.906Q613.175 283.54663 613.175 282.81226Q613.175 282.23413 612.78436 281.85913Q612.39374 281.4685 611.76874 281.4685Q611.15936 281.4685 610.7375 281.85913Q610.33124 282.24976 610.22186 283.01538L609.15936 282.82788Q609.34686 281.781 610.03436 281.20288Q610.72186 280.60913 611.7375 280.60913Q612.4406 280.60913 613.03436 280.92163Q613.6281 281.2185 613.9406 281.73413Q614.2531 282.24976 614.2531 282.8435Q614.2531 283.39038 613.95624 283.85913Q613.65936 284.31226 613.08124 284.57788Q613.83124 284.74976 614.2531 285.31226Q614.675 285.85913 614.675 286.70288Q614.675 287.82788 613.84686 288.60913Q613.03436 289.39038 611.78436 289.39038Q610.65936 289.39038 609.90936 288.7185Q609.15936 288.031 609.05 286.9685ZM616.6125 289.23413L616.6125 288.031L617.8156 288.031L617.8156 289.23413Q617.8156 289.89038 617.58124 290.29663Q617.34686 290.7185 616.84686 290.93726L616.55 290.48413Q616.8781 290.3435 617.03436 290.04663Q617.1906 289.76538 617.22186 289.23413L616.6125 289.23413ZM619.05 286.9685L620.1125 286.82788Q620.28436 287.7185 620.72186 288.12476Q621.15936 288.51538 621.78436 288.51538Q622.53436 288.51538 623.05 287.99976Q623.5656 287.48413 623.5656 286.7185Q623.5656 285.99976 623.08124 285.531Q622.6125 285.04663 621.8781 285.04663Q621.58124 285.04663 621.1281 285.17163L621.2531 284.23413Q621.3625 284.24976 621.425 284.24976Q622.09686 284.24976 622.6281 283.906Q623.175 283.54663 623.175 282.81226Q623.175 282.23413 622.78436 281.85913Q622.39374 281.4685 621.76874 281.4685Q621.15936 281.4685 620.7375 281.85913Q620.33124 282.24976 620.22186 283.01538L619.15936 282.82788Q619.34686 281.781 620.03436 281.20288Q620.72186 280.60913 621.7375 280.60913Q622.4406 280.60913 623.03436 280.92163Q623.6281 281.2185 623.9406 281.73413Q624.2531 282.24976 624.2531 282.8435Q624.2531 283.39038 623.95624 283.85913Q623.65936 284.31226 623.08124 284.57788Q623.83124 284.74976 624.2531 285.31226Q624.675 285.85913 624.675 286.70288Q624.675 287.82788 623.84686 288.60913Q623.03436 289.39038 621.78436 289.39038Q620.65936 289.39038 619.90936 288.7185Q619.15936 288.031 619.05 286.9685ZM626.2531 282.70288Q626.2531 281.781 626.70624 281.14038Q627.175 280.49976 628.05 280.49976Q628.8625 280.49976 629.39374 281.07788Q629.925 281.656 629.925 282.76538Q629.925 283.85913 629.3781 284.45288Q628.84686 285.031 628.0656 285.031Q627.28436 285.031 626.76874 284.45288Q626.2531 283.87476 626.2531 282.70288ZM628.08124 281.2185Q627.6906 281.2185 627.425 281.56226Q627.175 281.906 627.175 282.81226Q627.175 283.64038 627.425 283.98413Q627.6906 284.31226 628.08124 284.31226Q628.4875 284.31226 628.7375 283.9685Q629.0031 283.62476 629.0031 282.73413Q629.0031 281.89038 628.7375 281.56226Q628.47186 281.2185 628.08124 281.2185ZM628.08124 289.54663L632.78436 280.49976L633.64374 280.49976L628.95624 289.54663L628.08124 289.54663ZM631.8 287.2185Q631.8 286.29663 632.2531 285.656Q632.72186 285.01538 633.6125 285.01538Q634.425 285.01538 634.95624 285.5935Q635.4875 286.156 635.4875 287.281Q635.4875 288.37476 634.9406 288.9685Q634.40936 289.54663 633.6125 289.54663Q632.84686 289.54663 632.3156 288.9685Q631.8 288.39038 631.8 287.2185ZM633.64374 285.73413Q633.2375 285.73413 632.97186 286.07788Q632.72186 286.42163 632.72186 287.32788Q632.72186 288.14038 632.9875 288.48413Q633.2531 288.82788 633.64374 288.82788Q634.03436 288.82788 634.3 288.48413Q634.5656 288.14038 634.5656 287.23413Q634.5656 286.406 634.3 286.07788Q634.03436 285.73413 633.64374 285.73413Z" fill-rule="nonzero"/><path stroke="#757575" stroke-width="1.0" stroke-linecap="butt" d="M636.55 276.73413L481.4 276.73413L397.7525 276.73413" fill-rule="nonzero"/><path fill="#9e9e9e" d="M399.7525 276.73413C399.7525 275.62955 398.85706 274.73413 397.7525 274.73413C396.64792 274.73413 395.7525 275.62955 395.7525 276.73413C395.7525 277.83868 396.64792 278.73413 397.7525 278.73413C398.85706 278.73413 399.7525 277.83868 399.7525 276.73413" fill-rule="nonzero"/><path fill="#757575" d="M19.996876 37.45L19.996876 23.1375L25.3875 23.1375Q26.825 23.1375 27.575 23.2625Q28.621876 23.45 29.340626 23.95Q30.059376 24.434376 30.48125 25.325Q30.91875 26.215626 30.91875 27.278126Q30.91875 29.10625 29.746876 30.371876Q28.590626 31.621876 25.559376 31.621876L21.8875 31.621876L21.8875 37.45L19.996876 37.45ZM21.8875 29.934376L25.590626 29.934376Q27.41875 29.934376 28.184376 29.2625Q28.965626 28.575 28.965626 27.325Q28.965626 26.434376 28.5125 25.79375Q28.059376 25.153126 27.325 24.95Q26.840626 24.825 25.54375 24.825L21.8875 24.825L21.8875 29.934376ZM39.54375 36.16875Q38.559376 36.996876 37.653126 37.340626Q36.746876 37.684376 35.715626 37.684376Q34.0125 37.684376 33.090626 36.85625Q32.16875 36.0125 32.16875 34.715626Q32.16875 33.95 32.5125 33.325Q32.871876 32.7 33.434376 32.325Q33.996876 31.934376 34.7 31.73125Q35.215626 31.60625 36.2625 31.465626Q38.3875 31.215626 39.3875 30.871876Q39.403126 30.5125 39.403126 30.403126Q39.403126 29.340626 38.903126 28.8875Q38.23125 28.29375 36.903126 28.29375Q35.653126 28.29375 35.059376 28.73125Q34.48125 29.16875 34.2 30.278126L32.48125 30.04375Q32.715626 28.934376 33.246876 28.2625Q33.778126 27.575 34.79375 27.215626Q35.809376 26.840626 37.153126 26.840626Q38.48125 26.840626 39.309376 27.153126Q40.1375 27.465626 40.528126 27.95Q40.91875 28.41875 41.075 29.1375Q41.16875 29.590626 41.16875 30.7625L41.16875 33.10625Q41.16875 35.559376 41.278126 36.215626Q41.3875 36.85625 41.73125 37.45L39.8875 37.45Q39.621876 36.903126 39.54375 36.16875ZM39.3875 32.246876Q38.434376 32.6375 36.5125 32.903126Q35.434376 33.059376 34.98125 33.2625Q34.54375 33.45 34.29375 33.825Q34.04375 34.2 34.04375 34.66875Q34.04375 35.371876 34.575 35.840626Q35.10625 36.309376 36.1375 36.309376Q37.153126 36.309376 37.934376 35.871876Q38.73125 35.41875 39.10625 34.653126Q39.3875 34.04375 39.3875 32.8875L39.3875 32.246876ZM43.746876 37.45L43.746876 27.075L45.325 27.075L45.325 28.653126Q45.934376 27.54375 46.45 27.2Q46.965626 26.840626 47.575 26.840626Q48.465626 26.840626 49.3875 27.403126L48.778126 29.04375Q48.1375 28.653126 47.496876 28.653126Q46.91875 28.653126 46.45 29.0125Q45.996876 29.35625 45.79375 29.965626Q45.5125 30.903126 45.5125 32.0125L45.5125 37.45L43.746876 37.45ZM50.7625 37.45L50.7625 27.075L52.340626 27.075L52.340626 28.528126Q52.825 27.778126 53.6375 27.309376Q54.45 26.840626 55.48125 26.840626Q56.6375 26.840626 57.371876 27.325Q58.10625 27.79375 58.41875 28.653126Q59.653126 26.840626 61.621876 26.840626Q63.16875 26.840626 63.996876 27.7Q64.825 28.559376 64.825 30.325L64.825 37.45L63.075 37.45L63.075 30.91875Q63.075 29.85625 62.903126 29.403126Q62.73125 28.934376 62.278126 28.653126Q61.840626 28.371876 61.23125 28.371876Q60.1375 28.371876 59.403126 29.10625Q58.684376 29.825 58.684376 31.41875L58.684376 37.45L56.934376 37.45L56.934376 30.715626Q56.934376 29.54375 56.496876 28.965626Q56.075 28.371876 55.090626 28.371876Q54.35625 28.371876 53.715626 28.7625Q53.090626 29.153126 52.809376 29.903126Q52.528126 30.653126 52.528126 32.075L52.528126 37.45L50.7625 37.45ZM66.77812 25.153126L66.77812 23.1375L68.54375 23.1375L68.54375 25.153126L66.77812 25.153126ZM66.77812 37.45L66.77812 27.075L68.54375 27.075L68.54375 37.45L66.77812 37.45ZM76.73125 37.45L76.73125 23.1375L78.48125 23.1375L78.48125 37.45L76.73125 37.45ZM87.87187 34.10625L89.68437 34.340626Q89.2625 35.91875 88.09062 36.809376Q86.93437 37.684376 85.12187 37.684376Q82.85625 37.684376 81.5125 36.29375Q80.18437 34.8875 80.18437 32.35625Q80.18437 29.73125 81.52812 28.29375Q82.87187 26.840626 85.02812 26.840626Q87.10625 26.840626 88.41875 28.2625Q89.74687 29.66875 89.74687 32.246876Q89.74687 32.403126 89.73125 32.715626L81.99687 32.715626Q82.09062 34.41875 82.96562 35.325Q83.84062 36.23125 85.1375 36.23125Q86.10625 36.23125 86.77812 35.73125Q87.46562 35.215626 87.87187 34.10625ZM82.09062 31.2625L87.8875 31.2625Q87.77812 29.965626 87.23125 29.309376Q86.3875 28.29375 85.04375 28.29375Q83.84062 28.29375 83.0125 29.10625Q82.18437 29.903126 82.09062 31.2625ZM91.05937 34.35625L92.80937 34.075Q92.95 35.121876 93.62187 35.684376Q94.29375 36.23125 95.49687 36.23125Q96.7 36.23125 97.27812 35.746876Q97.87187 35.246876 97.87187 34.590626Q97.87187 33.996876 97.35625 33.653126Q96.99687 33.41875 95.55937 33.059376Q93.62187 32.559376 92.87187 32.215626Q92.1375 31.85625 91.74687 31.23125Q91.35625 30.590626 91.35625 29.825Q91.35625 29.1375 91.66875 28.54375Q91.99687 27.95 92.54375 27.559376Q92.95 27.2625 93.65312 27.059376Q94.37187 26.840626 95.18437 26.840626Q96.40312 26.840626 97.325 27.2Q98.24687 27.54375 98.68437 28.153126Q99.12187 28.746876 99.29375 29.746876L97.575 29.98125Q97.45 29.184376 96.8875 28.746876Q96.325 28.29375 95.30937 28.29375Q94.09062 28.29375 93.575 28.7Q93.05937 29.090626 93.05937 29.621876Q93.05937 29.965626 93.27812 30.246876Q93.48125 30.528126 93.95 30.715626Q94.21562 30.809376 95.49687 31.153126Q97.37187 31.653126 98.10625 31.98125Q98.84062 32.29375 99.2625 32.903126Q99.68437 33.496876 99.68437 34.403126Q99.68437 35.278126 99.16875 36.059376Q98.65312 36.840626 97.68437 37.2625Q96.71562 37.684376 95.49687 37.684376Q93.48125 37.684376 92.41875 36.840626Q91.35625 35.996876 91.05937 34.35625ZM116.5125 35.7625L116.5125 37.45L107.05937 37.45Q107.04375 36.809376 107.2625 36.23125Q107.62187 35.2625 108.41875 34.325Q109.21562 33.3875 110.71562 32.153126Q113.05937 30.246876 113.87187 29.1375Q114.7 28.0125 114.7 27.0125Q114.7 25.965626 113.95 25.246876Q113.2 24.528126 111.99687 24.528126Q110.73125 24.528126 109.96562 25.29375Q109.2 26.059376 109.2 27.403126L107.3875 27.215626Q107.575 25.2 108.77812 24.1375Q109.99687 23.075 112.04375 23.075Q114.09062 23.075 115.29375 24.215626Q116.49687 25.35625 116.49687 27.04375Q116.49687 27.903126 116.1375 28.746876Q115.79375 29.575 114.98125 30.496876Q114.16875 31.403126 112.27812 33.0125Q110.68437 34.340626 110.23125 34.809376Q109.79375 35.278126 109.49687 35.7625L116.5125 35.7625ZM123.91875 37.45L123.91875 34.028126L117.7 34.028126L117.7 32.403126L124.23125 23.1375L125.66875 23.1375L125.66875 32.403126L127.60625 32.403126L127.60625 34.028126L125.66875 34.028126L125.66875 37.45L123.91875 37.45ZM123.91875 32.403126L123.91875 25.95L119.43437 32.403126L123.91875 32.403126ZM135.7625 37.45L135.7625 23.1375L137.52812 23.1375L137.52812 28.2625Q138.7625 26.840626 140.6375 26.840626Q141.77812 26.840626 142.62187 27.29375Q143.48125 27.746876 143.84062 28.559376Q144.21562 29.35625 144.21562 30.871876L144.21562 37.45L142.46562 37.45L142.46562 30.871876Q142.46562 29.559376 141.8875 28.965626Q141.30937 28.35625 140.27812 28.35625Q139.49687 28.35625 138.79375 28.7625Q138.10625 29.16875 137.80937 29.871876Q137.52812 30.559376 137.52812 31.778126L137.52812 37.45L135.7625 37.45ZM152.54375 36.16875Q151.55937 36.996876 150.65312 37.340626Q149.74687 37.684376 148.71562 37.684376Q147.0125 37.684376 146.09062 36.85625Q145.16875 36.0125 145.16875 34.715626Q145.16875 33.95 145.5125 33.325Q145.87187 32.7 146.43437 32.325Q146.99687 31.934376 147.7 31.73125Q148.21562 31.60625 149.2625 31.465626Q151.3875 31.215626 152.3875 30.871876Q152.40312 30.5125 152.40312 30.403126Q152.40312 29.340626 151.90312 28.8875Q151.23125 28.29375 149.90312 28.29375Q148.65312 28.29375 148.05937 28.73125Q147.48125 29.16875 147.2 30.278126L145.48125 30.04375Q145.71562 28.934376 146.24687 28.2625Q146.77812 27.575 147.79375 27.215626Q148.80937 26.840626 150.15312 26.840626Q151.48125 26.840626 152.30937 27.153126Q153.1375 27.465626 153.52812 27.95Q153.91875 28.41875 154.075 29.1375Q154.16875 29.590626 154.16875 30.7625L154.16875 33.10625Q154.16875 35.559376 154.27812 36.215626Q154.3875 36.85625 154.73125 37.45L152.8875 37.45Q152.62187 36.903126 152.54375 36.16875ZM152.3875 32.246876Q151.43437 32.6375 149.5125 32.903126Q148.43437 33.059376 147.98125 33.2625Q147.54375 33.45 147.29375 33.825Q147.04375 34.2 147.04375 34.66875Q147.04375 35.371876 147.575 35.840626Q148.10625 36.309376 149.1375 36.309376Q150.15312 36.309376 150.93437 35.871876Q151.73125 35.41875 152.10625 34.653126Q152.3875 34.04375 152.3875 32.8875L152.3875 32.246876ZM158.3875 37.45L156.7625 37.45L156.7625 23.1375L158.5125 23.1375L158.5125 28.246876Q159.6375 26.840626 161.35625 26.840626Q162.30937 26.840626 163.16875 27.23125Q164.02812 27.621876 164.575 28.325Q165.12187 29.0125 165.43437 29.996876Q165.74687 30.98125 165.74687 32.10625Q165.74687 34.778126 164.43437 36.23125Q163.12187 37.684376 161.27812 37.684376Q159.43437 37.684376 158.3875 36.153126L158.3875 37.45ZM158.37187 32.184376Q158.37187 34.04375 158.87187 34.8875Q159.71562 36.23125 161.12187 36.23125Q162.27812 36.23125 163.10625 35.23125Q163.95 34.23125 163.95 32.246876Q163.95 30.215626 163.1375 29.2625Q162.34062 28.29375 161.2 28.29375Q160.04375 28.29375 159.2 29.29375Q158.37187 30.29375 158.37187 32.184376ZM167.77812 25.153126L167.77812 23.1375L169.54375 23.1375L169.54375 25.153126L167.77812 25.153126ZM167.77812 37.45L167.77812 27.075L169.54375 27.075L169.54375 37.45L167.77812 37.45ZM175.60625 35.871876L175.85625 37.434376Q175.12187 37.590626 174.52812 37.590626Q173.575 37.590626 173.04375 37.29375Q172.52812 36.98125 172.30937 36.496876Q172.09062 35.996876 172.09062 34.41875L172.09062 28.45L170.80937 28.45L170.80937 27.075L172.09062 27.075L172.09062 24.5125L173.84062 23.45L173.84062 27.075L175.60625 27.075L175.60625 28.45L173.84062 28.45L173.84062 34.5125Q173.84062 35.2625 173.93437 35.48125Q174.02812 35.684376 174.23125 35.825Q174.45 35.95 174.84062 35.95Q175.12187 35.95 175.60625 35.871876ZM184.54375 36.16875Q183.55937 36.996876 182.65312 37.340626Q181.74687 37.684376 180.71562 37.684376Q179.0125 37.684376 178.09062 36.85625Q177.16875 36.0125 177.16875 34.715626Q177.16875 33.95 177.5125 33.325Q177.87187 32.7 178.43437 32.325Q178.99687 31.934376 179.7 31.73125Q180.21562 31.60625 181.2625 31.465626Q183.3875 31.215626 184.3875 30.871876Q184.40312 30.5125 184.40312 30.403126Q184.40312 29.340626 183.90312 28.8875Q183.23125 28.29375 181.90312 28.29375Q180.65312 28.29375 180.05937 28.73125Q179.48125 29.16875 179.2 30.278126L177.48125 30.04375Q177.71562 28.934376 178.24687 28.2625Q178.77812 27.575 179.79375 27.215626Q180.80937 26.840626 182.15312 26.840626Q183.48125 26.840626 184.30937 27.153126Q185.1375 27.465626 185.52812 27.95Q185.91875 28.41875 186.075 29.1375Q186.16875 29.590626 186.16875 30.7625L186.16875 33.10625Q186.16875 35.559376 186.27812 36.215626Q186.3875 36.85625 186.73125 37.45L184.8875 37.45Q184.62187 36.903126 184.54375 36.16875ZM184.3875 32.246876Q183.43437 32.6375 181.5125 32.903126Q180.43437 33.059376 179.98125 33.2625Q179.54375 33.45 179.29375 33.825Q179.04375 34.2 179.04375 34.66875Q179.04375 35.371876 179.575 35.840626Q180.10625 36.309376 181.1375 36.309376Q182.15312 36.309376 182.93437 35.871876Q183.73125 35.41875 184.10625 34.653126Q184.3875 34.04375 184.3875 32.8875L184.3875 32.246876ZM192.60625 35.871876L192.85625 37.434376Q192.12187 37.590626 191.52812 37.590626Q190.575 37.590626 190.04375 37.29375Q189.52812 36.98125 189.30937 36.496876Q189.09062 35.996876 189.09062 34.41875L189.09062 28.45L187.80937 28.45L187.80937 27.075L189.09062 27.075L189.09062 24.5125L190.84062 23.45L190.84062 27.075L192.60625 27.075L192.60625 28.45L190.84062 28.45L190.84062 34.5125Q190.84062 35.2625 190.93437 35.48125Q191.02812 35.684376 191.23125 35.825Q191.45 35.95 191.84062 35.95Q192.12187 35.95 192.60625 35.871876ZM194.77812 25.153126L194.77812 23.1375L196.54375 23.1375L196.54375 25.153126L194.77812 25.153126ZM194.77812 37.45L194.77812 27.075L196.54375 27.075L196.54375 37.45L194.77812 37.45ZM198.12187 32.2625Q198.12187 29.3875 199.71562 27.996876Q201.05937 26.840626 202.98125 26.840626Q205.12187 26.840626 206.46562 28.246876Q207.825 29.653126 207.825 32.121876Q207.825 34.121876 207.23125 35.278126Q206.6375 36.41875 205.48125 37.059376Q204.34062 37.684376 202.98125 37.684376Q200.79375 37.684376 199.45 36.29375Q198.12187 34.8875 198.12187 32.2625ZM199.91875 32.2625Q199.91875 34.2625 200.77812 35.246876Q201.65312 36.23125 202.98125 36.23125Q204.29375 36.23125 205.15312 35.246876Q206.02812 34.246876 206.02812 32.2Q206.02812 30.278126 205.15312 29.29375Q204.27812 28.29375 202.98125 28.29375Q201.65312 28.29375 200.77812 29.29375Q199.91875 30.278126 199.91875 32.2625ZM209.7625 37.45L209.7625 27.075L211.35625 27.075L211.35625 28.559376Q212.49687 26.840626 214.65312 26.840626Q215.59062 26.840626 216.37187 27.184376Q217.16875 27.5125 217.55937 28.059376Q217.95 28.60625 218.10625 29.35625Q218.2 29.85625 218.2 31.075L218.2 37.45L216.43437 37.45L216.43437 31.1375Q216.43437 30.059376 216.23125 29.528126Q216.02812 28.996876 215.49687 28.684376Q214.98125 28.371876 214.27812 28.371876Q213.15312 28.371876 212.34062 29.090626Q211.52812 29.79375 211.52812 31.778126L211.52812 37.45L209.7625 37.45ZM219.05937 34.35625L220.80937 34.075Q220.95 35.121876 221.62187 35.684376Q222.29375 36.23125 223.49687 36.23125Q224.7 36.23125 225.27812 35.746876Q225.87187 35.246876 225.87187 34.590626Q225.87187 33.996876 225.35625 33.653126Q224.99687 33.41875 223.55937 33.059376Q221.62187 32.559376 220.87187 32.215626Q220.1375 31.85625 219.74687 31.23125Q219.35625 30.590626 219.35625 29.825Q219.35625 29.1375 219.66875 28.54375Q219.99687 27.95 220.54375 27.559376Q220.95 27.2625 221.65312 27.059376Q222.37187 26.840626 223.18437 26.840626Q224.40312 26.840626 225.325 27.2Q226.24687 27.54375 226.68437 28.153126Q227.12187 28.746876 227.29375 29.746876L225.575 29.98125Q225.45 29.184376 224.8875 28.746876Q224.325 28.29375 223.30937 28.29375Q222.09062 28.29375 221.575 28.7Q221.05937 29.090626 221.05937 29.621876Q221.05937 29.965626 221.27812 30.246876Q221.48125 30.528126 221.95 30.715626Q222.21562 30.809376 223.49687 31.153126Q225.37187 31.653126 226.10625 31.98125Q226.84062 32.29375 227.2625 32.903126Q227.68437 33.496876 227.68437 34.403126Q227.68437 35.278126 227.16875 36.059376Q226.65312 36.840626 225.68437 37.2625Q224.71562 37.684376 223.49687 37.684376Q221.48125 37.684376 220.41875 36.840626Q219.35625 35.996876 219.05937 34.35625Z" fill-rule="nonzero"/></svg>