<svg width="145" height="100" xmlns="http://www.w3.org/2000/svg">
 <style type="text/css">.st0{fill:#FFFFFF;}
	.st1{enable-background:new    ;}</style>

 <g>
  <title>background</title>
  <rect fill="none" id="canvas_background" height="602" width="802" y="-1" x="-1"/>
 </g>
 <g>
  <title>Layer 1</title>
  <path id="svg_1" d="m47.1,40.6l-8.4,37.7c-0.4,1.9 1.1,3.7 3,3.7c1.4,0 2.7,-1.1 3,-2.4l1.1,-5.2c0.2,-1.1 1.2,-1.8 2.2,-1.8l4.8,0c1.1,0 2,0.8 2.2,1.8l1.1,5.2c0.3,1.4 1.5,2.4 3,2.4c1.9,0 3.4,-1.8 3,-3.7l-8.4,-37.7c-0.3,-1.5 -1.6,-2.6 -3.2,-2.6c-1.6,0 -3,1.1 -3.4,2.6l0,0zm5.8,23c0.3,1.6 -1,3.1 -2.5,3.1c-1.6,0 -2.9,-1.4 -2.5,-3.1l2.2,-11.4c0.1,-0.3 0.6,-0.3 0.6,0l2.2,11.4zm45.7,-6c0.8,-1.8 1.2,-4.1 1.2,-6.7c0,-8.6 -3.7,-12.9 -11.1,-12.9l-6.4,0c-2,0 -3.8,1.6 -3.8,3.8l0,37.2c0,1.7 1.4,3.2 3.2,3.2s3.2,-1.4 3.2,-3.2l0,-13.6c0,-1.2 1,-2.2 2.2,-2.2c1,0 1.8,0.6 2.1,1.5l4.7,15.1c0.4,1.4 1.6,2.2 3,2.2c2.1,0 3.7,-2.1 3,-4.1l-5.6,-15.9c2.1,-1.1 3.5,-2.5 4.3,-4.4zm-5.2,-3.8c-0.1,0.9 -0.4,1.5 -0.7,2.1c-0.4,0.6 -0.9,1.1 -1.5,1.4s-1.5,0.5 -2.7,0.5l-0.7,0c-1.5,0 -2.9,-1.3 -2.9,-2.9l0,-8c0,-1.5 1.3,-2.9 2.9,-2.9l0.4,0c2.2,0 3.7,0.6 4.4,1.7c0.4,0.6 0.6,1.4 0.8,2.2c0.1,0.9 0.2,1.8 0.2,2.9c-0.1,1.1 -0.1,2.2 -0.2,3z" class="st0"/>
  <path id="svg_2" d="m123.7,39.6c0,-1 -0.4,-2 -1,-2.8l-21,-25.9c-2.5,-3.1 -6.4,-4.9 -10.5,-4.9l-36.8,0c-4.7,0 -9.2,2.1 -12.2,5.8l-17.8,22.1c-2.1,2.7 -3.4,6 -3.4,9.5l0,35.5c0,1.7 1.4,3.2 3.2,3.2c1.7,0 3.2,-1.4 3.2,-3.2l0,-12.9c0,-1.4 1.3,-2.7 2.7,-2.7l5.2,0c1.6,0 3,-1.4 3,-3s-1.4,-3 -3,-3l-5.2,0c-1.4,0 -2.7,-1.3 -2.7,-2.7l0,-7.9c0,-1.4 1.3,-2.7 2.7,-2.7l6.9,0c1.6,0 3,-1.4 3,-3s-1.4,-3 -3,-3l-6.8,0c-1,0 -1.5,-1.2 -0.9,-1.9l14.7,-18.2c1.4,-1.7 4.1,-1.7 5.4,0l14,17.4c1.9,2.4 3,5.4 3,8.4l0,0.1c0,1.7 1.4,3.2 3.2,3.2s3.2,-1.4 3.2,-3.2l0,-0.1c0,-3.7 -1.3,-7.2 -3.6,-10l-15.5,-18.5c-1.2,-1.4 -0.2,-3.6 1.6,-3.6l36.3,0c2,0 4,0.9 5.2,2.5l18.2,22.2c0.6,0.7 0.1,1.8 -0.9,1.8l-5.3,0c-2.2,0 -4.1,1.8 -4.1,4.1l0,36c0,2.2 1.8,4.1 4.1,4.1l11.7,0c1.7,0 3.2,-1.4 3.2,-3.2s-1.4,-3.2 -3.2,-3.2l-7.1,0c-1.3,0 -2.2,-1 -2.2,-2.2l0,-8.5c0,-1.3 1,-2.2 2.2,-2.2l5.7,0c1.6,0 3,-1.4 3,-3s-1.4,-3 -3,-3l-5.7,0c-1.3,0 -2.2,-1 -2.2,-2.2l0,-8.5c0,-1.3 1,-2.2 2.2,-2.2l5.9,0c2.4,-0.1 4.4,-2.1 4.4,-4.5z" class="st0"/>
  <path id="svg_3" d="m69.2,80.1c1.7,0 3.2,-1.4 3.2,-3.2l0,-22.4c0,-1.7 -1.4,-3.2 -3.2,-3.2s-3.2,1.4 -3.2,3.2l0,22.5c0.2,1.7 1.5,3.1 3.2,3.1z" class="st0"/>
 </g>
</svg>